<?xml version="1.0" standalone="no"?>
<!DOCTYPE svg PUBLIC "-//W3C//DTD SVG 1.1//EN" "http://www.w3.org/Graphics/SVG/1.1/DTD/svg11.dtd" >
<svg xmlns="http://www.w3.org/2000/svg">
<metadata></metadata>
<defs>
<font id="lamparegular" horiz-adv-x="288" >
<font-face units-per-em="2048" ascent="1581" descent="-467" />
<missing-glyph horiz-adv-x="500" />
<glyph horiz-adv-x="2048" />
<glyph horiz-adv-x="2048" />
<glyph unicode="&#xd;" horiz-adv-x="2048" />
<glyph unicode="&#xa;" horiz-adv-x="2048" />
<glyph unicode=" " />
<glyph unicode="!" horiz-adv-x="204" d="M33 0v172h88v-172h-88zM33 344v1704h88v-1704h-88z" />
<glyph unicode="&#x22;" />
<glyph unicode="#" />
<glyph unicode="$" />
<glyph unicode="%" />
<glyph unicode="&#x26;" />
<glyph unicode="'" horiz-adv-x="145" d="M4 1872v172h88v-172h-88z" />
<glyph unicode="(" />
<glyph unicode=")" />
<glyph unicode="*" />
<glyph unicode="+" />
<glyph unicode="," horiz-adv-x="188" d="M37 4v162h22h37h23v-162q0 -19 -5 -41.5t-25 -46.5t-52 -25v33q40 0 47 80h-47z" />
<glyph unicode="-" />
<glyph unicode="." horiz-adv-x="200" d="M37 0v172h90v-172h-90z" />
<glyph unicode="/" />
<glyph unicode="0" />
<glyph unicode="1" />
<glyph unicode="2" />
<glyph unicode="3" />
<glyph unicode="4" />
<glyph unicode="5" />
<glyph unicode="6" />
<glyph unicode="7" />
<glyph unicode="8" />
<glyph unicode="9" />
<glyph unicode=":" />
<glyph unicode=";" />
<glyph unicode="&#x3c;" />
<glyph unicode="=" />
<glyph unicode="&#x3e;" />
<glyph unicode="?" horiz-adv-x="563" d="M0 0v172h88v-172h-88zM0 340q0 138 21.5 253t56 197.5t76 158t82.5 151t75.5 158.5t56 199t21.5 255q3 69 -11 120.5t-37 74.5t-46.5 36.5t-40.5 14.5l-16 2q-3 0 -8.5 -0.5t-21.5 -5.5t-30 -13.5t-31.5 -27t-30 -43.5t-20.5 -66t-8 -92h-88q-1 69 12 124.5t33.5 89.5 t46 59t51.5 36.5t47 18.5t34 8h14q5 0 14 -0.5t34 -7.5t48 -18.5t51 -36.5t47.5 -59t32.5 -89.5t12 -124.5q0 -139 -21.5 -255.5t-56 -199.5t-76 -158.5t-82.5 -151t-75.5 -157.5t-56 -197t-21.5 -253h-88z" />
<glyph unicode="@" />
<glyph unicode="A" horiz-adv-x="591" d="M0 0v1698v10q0 65 12 119q13 58 33.5 93.5t46 62t51.5 38.5t47 18.5t34 7.5l14 1q5 0 14 -1t34 -7.5t47.5 -18.5t50 -38.5t47.5 -62.5q21 -35 33 -93q12 -54 11 -119v-10v-1698h-88v575q-58 -61 -149 -61q-92 0 -150 61v-575h-88zM88 797q0 -30 7 -61t23 -62.5 t47.5 -51.5t74.5 -20q41 0 71.5 19t46 49t22.5 60.5t7 60.5v907q2 22 2 43q1 46 -9 84q-14 54 -37 79t-46.5 39t-40.5 15l-18 2q-7 0 -18.5 -1.5t-39.5 -15.5t-48 -39q-22 -25 -36 -79q-10 -38 -10 -86q0 -20 2 -41v-901z" />
<glyph unicode="B" horiz-adv-x="589" d="M0 318v32v25v63v490v63v707v10q0 65 12 119q13 58 33.5 93.5t46 62t51.5 38.5t47 18.5t34 7.5l14 1q5 0 14 -1t34 -7.5t48 -18.5t51 -38.5t47.5 -62t32.5 -93.5q12 -54 12 -119v-10v-707v-10q0 -55 -10 -104q-11 -54 -27.5 -88t-33.5 -59.5t-29 -36.5l-12 -11 q5 -4 12.5 -11.5t26.5 -35t34 -59.5t27 -86.5t12 -114.5v-25q0 -71 -13 -129t-34 -93.5t-46.5 -62t-50.5 -38.5t-46 -18.5t-34 -7.5l-13 -1q-130 0 -165 11q-47 16 -62 69q-13 50 -13 238zM88 280v-14q0 -131 18 -154q19 -24 134 -24q34 0 61 16.5t42.5 44.5t25.5 56t14 61 t5 49.5t1 30.5v29q0 73 -15.5 127t-37.5 79t-43.5 39t-36.5 16l-16 1q-33 0 -47.5 -0.5t-35.5 -2t-29 -5.5t-18.5 -10t-13.5 -17t-5.5 -25.5t-2.5 -35.5v-201v-60zM88 823q0 -21 2.5 -35t5.5 -24.5t13.5 -17t18.5 -10t29 -5t35.5 -2t47.5 -1.5q3 0 8.5 1t21.5 6t30.5 14 t32 29t29.5 46t20 70q7 38 7 85v12v707q2 22 2 43q1 46 -9 84q-14 54 -37.5 79t-47.5 39t-41 15l-18 2q-7 0 -18.5 -1.5t-39.5 -15.5t-48 -39q-22 -25 -36 -79q-10 -38 -10 -86q0 -20 2 -41v-875z" />
<glyph unicode="C" horiz-adv-x="563" d="M0 336v1362v10q0 65 12 119q13 58 33.5 93.5t46 62t51.5 38.5t47 18.5t34 7.5l14 1q5 0 14 -1t34 -7.5t48 -18.5t51 -38.5t47.5 -62t32.5 -93.5q12 -54 12 -119v-10h-47h-41q2 22 2 43q1 46 -9 84q-14 54 -37.5 79t-47.5 39t-41 15l-18 2q-38 0 -66.5 -22t-44 -53 t-25 -70.5t-12 -67t-2.5 -49.5v-1362q0 -32 7 -70t23 -80t48 -70t74 -28q7 0 18 1.5t39.5 15t48.5 36.5t34 75q10 36 11 81q0 19 -2 39h88v-10q1 -62 -11 -114q-12 -56 -33 -90t-46.5 -59t-51.5 -36.5t-47 -18.5t-34 -8h-14q-5 0 -14 0.5t-34 7.5t-48 18.5t-51 36.5 t-47.5 59t-33.5 90q-13 52 -12 115v9z" />
<glyph unicode="D" horiz-adv-x="589" d="M0 313v20v17v1348v17q0 196 11 245q13 58 58 75q43 13 169 13q5 0 14 -1t34 -7.5t47.5 -18.5t50 -38.5t47.5 -62.5q21 -35 33 -93q12 -54 11 -119v-10v-1348h-88v1348v17q-1 62 -13 110q-14 54 -36 79t-44.5 39t-37.5 15l-16 2h-64.5t-41.5 -11.5t-28 -20t-11.5 -47.5 t-6.5 -71v-112v-1348v-112t6.5 -71t11.5 -47.5t28 -20t41.5 -11.5h64.5q6 0 16.5 1.5t36.5 15.5t45.5 39t35.5 79q14 48 13 111v16h88v-10q1 -65 -11 -119q-12 -58 -33 -93.5t-46.5 -62t-51.5 -38.5t-47 -18.5t-34 -7.5l-14 -1q-130 0 -165 11q-46 15 -60 68q-13 49 -13 234 z" />
<glyph unicode="E" horiz-adv-x="565" d="M0 336v1362v10q0 65 12 119q13 58 34 93.5t46.5 62t51.5 38.5t47.5 18.5t34.5 7.5l14 1q5 0 14 -1t34 -7.5t47.5 -18.5t50 -38.5t47.5 -62.5q21 -35 33 -93q12 -54 11 -119v-10h-45h-43q2 22 2 43q1 46 -9 84q-14 54 -37.5 79t-47.5 39t-41 15l-18 2q-38 0 -66.5 -22 t-44 -53t-25 -70.5t-12 -67t-2.5 -49.5v-977h334v-88h-334v-297q0 -32 7 -70t23 -80t48 -70t74 -28q7 0 18 1.5t39.5 15t48.5 36.5t34 75q10 36 11 81q0 19 -2 39h88v-10q1 -62 -11 -114q-12 -56 -33 -90t-46.5 -59t-51.5 -36.5t-47 -18.5t-34 -8h-14q-5 0 -14 0.5t-34 7.5 t-48 18.5t-51 36.5t-47.5 59t-33.5 90q-13 52 -12 115v9z" />
<glyph unicode="F" horiz-adv-x="542" d="M0 0v1698v10q0 65 12 119q13 58 33.5 93.5t46 62t51.5 38.5t47 18.5t34 7.5l14 1q5 0 14 -1t34 -7.5t48 -18.5t51 -38.5t47.5 -62t32.5 -93.5q12 -54 12 -119v-10h-47h-41q2 22 2 43q1 46 -9 84q-14 54 -37.5 79t-47.5 39t-41 15l-18 2q-38 0 -66.5 -22t-44 -53 t-25 -70.5t-12 -67t-2.5 -49.5v-289h297v-90h-297v-1319h-88z" />
<glyph unicode="G" horiz-adv-x="565" d="M0 336v1362v10q0 65 12 119q13 58 34 93.5t46.5 62t51.5 38.5t47.5 18.5t34.5 7.5l14 1q5 0 14 -1t34 -7.5t47.5 -18.5t50 -38.5t47.5 -62t33 -93.5q11 -54 11 -119v-10h-45h-43q2 22 2 43q0 47 -9 84q-14 54 -37.5 79t-47.5 39t-41 15l-18 2q-38 0 -66.5 -22t-44 -53 t-25 -70.5t-12 -67t-2.5 -49.5v-1362q0 -32 7 -70t23 -80t48 -70t74 -28q7 0 18 1.5t39.5 15t48.5 36.5t34 75q11 36 11 81q0 19 -2 39h-149v88h237v-88q0 -69 -13 -124.5t-34 -89.5t-46.5 -59t-50.5 -36.5t-46 -18.5t-34 -8h-13q-5 0 -14 0.5t-34 7.5t-48 18.5t-51 36.5 t-47.5 59t-33.5 90q-12 51 -12 115v9z" />
<glyph unicode="H" horiz-adv-x="589" d="M0 0v2048h88v-1253q0 -30 7 -61t23 -62t47.5 -50.5t74.5 -19.5q120 0 143 158v1288h88v-1202v-6v-840h-88v571q-54 -57 -145 -57q-92 0 -150 61v-575h-88z" />
<glyph unicode="I" horiz-adv-x="204" d="M0 0v2048h88v-2048h-88z" />
<glyph unicode="J" horiz-adv-x="595" d="M0 1960v88h479v-29v-59v-1624q0 -69 -13 -124.5t-34 -89.5t-46.5 -59t-50.5 -36.5t-46 -18.5t-34 -8h-13q-5 0 -14 0.5t-34 7.5t-48 18.5t-51 36.5t-47.5 59t-33.5 90q-12 51 -12 115v9h47h41q-2 -21 -2 -40q0 -44 10 -80q14 -52 37 -75t47.5 -36.5t41.5 -14.5l18 -2 q3 0 8.5 0.5t21 5.5t29.5 13.5t31 27t29.5 43.5t21 66t8.5 92v1624h-391z" />
<glyph unicode="K" horiz-adv-x="591" d="M0 0v377v61v492v63v1055h88v-1221q0 -21 2.5 -35.5t5.5 -25.5t13.5 -17t18.5 -10t29 -5.5t35.5 -2t47.5 -1.5q41 0 71 25.5t44.5 57t22.5 74.5t9.5 64.5t1.5 39.5h-2l2 1057h88v-1055v-10q0 -55 -10 -104q-11 -54 -27.5 -88t-33.5 -59.5t-29 -36.5l-12 -11 q5 -4 12.5 -11.5t26.5 -35t34 -59.5t27 -86.5t12 -114.5v-371h-90l2 371q0 73 -15.5 127t-37.5 79t-43.5 39t-36.5 16l-16 1q-33 0 -47.5 -0.5t-35.5 -2t-29 -5.5t-18.5 -10t-13.5 -17t-5.5 -25.5t-2.5 -35.5v-543h-88z" />
<glyph unicode="L" horiz-adv-x="505" d="M0 190v141v21v1696h88v-1696q0 -171 1 -186q5 -53 34 -67q22 -10 110 -11h240v-88h-240h-99t-63.5 14.5t-42.5 25.5t-18 60.5t-10 89.5z" />
<glyph unicode="M" horiz-adv-x="593" d="M0 0v2048h88v-1028q8 -166 46.5 -285.5t103.5 -242.5q65 119 103 239.5t46 288.5v1028h90l-2 -2048h-88v623q-28 -70 -104 -207v-416h-88v410h-5q-68 118 -102 202v-612h-88z" />
<glyph unicode="N" horiz-adv-x="591" d="M0 1360v688h2h86h2v-772q0 -115 19.5 -212.5t54.5 -174t70.5 -137.5t80 -136t70.5 -137v1569h88v-1974q0 -11 1 -35t1 -37h-2v-2h-88v84q0 114 -19.5 210.5t-54.5 172t-70.5 136.5t-79.5 136t-71 138v-877h-88v1286q0 12 -1 36t-1 38z" />
<glyph unicode="O" horiz-adv-x="591" d="M0 336v14v1348v14v10q0 62 12 114q13 56 33.5 90t46 59t51.5 36.5t47 18.5t34 8h14q5 0 14 -0.5t34 -7.5t48 -18.5t51 -36.5t47.5 -59t32.5 -90q12 -52 12 -114v-10v-14v-1348v-14v-10q1 -62 -11 -114q-12 -56 -33 -90t-46.5 -59t-51.5 -36.5t-47 -18.5t-34 -8h-14 q-5 0 -14 0.5t-34 7.5t-48 18.5t-51 36.5t-47.5 59t-33.5 90q-13 52 -12 115v9zM88 336q0 -32 7 -70t23 -80t48 -70t74 -28q46 0 78.5 31.5t46.5 79.5t19 84.5t5 66.5v1362q0 32 -7 70t-22.5 80t-47.5 70t-74 28q-38 0 -66.5 -22t-44 -53t-25 -70.5t-12 -67t-2.5 -49.5 v-1362z" />
<glyph unicode="P" horiz-adv-x="573" d="M0 0v930v61v707v17q0 196 11 245q13 58 58 75q43 13 169 13q55 0 98 -24t67 -57t40.5 -79t22.5 -79t9 -68v-750q0 -71 -13 -129t-34 -93.5t-46.5 -62t-50.5 -38.5t-46 -18.5t-34 -7.5l-13 -1q-115 0 -150 8v-649h-88zM88 825q0 -21 2.5 -35.5t5.5 -25.5t13.5 -17 t18.5 -10t29 -5.5t35.5 -2t47.5 -0.5q6 0 16.5 1.5t36.5 15.5t45.5 39t35.5 79q14 48 13 111v16v707v17q-1 62 -13 110q-14 54 -36 79t-44.5 39t-37.5 15l-16 2q-115 0 -134 -24q-18 -23 -18 -154v-14v-68v-875z" />
<glyph unicode="Q" horiz-adv-x="591" d="M0 336v14v1348v14v10q0 63 12 114q13 56 33.5 90t46 59t51.5 36.5t47 18.5t34 8h14q5 0 14 -0.5t34 -7.5t48 -18.5t51 -36.5t47.5 -59t32.5 -90q12 -51 12 -114v-10v-14v-1348v-14v-7q0 -57 -14 -112q-15 -59 -30 -88l-15 -29q32 -12 53 -12h6v-88h-8q-64 0 -115 33 q-51 -33 -114 -33q-5 0 -14 0.5t-34 7.5t-48 18.5t-51 36.5t-47.5 59t-33.5 90q-12 51 -12 115v9zM88 336q0 -32 7 -70t23 -80t48 -70t74 -28q30 0 51 12q-7 11 -17 31.5t-27 82.5q-16 58 -16 115v7h88q0 -91 35 -162q35 76 35 176v1362q0 32 -7 70t-22.5 80t-47.5 70 t-74 28q-38 0 -66.5 -22t-44 -53t-25 -70.5t-12 -67t-2.5 -49.5v-1362z" />
<glyph unicode="R" horiz-adv-x="589" d="M0 0v375v63v490v63v707v10q0 65 12 119q13 58 33.5 93.5t46 62t51.5 38.5t47 18.5t34 7.5l14 1q5 0 14 -1t34 -7.5t47.5 -18.5t50 -38.5t47.5 -62.5q21 -35 33 -93q12 -54 11 -119v-10v-707v-10q0 -55 -10 -104q-11 -54 -27 -88t-33 -59.5t-29 -36.5l-11 -11l11.5 -11.5 t26.5 -35t33.5 -59.5t26.5 -86.5t12 -114.5v-369h-88v369q0 73 -15 127t-37 79t-43.5 39t-36.5 16l-15 1q-33 0 -47.5 -0.5t-35.5 -2t-29 -5.5t-18.5 -10t-13.5 -17t-5.5 -25.5t-2.5 -35.5v-541h-88zM88 823q0 -21 2.5 -35t5.5 -24.5t13.5 -17t18.5 -10t29 -5t35.5 -2 t47.5 -1.5q6 0 16.5 2t36.5 16t45.5 39t35.5 79q14 48 13 111v16v707q0 73 -15.5 127t-37.5 79t-43.5 39t-36.5 15l-16 2q-3 0 -8.5 -0.5t-21 -5.5t-29.5 -14t-31.5 -29t-30 -46.5t-21 -70t-8.5 -96.5v-875z" />
<glyph unicode="S" horiz-adv-x="567" d="M0 336h47h41q-2 -21 -2 -40q0 -44 10 -80q14 -52 37 -75t47.5 -36.5t41.5 -14.5l18 -2q6 0 16.5 1.5t37 15t46.5 36.5t36 75q14 46 13 104v16q-3 137 -25.5 247.5t-57 186t-75 143.5t-81 140t-74 155.5t-54.5 209.5t-22 284q0 71 13 128t34.5 92t47 61t51 38t47 18.5 t34.5 7.5l13 1q5 0 14 -1t34 -7.5t47.5 -18.5t50 -38t47.5 -61q21 -35 33 -92q12 -53 11 -118v-10h-45h-43q0 72 -15.5 125.5t-37.5 77.5t-44.5 38t-37.5 15l-16 2q-3 0 -8.5 -0.5t-21 -5.5t-29.5 -14t-31 -28.5t-29.5 -45.5t-21.5 -68.5t-9 -95.5q0 -139 21 -255 t55.5 -198.5t76 -157l83 -149t76 -156.5t56 -197t21.5 -253v-19q-1 -57 -11 -105q-12 -56 -32.5 -90t-46 -59t-51.5 -36.5t-47.5 -18.5t-34.5 -8h-14q-5 0 -14 0.5t-34 7.5t-48 18.5t-51 36.5t-47.5 59t-33.5 90q-13 52 -12 115v9z" />
<glyph unicode="T" horiz-adv-x="538" d="M0 1698q0 205 10 255q12 63 56 81q33 13 129 14h88q32 0 53 -0.5t42 -6t33 -7t24 -15.5t18 -20t11.5 -32t7.5 -38.5t3.5 -53.5t1.5 -64v-81v-32h-90q0 170 -6 201q-8 44 -41 55q-19 5 -57 6v-1960h-88v1960q-79 -1 -93 -29q-14 -26 -14 -143v-17v-73h-41h-47z" />
<glyph unicode="U" horiz-adv-x="593" d="M0 336v1712h88v-1712q-2 -21 -2 -40q0 -44 10 -80q14 -52 37 -75t47.5 -36.5t41.5 -14.5l18 -2q41 0 72 19t47 49.5t23 61t7 61.5v57v1712h88v-336v-1376v-17v-319h-88v61q-58 -61 -149 -61q-5 0 -14 0.5t-34 7.5t-48 18.5t-51 36.5t-47.5 59t-33.5 90q-13 52 -12 115v9z " />
<glyph unicode="V" horiz-adv-x="587" d="M0 618v1430h88v-1438q0 -119 24.5 -239t59.5 -193.5t66 -73.5q27 0 61.5 73t61 194.5t26.5 238.5v1438h88v-1430q-5 -102 -23 -192.5t-49.5 -170.5t-57 -131t-66.5 -124h-89q-44 76 -68.5 124.5t-57.5 130t-48.5 171.5t-15.5 192z" />
<glyph unicode="W" horiz-adv-x="972" d="M0 616v1432h88v-1438q0 -185 46.5 -330t103.5 -145q49 0 94.5 143t54.5 328v10v1432h88v-1432v-6q8 -192 50 -333.5t98 -141.5q34 0 69 66t58 178q22 107 22 221v10v1438h88v-1432q-4 -101 -22 -191t-50 -170.5t-57 -130.5t-67 -124h-89q-103 183 -145 336 q-45 -148 -151 -336h-89q-44 76 -68.5 124.5t-57.5 129.5t-48.5 171t-15.5 191z" />
<glyph unicode="X" horiz-adv-x="585" d="M0 0q0 98 12 185.5t27.5 148.5t45.5 130.5t51 107.5t59 104q-39 67 -59 105t-50.5 108.5t-46 131.5t-27.5 150.5t-12 188.5v688h88v-688q0 -199 39.5 -337t110.5 -267q72 128 111.5 266t39.5 338v688h88v-688q0 -83 -7 -156.5t-23 -138t-30 -111t-42 -104t-43.5 -86.5 t-48.5 -88q39 -68 58.5 -104t50 -107t46 -131t27.5 -148t12 -186h-88q0 197 -39 332.5t-112 265.5q-72 -132 -111 -267t-39 -331h-88z" />
<glyph unicode="Y" horiz-adv-x="591" d="M0 336h47h41v-8q0 -64 14 -112q16 -52 38.5 -75t45 -36.5t38.5 -14.5l16 -2q3 0 8.5 0.5t21 5.5t29.5 13.5t31 27t29.5 43.5t21 66t8.5 92v403q-58 -61 -149 -61q-5 0 -13.5 0.5t-33.5 7.5t-47.5 18.5t-50.5 36.5t-48 59t-33.5 89.5t-13.5 124.5v1034h88v-1034 q0 -69 15.5 -120.5t38 -74.5t45 -36.5t37.5 -14.5l16 -2q42 0 73 19.5t46.5 50.5t22.5 61.5t7 60.5v1090h88v-1034v-15v-663v-10q0 -63 -11 -114q-13 -56 -33.5 -90t-46 -59t-51.5 -36.5t-47 -18.5t-34 -8h-14q-5 0 -14 0.5t-34 7.5t-48 18.5t-51 36.5t-47.5 59t-33.5 90 q-12 51 -12 115v9z" />
<glyph unicode="Z" horiz-adv-x="589" d="M0 188v138v16v2v6q1 188 38.5 320.5t104.5 259.5q-3 4 -9 11.5t-21 33.5t-26 55q-11 28 -20 74q-8 41 -8 84v10h88q0 -38 11.5 -89.5t34.5 -90.5q38 66 58.5 104.5t51 108.5t45.5 131t27 149.5t12 186.5q0 169 -7 202q-8 43 -41 53q-22 7 -99 7q-116 0 -134 -24 q-18 -22 -18 -150v-14v-74h-41h-47v17q0 196 11 245q13 58 58 75q43 13 169 13q177 0 207 -40t30 -275v-35q0 -62 -3.5 -118t-13 -107t-17.5 -91t-25.5 -85.5t-27.5 -73.5t-33 -71.5t-33.5 -62.5t-36.5 -64.5t-35 -61.5q23 -13 49 -13h6v-88h-8q-42 0 -90 19 q-56 -112 -87.5 -237t-31.5 -294v-28q0 -55 -0.5 -78t3 -56.5t4.5 -43.5t11.5 -26t16.5 -18t27 -7.5t35.5 -5t49.5 0.5h3q114 0 132 23q18 22 17 148v14v77h43h45q0 -205 -8 -252q-11 -64 -53 -83q-35 -15 -155 -15h-21h-101.5t-65 15t-43 25.5t-18.5 59.5t-10 88z" />
<glyph unicode="[" />
<glyph unicode="\" />
<glyph unicode="]" />
<glyph unicode="^" />
<glyph unicode="_" />
<glyph unicode="`" />
<glyph unicode="a" horiz-adv-x="667" d="M4 350v19v471q0 14 1 32.5t6.5 53.5t14.5 67t26.5 68t41.5 62t61 43.5t83 17.5q93 0 149 -66v66h86v-342v-2v-490v-4q0 -13 1.5 -30.5t5.5 -49.5t14.5 -60.5t26 -55.5t42 -43.5t60.5 -16.5q8 0 12 2v-88h-12q-132 0 -193 133q-61 -133 -190 -133q-10 0 -25.5 2t-56.5 21 t-72 51.5t-56.5 103.5t-25.5 168zM90 348q0 -15 1.5 -36.5t10 -63.5t23 -74.5t44.5 -58t71 -25.5q6 0 16.5 1.5t36.5 15.5t45.5 38.5t35.5 78.5q14 47 13 110v16v490q0 18 -1.5 40.5t-10 64t-22.5 73t-43.5 56t-69.5 24.5q-3 0 -8.5 -0.5t-21 -5.5t-29.5 -14t-31.5 -28.5 t-30 -45.5t-21 -68.5t-8.5 -95.5v-490v-2z" />
<glyph unicode="b" horiz-adv-x="573" d="M0 0v291v10v573v13v788h86v-555q56 56 145 56q5 0 13.5 -0.5t32.5 -6.5t46 -16.5t48.5 -33.5t46 -53.5t32.5 -80.5t13 -111v-573v-9q0 -56 -11 -102q-12 -50 -32.5 -80.5t-45.5 -53t-50 -33t-46 -16.5t-34 -7h-13q-90 0 -145 55v-55h-86zM86 281q0 -27 6 -57.5t20 -66.5 t45 -59.5t74 -23.5q6 0 16.5 1.5t36.5 13.5t46 33q18 22 34 68q15 44 15 103v8v573v8q0 58 -14 102q-15 46 -36.5 68t-44 34.5t-38.5 13.5l-15 2q-43 0 -74 -23t-45 -59t-20 -66t-6 -57v-616z" />
<glyph unicode="c" horiz-adv-x="563" d="M0 301v576h2h-2v9q0 57 12 103q12 50 32.5 80.5t45.5 53.5t50 33.5t46 16.5t34 7h13q5 0 13.5 -0.5t33 -6.5t47 -16.5t49.5 -33.5t46 -53q20 -31 32 -81q12 -46 11 -103v-9h-84v8q0 59 -14 103q-15 46 -36.5 67.5t-44 33.5t-38.5 13l-15 2q-6 0 -16.5 -1.5t-36.5 -13.5 t-46 -33q-18 -22 -34 -68q-14 -41 -14 -97v-14v-576v-2q0 -14 1.5 -33.5t10 -56t22.5 -64.5t43.5 -49.5t69.5 -21.5q6 0 16.5 1.5t36.5 13.5t46 33q18 22 34 68q15 44 15 103v8h84v-9q0 -56 -11 -102q-12 -50 -32.5 -80.5t-45.5 -53t-50 -33t-46 -16.5t-34 -7h-13 q-5 0 -13.5 0.5t-32.5 6.5t-46 16.5t-49 33t-46 53t-32.5 80.5t-13.5 111z" />
<glyph unicode="d" horiz-adv-x="675" d="M2 336v4v4v16v471q0 14 1 31.5t6 53t13.5 67.5t26 68t41 62t60.5 43.5t83 17.5q91 0 150 -66v567h84v-501v-340v-3v-487v-4q0 -17 1.5 -39.5t10.5 -63.5t23.5 -72.5t44 -56t69.5 -24.5q2 0 6.5 1t6.5 1v-86h-13q-128 0 -190 131q-62 -131 -190 -131q-44 0 -81 16 t-60.5 41t-41.5 59.5t-27.5 66t-15 65t-7 53.5t-1.5 35zM86 336q0 -19 2 -43.5t11.5 -63.5t24.5 -69.5t44 -53t68 -22.5q37 0 65.5 21t43 49.5t24 65.5t12 63t2.5 47v510q0 20 -2.5 45.5t-12 63t-24 67t-43 50.5t-65.5 21q-6 0 -16 -1.5t-36 -15.5t-46 -38t-36 -76.5 t-16 -124.5v-471v-24z" />
<glyph unicode="e" horiz-adv-x="563" d="M0 301v576v9q0 57 12 103q12 50 32 80.5t45 53.5t50 33.5t45.5 16.5t33.5 7h13q53 0 95 -19.5t66 -52t40 -66.5t22.5 -71.5t8.5 -56.5t2 -33v-80h-379v-500v-2q0 -14 1.5 -33.5t10 -56t22.5 -64.5t43.5 -49.5t69.5 -21.5q6 0 16.5 1.5t36 13.5t45 33.5t35.5 67.5 q14 41 13 97v14h86v-9q0 -56 -11 -102q-12 -50 -32.5 -80.5t-45.5 -53t-50 -33t-46 -16.5t-34 -7h-13q-5 0 -13.5 0.5t-32.5 6.5t-46 16.5t-49 33t-46 53t-32.5 80.5t-13.5 111zM86 881h293q0 21 -3.5 47.5t-16 71.5t-45 74.5t-81.5 29.5q-40 0 -70 -21.5t-44 -48.5 t-22 -63.5t-9.5 -55t-1.5 -34.5z" />
<glyph unicode="f" horiz-adv-x="542" d="M2 0v877v9q0 57 11 103q12 50 32.5 80.5t45 53.5t49.5 33.5t46 16.5t34 7h13q5 0 13.5 -0.5t33 -6.5t47 -16.5t49.5 -33.5t46.5 -53.5t32.5 -80.5q12 -46 12 -103v-9h-86v8q0 59 -14 103q-15 46 -36.5 67.5t-44 33.5t-38.5 13l-15 2q-6 0 -16 -1.5t-36 -13.5t-45.5 -33.5 t-35.5 -67.5q-14 -44 -14 -103v-8v-187h285v-78h-285v-612h-84z" />
<glyph unicode="g" horiz-adv-x="491" d="M0 367v530q0 58 11 104.5t28 75.5t37.5 50t41.5 31t38 15.5t28 6.5h11q8 0 21 -1.5t46 -17t58 -42t46 -85t21 -137.5v-530v-2v-580q0 -78 -19.5 -135.5t-47 -84t-55 -41.5t-47.5 -16l-19 -2q-4 0 -11 0.5t-27 6t-38 15t-40 30.5t-37.5 49.5t-25.5 74.5q-10 42 -10 93v10 h78q1 -59 12.5 -102t27.5 -62.5t32.5 -30.5t27.5 -12l11 -2q4 0 11.5 1t26.5 12.5t33.5 31t26.5 62.5t12 102v346q-44 -41 -110 -41q-4 0 -11 0.5t-28 6t-39.5 14.5t-41.5 30t-39.5 49t-28 74t-11.5 103zM80 367q2 -56 15 -97t30.5 -59.5t34 -29.5t28.5 -12l11 -1 q32 0 55 17t34 44t16 52.5t5 50.5v37v528q0 43 -6.5 78.5t-16.5 57t-22 37.5t-24 23.5t-22 11.5t-16 5h-7q-5 0 -12.5 -1.5t-27.5 -13t-35 -31.5t-27.5 -63.5t-12.5 -103.5v-530z" />
<glyph unicode="h" horiz-adv-x="579" d="M0 0v1675h86v-559q57 60 147 60q5 0 13.5 -0.5t32.5 -6.5t46 -16.5t48.5 -33.5t46 -53.5t32.5 -80.5t13 -111v-874h-84v874v8q0 58 -14 102q-15 46 -36.5 68t-44 34.5t-38.5 13.5l-15 2q-6 0 -16 -1.5t-36 -14t-45 -34.5q-20 -22 -35 -68q-13 -41 -13 -95v-15v-538h-2 v-336h-86z" />
<glyph unicode="i" horiz-adv-x="221" d="M0 0v1180h88v-1180h-88zM0 1313v131h88v-131h-88z" />
<glyph unicode="j" horiz-adv-x="237" d="M-88 -436q4 0 9.5 1.5t21 11.5t27 26.5t21 52.5t9.5 84v1440h94v-1440v-7q0 -60 -18 -105q-18 -48 -44.5 -70.5t-54 -35.5t-46.5 -14l-19 -2v58zM0 1315v131h94v-131h-94z" />
<glyph unicode="k" horiz-adv-x="468" d="M0 0v276v62v324v65v948h86v-1130q14 -10 90 -10q3 0 8.5 1t20 11.5t25.5 28.5t21.5 57.5t12.5 93.5v449h84v-449v-10q0 -39 -7 -73q-8 -40 -20 -65t-24.5 -43t-21.5 -26l-9 -8l8.5 -8.5t20 -26.5t25 -45.5t19.5 -65.5t9 -86v-270h-84v270q0 56 -9 97t-22 59.5t-26 29.5 t-22 12l-9 1q-76 0 -90 -10v-459h-86z" />
<glyph unicode="l" horiz-adv-x="280" d="M4 336v844h84v-844q0 -66 1 -106t6.5 -70t9.5 -43.5t18.5 -21.5t25.5 -9t37 -2h29v-84h-29q-33 0 -49 0.5t-38.5 5t-32.5 12.5t-23.5 24.5t-18.5 40.5t-11 60t-7.5 82.5t-1.5 110.5z" />
<glyph unicode="m" horiz-adv-x="958" d="M0 0v1180h86v-60q60 60 150 60q127 0 190 -117q59 117 190 117q5 0 13.5 -0.5t32.5 -6.5t46 -16.5t48.5 -33.5t46 -53.5t32.5 -80.5t13 -112v-877h-84v877v8q0 59 -14 103q-16 46 -37.5 67.5t-43.5 33.5t-37 13l-16 2q-6 0 -16.5 -1.5t-36.5 -13.5t-45.5 -33.5 t-35.5 -67.5q-14 -41 -13 -97v-14v-541h-2v-336h-84v877v8q1 59 -13 103q-14 46 -36.5 67.5t-44.5 33.5t-37 13l-16 2q-6 0 -16.5 -1.5t-36.5 -13.5t-46 -33q-19 -22 -35 -68q-14 -41 -14 -97v-14v-541h-2v-336h-86z" />
<glyph unicode="n" horiz-adv-x="577" d="M0 0v1180h86v-60q57 60 150 60q5 0 13 -0.5t32 -6.5t46 -16.5t48.5 -33.5t46 -53.5t32.5 -80.5t13 -112v-877h-84v877v8q0 59 -14 103q-15 46 -37 67.5t-43.5 33.5t-36.5 13l-16 2q-6 0 -16.5 -1.5t-36.5 -13.5t-46 -33q-19 -22 -35 -68q-14 -41 -14 -97v-14v-541h-2 v-336h-86z" />
<glyph unicode="o" horiz-adv-x="569" d="M0 293v573v9q0 57 12 103q12 50 32 80.5t45 53.5t50 33.5t45.5 16.5t33.5 6l13 1q5 0 13.5 -0.5t32.5 -6.5t46.5 -16.5t49.5 -33t46 -53t32.5 -80.5t13.5 -111v-575v-9q0 -56 -11 -102q-12 -50 -32.5 -80.5t-45.5 -53t-50 -33t-46 -16.5t-34 -7h-13q-5 0 -13.5 0.5 t-32.5 6.5t-46 16.5t-49 33t-46 53t-32.5 80.5t-13.5 111zM84 289q0 -14 1.5 -33.5t10 -56t22.5 -64.5t43.5 -50t69.5 -22q6 0 16.5 1.5t36.5 14t46 34t36 69.5q14 42 13 97v14v573v2v8q0 58 -14 102q-15 46 -36.5 67t-44 33.5t-38.5 13.5l-15 2q-6 0 -16 -1.5t-36 -14 t-45 -34.5q-20 -22 -35 -68q-13 -41 -13 -95v-15h-2v-573v-2v-2z" />
<glyph unicode="p" horiz-adv-x="530" d="M-104 -424q4 0 11 1.5t25 13t32 31t25 62.5t11 101v571v13v530v9q0 52 10 94q12 47 31 75.5t42 49.5t46 31t42.5 15.5t31.5 6.5h12q4 0 12 -0.5t30.5 -6t42.5 -15.5t45 -31t43 -49.5t30 -75t12 -103.5v-530q0 -57 -12 -103.5t-31 -75t-42 -49.5t-45.5 -31t-41.5 -15.5 t-31 -6.5h-12q-85 0 -135 53v-356v-8q0 -72 -18 -127q-18 -57 -45 -83t-54.5 -41.5t-46.5 -17.5l-20 -2v70zM78 365q0 -13 1.5 -31t9.5 -51.5t21 -59t40.5 -45.5t64.5 -20q6 0 15.5 1.5t33.5 12.5t42 31t32 63q14 41 14 95v8v530v8q0 54 -13 95q-14 43 -34.5 63t-40.5 31 t-34 12l-15 2q-3 0 -8 -0.5t-19.5 -4.5t-27.5 -11.5t-29 -23t-27 -37t-18 -56.5q-6 -31 -6 -67v-11h-2v-530v-2v-2z" />
<glyph unicode="q" horiz-adv-x="577" d="M0 301v576v9q0 57 12 103q12 50 32 80.5t45 53.5t50 33.5t45.5 16.5t33.5 7h13q5 0 13.5 -0.5t32.5 -6.5t46.5 -16.5t49.5 -33.5t46 -53.5t32.5 -80.5t13.5 -112v-576v-7q0 -45 -11 -90q-12 -50 -24 -75l-12 -25q21 -12 51 -12h6v-88h-8q-63 0 -111 33q-53 -37 -123 -37 q-5 0 -13.5 0.5t-32.5 6.5t-46 16.5t-49 33t-46 53t-32.5 80.5t-13.5 111zM86 299q0 -12 1 -26t5 -43t14 -53.5t24.5 -49t41 -39t59.5 -14.5q36 0 68 18q-8 11 -19.5 31.5t-30.5 84.5q-18 61 -18 122v6h2h86q0 -89 37 -164q3 7 7 19t11 46q5 29 5 56v8v576v8q0 59 -14 103 q-15 46 -36.5 67.5t-44 33.5t-38.5 13l-15 2q-3 0 -8.5 -0.5t-21 -5t-29.5 -12t-31 -25t-29 -40.5t-20 -61q-6 -33 -6 -72v-11v-576v-2z" />
<glyph unicode="r" horiz-adv-x="423" d="M-51 979q0 133 8 159q9 32 45 39q19 3 80 3q7 0 17.5 -1t38 -12t48 -30t35.5 -61q13 -35 13 -79q0 -9 -1 -18v-678v-1q0 -11 0.5 -23.5t3 -42.5t10 -54.5t20 -50t35 -40.5t52.5 -15q2 0 6.5 1t6.5 1v-76h-13q-8 0 -22 2t-50 18t-63 44.5t-49.5 90.5t-22.5 146v678 q0 42 -6.5 73t-16 44.5t-18.5 21.5t-16 9l-6 1h-1q-38 0 -44 -18.5t-6 -130.5h-58h-26z" />
<glyph unicode="s" horiz-adv-x="393" d="M0 193h27h59q-1 -30 4.5 -52t13.5 -32t16 -16t14 -7h5q2 0 5.5 0.5t12.5 6.5t15.5 16t12 32t5.5 52q-1 92 -15.5 167.5t-35 123t-45 101t-45 101.5t-35 124t-14.5 169q0 56 14 97.5t34 60.5t40.5 30t34.5 12l14 1q6 0 15.5 -1t33.5 -12t42 -30t32 -61q14 -39 14 -90v-7 h-26h-58q1 33 -4 57t-13 35t-16 17.5t-14 7.5h-6q-2 0 -5.5 -0.5t-12 -7t-15 -17.5t-12 -35t-6.5 -57v-21q0 -96 16 -172q18 -84 46.5 -142.5t57 -116t48.5 -142t20 -192.5v-7q0 -49 -12 -87q-14 -40 -34.5 -58t-41 -28.5t-34.5 -11.5l-15 -1q-6 0 -15 1t-33 11.5t-42 28.5 t-33 58q-14 38 -14 87v7z" />
<glyph unicode="t" horiz-adv-x="362" d="M-14 1096v82h75v495h84v-495h78v-82h-78v-762h-2q0 -10 1 -25.5t5 -47.5t14 -60.5t24.5 -56.5t40.5 -45t59 -17q2 0 6 1t6 1v-84h-12q-62 0 -108 33t-67.5 77.5t-33.5 96.5t-14 83t-1 44h-2v762h-75z" />
<glyph unicode="u" horiz-adv-x="565" d="M0 293v876h86v-876q0 -44 6.5 -79.5t17 -57t23 -37.5t25.5 -23t23.5 -11t16.5 -5h7q35 0 60 18t37 46.5t17 55.5t5 54v35v4v876h86v-876v-4v-13q0 -27 4 -56t15 -67.5t37.5 -62.5t65.5 -24q7 0 11 2v-74q-4 -2 -11 -2q-108 0 -165 104q-53 -104 -162 -104q-8 0 -22 2 t-49.5 18t-63 44.5t-49.5 90.5q-21 59 -21 139v7z" />
<glyph unicode="v" horiz-adv-x="382" d="M4 354v826h86v-830q0 -104 13.5 -161.5t37.5 -57.5q21 0 36.5 59t15.5 160l-3 830h86v-826q-3 -76 -23 -148t-37.5 -109t-51.5 -97h-51q-27 49 -39 72.5t-32.5 72.5t-29 100t-8.5 109z" />
<glyph unicode="w" horiz-adv-x="604" d="M0 354v826h82v-830q0 -113 11.5 -163t43.5 -50q29 0 48.5 54t23.5 157v6v826h76v-826v-4q9 -213 73 -213q58 0 58 213v830h80v-826q-4 -76 -24 -147.5t-38 -109.5t-51 -97h-51q-63 112 -84 193q-23 -77 -88 -193h-51q-27 49 -39 72.5t-32.5 72.5t-29 100t-8.5 109z" />
<glyph unicode="x" horiz-adv-x="374" d="M0 -2q0 69 7 125.5t23.5 106.5t28 77.5t35.5 77.5q-31 63 -47 103t-31.5 118.5t-15.5 171.5v398h86v-398q0 -169 51 -299q51 130 51 299v398h86v-398q0 -93 -15.5 -171.5t-31.5 -118.5t-47 -103q24 -50 35.5 -77.5t28 -77.5t23.5 -106.5t7 -125.5h-86q0 163 -51 293 q-51 -130 -51 -293h-86z" />
<glyph unicode="y" horiz-adv-x="483" d="M0 369v811h78v-811q2 -56 15 -97t30.5 -59.5t34 -29.5t28.5 -12l11 -1q32 0 55.5 17t34.5 44.5t15.5 52.5t4.5 50v35v811h80v-811v-2v-582v-8q0 -73 -18 -127q-19 -58 -46.5 -84.5t-55.5 -41.5t-48 -16l-20 -2q-4 0 -11 0.5t-27 6t-38.5 15t-40.5 30.5t-38 49.5t-26 74.5 q-10 42 -10 93v10h78q1 -59 12.5 -102t27.5 -62.5t32.5 -30.5t27.5 -12l11 -2q4 0 11.5 1t26.5 12.5t33.5 31t26.5 62.5t12 102v348q-43 -43 -108 -43q-4 0 -11 0.5t-28 6t-39.5 15t-41.5 30.5t-39.5 49.5t-28 74.5t-11.5 103z" />
<glyph unicode="z" horiz-adv-x="380" d="M0 696h88q0 -47 14 -102q28 61 44 102.5t30 117.5t14 165q0 99 -4.5 115t-29.5 15q-11 -1 -17 -1t-17 1q-24 1 -29 -8q-7 -15 -7 -124h-57h-27q0 133 9 161q10 32 47 39q20 3 81 3h45.5t33.5 -4t25 -6t15.5 -15.5t10.5 -21t4.5 -34.5t2.5 -45v-61v-16q0 -89 -14.5 -165.5 t-28.5 -113.5t-47 -104.5t-43 -91.5q39 -49 95 -49h6v-88h-8q-71 0 -125 41q-22 -91 -25 -209q0 -95 5 -111.5t33 -15.5h15h15q27 -2 31.5 15t4.5 118h60h26v-16v-51.5t-1.5 -39.5t-2 -32.5t-5.5 -23t-7.5 -17.5t-13.5 -10.5t-17 -8t-23.5 -2.5t-29 -2h-37.5h-45.5t-33.5 4 t-25 5.5t-15.5 14.5t-11 20.5t-4 33.5t-2.5 44v60v8v5v8q0 154 47 276q-5 11 -13.5 30t-22 76t-13.5 111z" />
<glyph unicode="{" />
<glyph unicode="|" />
<glyph unicode="}" />
<glyph unicode="&#x2c6;" />
<glyph unicode="&#x25fc;" horiz-adv-x="1177" d="M0 0v1178h1178v-1178h-1178z" />
</font>
</defs>
</svg>
