<?xml version="1.0" encoding="UTF-8" standalone="no"?>
<!-- Created with Inkscape (http://www.inkscape.org/) -->

<svg
   xmlns:dc="http://purl.org/dc/elements/1.1/"
   xmlns:cc="http://creativecommons.org/ns#"
   xmlns:rdf="http://www.w3.org/1999/02/22-rdf-syntax-ns#"
   xmlns:svg="http://www.w3.org/2000/svg"
   xmlns="http://www.w3.org/2000/svg"
   xmlns:sodipodi="http://sodipodi.sourceforge.net/DTD/sodipodi-0.dtd"
   xmlns:inkscape="http://www.inkscape.org/namespaces/inkscape"
   width="48"
   height="48"
   id="svg2"
   version="1.1"
   inkscape:version="0.48.2 r9819"
   sodipodi:docname="New document 1">
  <defs
     id="defs4">
    <filter
       id="filter3820"
       inkscape:label="Drop shadow"
       inkscape:menu="ABCs"
       inkscape:menu-tooltip="Removes or decreases glows and jaggeries around objects edges after applying some filters"
       height="1.5"
       width="1.5"
       y="-.25"
       x="-.25"
       color-interpolation-filters="sRGB">
      <feGaussianBlur
         id="feGaussianBlur3822"
         result="result6"
         stdDeviation="0.4" />
      <feComposite
         id="feComposite3824"
         in2="result6"
         operator="in"
         in="SourceGraphic"
         result="result7" />
      <feComposite
         id="feComposite3826"
         in2="result7"
         operator="in"
         result="fbSourceGraphic"
         in="result7" />
      <feColorMatrix
         result="fbSourceGraphicAlpha"
         in="fbSourceGraphic"
         values="0 0 0 -1 0 0 0 0 -1 0 0 0 0 -1 0 0 0 0 1 0"
         id="feColorMatrix5718" />
      <feGaussianBlur
         id="feGaussianBlur5720"
         in="fbSourceGraphicAlpha"
         stdDeviation="0.7"
         result="blur" />
      <feColorMatrix
         id="feColorMatrix5722"
         result="bluralpha"
         type="matrix"
         values="1 0 0 0 0 0 1 0 0 0 0 0 1 0 0 0 0 0 0.6 0 " />
      <feOffset
         id="feOffset5724"
         in="bluralpha"
         dx="1.8"
         dy="2"
         result="offsetBlur" />
      <feMerge
         id="feMerge5726">
        <feMergeNode
           id="feMergeNode5728"
           in="offsetBlur" />
        <feMergeNode
           id="feMergeNode5730"
           in="fbSourceGraphic" />
      </feMerge>
    </filter>
    <filter
       id="filter5782"
       inkscape:label="Drop shadow"
       width="1.5"
       height="1.5"
       x="-.25"
       y="-.25">
      <feGaussianBlur
         id="feGaussianBlur5784"
         in="SourceAlpha"
         stdDeviation="0.7"
         result="blur" />
      <feColorMatrix
         id="feColorMatrix5786"
         result="bluralpha"
         type="matrix"
         values="1 0 0 0 0 0 1 0 0 0 0 0 1 0 0 0 0 0 0.6 0 " />
      <feOffset
         id="feOffset5788"
         in="bluralpha"
         dx="1.8"
         dy="2"
         result="offsetBlur" />
      <feMerge
         id="feMerge5790">
        <feMergeNode
           id="feMergeNode5792"
           in="offsetBlur" />
        <feMergeNode
           id="feMergeNode5794"
           in="SourceGraphic" />
      </feMerge>
    </filter>
  </defs>
  <sodipodi:namedview
     id="base"
     pagecolor="#ffffff"
     bordercolor="#666666"
     borderopacity="1.0"
     inkscape:pageopacity="0"
     inkscape:pageshadow="2"
     inkscape:zoom="13.258252"
     inkscape:cx="15.982977"
     inkscape:cy="26.823793"
     inkscape:document-units="px"
     inkscape:current-layer="layer1"
     showgrid="false"
     inkscape:window-width="935"
     inkscape:window-height="690"
     inkscape:window-x="0"
     inkscape:window-y="0"
     inkscape:window-maximized="0" />
  <metadata
     id="metadata7">
    <rdf:RDF>
      <cc:Work
         rdf:about="">
        <dc:format>image/svg+xml</dc:format>
        <dc:type
           rdf:resource="http://purl.org/dc/dcmitype/StillImage" />
        <dc:title></dc:title>
      </cc:Work>
    </rdf:RDF>
  </metadata>
  <g
     inkscape:label="Layer 1"
     inkscape:groupmode="layer"
     id="layer1"
     transform="translate(0,-1004.3622)">
    <g
       transform="matrix(0.99487917,0,0,1.0051472,-4,-2)"
       style="font-size:14.32621956000000019px;font-style:normal;font-weight:normal;line-height:125%;letter-spacing:0px;word-spacing:0px;fill:#000000;fill-opacity:1;stroke:#832022;stroke-width:0.10000000000000001;stroke-linejoin:round;stroke-miterlimit:4;stroke-opacity:1;font-family:Sans;stroke-dasharray:none;filter:url(#filter5782)"
       id="text3000"
       inkscape:export-filename="/Applications/MAMP/htdocs/Porfolio-Repo/images/amp.png"
       inkscape:export-xdpi="300.70001"
       inkscape:export-ydpi="300.70001">
      <path
         d="m 41.871313,1020.5516 c -1.07556,0.091 -2.160194,0.31 -3.253906,0.6563 -1.093786,0.3281 -1.932327,0.8568 -2.515625,1.5859 -0.382846,0.4375 -0.774773,1.0847 -1.175782,1.9414 -0.382845,0.8568 -0.847688,1.8685 -1.394531,3.0352 -0.546906,1.1667 -1.102895,2.3151 -1.667969,3.4453 -0.565133,1.1302 -0.999456,2.4196 -1.892657,3.5498 3.83469,3.7631 6.711739,6.771 11.310387,8.9594 2.710538,0.1374 6.036691,0.6014 8.419664,-0.5574 8.577845,-3.7884 3.144858,1.1451 -1.806795,4.4819 l -11.265625,0 c -1.324996,-1.5168 -8.159125,-6.5762 -10.507161,-9.1056 -0.601586,0.6563 -1.294294,1.3399 -2.078125,2.0508 -0.765646,0.6927 -1.576843,1.2943 -2.433594,1.8047 -0.947935,0.5469 -1.904965,0.9753 -2.871094,1.2851 -0.947932,0.3099 -2.069025,0.4649 -3.363281,0.4649 -1.34897,0 -2.688813,-0.2005 -4.019531,-0.6016 -1.330737,-0.3828 -2.5429756,-1.0026 -3.6367189,-1.8593 -1.0572962,-0.8386 -1.9140662,-1.9141 -2.5703125,-3.2266 -0.6562524,-1.3125 -0.984377,-2.8802 -0.984375,-4.7031 -2e-6,-2.2604 0.5924453,-4.3021 1.7773438,-6.125 1.2031199,-1.8412 3.4361906,-3.7917 6.6992186,-5.8516 -1.476571,-1.9505 -2.625008,-3.6367 -3.4453124,-5.0586 -0.8203188,-1.4218 -1.2304746,-3.0169 -1.2304687,-4.7851 -5.9e-6,-1.2578 0.1388719,-2.4063 0.5506537,-3.525 0.5104096,-1.0572 1.6502094,-2.2962 2.1328134,-2.7617 0.79768,-0.8499 1.946596,-1.456 3.142911,-1.9863 1.158618,-0.5135 2.424465,-0.6016 3.664062,-0.6016 1.458317,0 2.734357,0.237 3.828125,0.7109 1.353195,0.4824 2.121518,1.4554 2.814247,2.2027 0.637999,0.6928 1.121071,1.4948 1.449219,2.4063 0.34633,0.9115 0.519507,1.8229 0.519531,2.7343 -2.4e-5,2.1876 -0.764029,4.1008 -1.916761,5.7929 -1.188156,1.6738 -2.520564,3.6702 -4.908567,4.928 1.713524,2.3151 2.559684,3.6073 4.200328,5.5213 1.640602,1.8959 2.681345,3.3134 4.19439,5.1545 1.221327,-1.9505 2.705322,-3.3315 3.379829,-5.0451 0.67445,-1.7317 1.011689,-3.2539 1.011719,-4.5664 -3e-5,-0.5833 -0.428415,-1.039 -1.285156,-1.3672 -0.83857,-0.3463 -2.005235,-0.6744 -3.5,-0.9844 l 0,-1.9414 c 8.346716,1.9741 13.494205,-4.57 14.628906,0 l 0,1.9414 m -19.332031,-8.8867 c -2.1e-5,-1.8593 -0.410177,-3.2812 -1.230469,-4.2656 -0.820331,-1.0026 -1.986997,-1.5039 -3.5,-1.5039 -0.856786,0 -1.567723,0.1732 -2.132813,0.5195 -0.565117,0.3464 -1.048189,0.7839 -1.449218,1.3125 -0.364595,0.5105 -0.628918,1.0573 -0.792969,1.6406 -0.164074,0.5834 -0.246105,1.1029 -0.246094,1.5586 -1.1e-5,1.2579 0.328114,2.5339 0.984375,3.8282 0.656237,1.276 1.382227,2.4541 2.767657,4.277 1.877587,-1.0573 3.226544,-2.0905 4.046875,-3.3119 0.838522,-1.2395 1.552635,-2.4143 1.552656,-4.055 m 1.730753,24.842 c -1.695333,-2.151 -3.207335,-4.0516 -5.340128,-6.6037 -2.114598,-2.5703 -2.630536,-3.6519 -3.906565,-5.4201 -2.41048,1.4196 -3.81344,3.4014 -3.832444,5.5269 -7e-6,2.4792 0.701815,4.5391 2.105469,6.1797 1.421864,1.6224 3.317695,2.4336 5.6875,2.4336 3.073822,0.1555 4.329064,-1.4605 5.259364,-2.7531"
         style="font-size:56px;font-variant:normal;font-stretch:normal;fill:#832020;fill-opacity:1;stroke:#832022;font-family:Georgia;-inkscape-font-specification:Georgia;stroke-opacity:1;stroke-width:0.1;stroke-miterlimit:4;stroke-dasharray:none"
         id="path3792"
         inkscape:connector-curvature="0"
         sodipodi:nodetypes="cccccccccccccccsccsscccsccsscccccccccccccccccsccscccccccccccc" />
    </g>
  </g>
  <g
     inkscape:groupmode="layer"
     id="layer2"
     inkscape:label="Layer2"
     transform="translate(0,32)" />
</svg>
