<?xml version="1.0" encoding="UTF-8" standalone="no"?>
<!-- Created with Inkscape (http://www.inkscape.org/) -->

<svg
   xmlns:dc="http://purl.org/dc/elements/1.1/"
   xmlns:cc="http://creativecommons.org/ns#"
   xmlns:rdf="http://www.w3.org/1999/02/22-rdf-syntax-ns#"
   xmlns:svg="http://www.w3.org/2000/svg"
   xmlns="http://www.w3.org/2000/svg"
   xmlns:sodipodi="http://sodipodi.sourceforge.net/DTD/sodipodi-0.dtd"
   xmlns:inkscape="http://www.inkscape.org/namespaces/inkscape"
   width="48"
   height="48"
   id="svg2"
   version="1.1"
   inkscape:version="0.48.2 r9819"
   inkscape:export-filename="/Applications/MAMP/htdocs/Porfolio-Repo/images/amp2Light.png"
   inkscape:export-xdpi="300.70001"
   inkscape:export-ydpi="300.70001"
   sodipodi:docname="Amp2Light.svg">
  <defs
     id="defs4" />
  <sodipodi:namedview
     id="base"
     pagecolor="#ffffff"
     bordercolor="#666666"
     borderopacity="1.0"
     inkscape:pageopacity="0.0"
     inkscape:pageshadow="2"
     inkscape:zoom="11.729226"
     inkscape:cx="10.990589"
     inkscape:cy="16.262759"
     inkscape:document-units="px"
     inkscape:current-layer="layer1"
     showgrid="false"
     inkscape:window-width="847"
     inkscape:window-height="1027"
     inkscape:window-x="0"
     inkscape:window-y="0"
     inkscape:window-maximized="0" />
  <metadata
     id="metadata7">
    <rdf:RDF>
      <cc:Work
         rdf:about="">
        <dc:format>image/svg+xml</dc:format>
        <dc:type
           rdf:resource="http://purl.org/dc/dcmitype/StillImage" />
        <dc:title></dc:title>
      </cc:Work>
    </rdf:RDF>
  </metadata>
  <g
     inkscape:label="Layer 1"
     inkscape:groupmode="layer"
     id="layer1"
     transform="translate(0,-1004.3622)">
    <g
       style="font-size:40px;font-style:normal;font-variant:normal;font-weight:normal;font-stretch:normal;line-height:125%;letter-spacing:0px;word-spacing:0px;fill:#ffffff;fill-opacity:1;stroke:none;font-family:Playfair Display;-inkscape-font-specification:Playfair Display"
       id="text2985">
      <path
         d="m 34.876746,1015.5182 c 1.106743,0 2.102836,0.2214 2.988281,0.6641 0.885386,0.4297 1.582,1.0547 2.089844,1.875 0.50778,0.8073 0.761686,1.7643 0.761719,2.871 -3.3e-5,1.2761 -0.345084,2.3894 -1.035156,3.3399 -0.690135,0.9375 -1.608103,1.6927 -2.753907,2.2656 -0.937528,0.4427 -2.916692,1.1394 -5.9375,2.0899 1.497372,0.625 2.597631,1.5299 3.300782,2.7148 0.716119,1.1719 1.074191,2.5261 1.074218,4.0625 -2.7e-5,1.6537 -0.494818,3.2162 -1.484375,4.6875 -0.976587,1.4583 -2.389346,2.6367 -4.238281,3.5352 -1.848978,0.8984 -4.010434,1.3476 -6.484375,1.3476 -2.330742,0 -4.485688,-0.4036 -6.464844,-1.2109 -1.966152,-0.8203 -3.541671,-1.9857 -4.726562,-3.4961 -1.171878,-1.5104 -1.757815,-3.2617 -1.757813,-5.2539 -2e-6,-1.7578 0.436196,-3.2422 1.308594,-4.4531 0.872392,-1.211 1.861974,-2.1289 2.96875,-2.754 1.119784,-0.638 2.15494,-1.0807 3.105469,-1.3281 -1.302092,-0.5599 -2.298184,-1.302 -2.988281,-2.2265 -0.69011,-0.9245 -1.035162,-1.9011 -1.035157,-2.9297 -5e-6,-0.8854 0.260411,-1.7057 0.78125,-2.461 0.520827,-0.7682 1.289055,-1.3801 2.304688,-1.8359 1.015615,-0.4687 2.239572,-0.7031 3.671875,-0.7031 1.78384,0 3.170557,0.4036 4.160156,1.2109 0.494775,0.4037 0.865868,0.8529 1.113281,1.3477 0.247378,0.4818 0.371076,0.9505 0.371094,1.4062 -1.8e-5,0.6381 -0.227882,1.1524 -0.683594,1.543 -0.455746,0.3906 -0.976578,0.5859 -1.5625,0.5859 -0.572931,0 -1.067723,-0.1822 -1.484375,-0.5469 -0.403659,-0.3645 -0.605482,-0.8528 -0.605468,-1.4648 -1.4e-5,-0.5729 0.195298,-1.0677 0.585937,-1.4844 0.403631,-0.4166 0.917954,-0.651 1.542969,-0.7031 -0.117203,-0.3515 -0.455744,-0.651 -1.015625,-0.8984 -0.55991,-0.2604 -1.236993,-0.3906 -2.03125,-0.3907 -1.393241,10e-5 -2.513031,0.4167 -3.359375,1.25 -0.846363,0.8334 -1.269539,2.0053 -1.269531,3.5157 -8e-6,1.7838 0.677074,3.3008 2.03125,4.5507 0.924468,-0.1562 1.75129,-0.2343 2.480468,-0.2343 0.494779,0 0.885404,0.078 1.171875,0.2343 0.286445,0.1563 0.429674,0.3842 0.429688,0.6836 -1.4e-5,0.2344 -0.104181,0.4232 -0.3125,0.5664 -0.195326,0.1303 -0.462253,0.1954 -0.800781,0.1954 -0.390638,0 -0.807304,-0.072 -1.25,-0.2149 -0.44272,-0.1432 -0.813813,-0.2799 -1.113282,-0.4101 -0.299489,-0.1433 -0.488291,-0.2279 -0.566406,-0.2539 -3.463548,1.0286 -5.195317,3.2161 -5.195312,6.5625 -5e-6,1.7838 0.468744,3.3268 1.40625,4.6289 0.937492,1.302 2.220043,2.2981 3.847656,2.9882 1.627592,0.6771 3.450507,1.0157 5.46875,1.0157 1.901024,0 3.652324,-0.293 5.253906,-0.8789 1.60154,-0.599 2.877581,-1.4519 3.828125,-2.5586 0.950495,-1.1198 1.425755,-2.4154 1.425781,-3.8868 -2.6e-5,-1.0416 -0.286484,-2.1093 -0.859375,-3.2031 -0.55992,-1.1067 -1.614607,-1.9726 -3.164062,-2.5976 -2.369811,0.7422 -3.906268,1.25 -4.609375,1.5234 -1.119808,0.4297 -1.985693,0.918 -2.597656,1.4648 -0.611994,0.5469 -0.917983,1.2175 -0.917969,2.0118 -1.4e-5,0.651 0.188788,1.2239 0.566406,1.7187 0.39061,0.4818 0.872381,0.8529 1.445313,1.1133 0.5729,0.2474 1.126285,0.3711 1.660156,0.3711 0.455711,0 0.950502,-0.078 1.484375,-0.2344 0.546855,-0.1562 0.852845,-0.3711 0.917969,-0.6445 -0.507832,-0.091 -0.95054,-0.2995 -1.328125,-0.625 -0.364602,-0.3255 -0.546894,-0.7943 -0.546875,-1.4063 -1.9e-5,-0.625 0.208315,-1.1263 0.625,-1.5039 0.416647,-0.3906 0.93748,-0.5859 1.5625,-0.5859 0.638,0 1.152322,0.2018 1.542968,0.6055 0.390603,0.3906 0.585915,0.9114 0.585938,1.5625 -2.3e-5,0.7161 -0.240908,1.3346 -0.722656,1.8554 -0.481792,0.5209 -1.093771,0.918 -1.835938,1.1914 -0.729186,0.2605 -1.464862,0.3907 -2.207031,0.3907 -0.807309,0 -1.595068,-0.1693 -2.363281,-0.5079 -0.755223,-0.3385 -1.380223,-0.8593 -1.875,-1.5625 -0.481784,-0.7031 -0.722669,-1.5755 -0.722657,-2.6171 -1.2e-5,-1.3542 0.455716,-2.5065 1.367188,-3.4571 0.924464,-0.9505 2.311181,-1.7447 4.160156,-2.3828 0.520815,-0.1692 1.523418,-0.4622 3.007813,-0.8789 1.497373,-0.4297 2.779924,-0.8138 3.847656,-1.1523 1.067682,-0.3386 2.037733,-0.7097 2.910156,-1.1133 1.262992,-0.599 2.148407,-1.2044 2.65625,-1.8164 0.520802,-0.625 0.781219,-1.3021 0.78125,-2.0313 -3.1e-5,-0.7421 -0.214875,-1.4192 -0.644531,-2.0312 -0.429718,-0.625 -1.002634,-1.1133 -1.71875,-1.4649 -0.703154,-0.3645 -1.464871,-0.5468 -2.285156,-0.5468 -0.67711,0 -1.074245,0.1172 -1.191407,0.3515 0.351537,0.1823 0.624974,0.4493 0.820313,0.8008 0.195286,0.3386 0.292942,0.6901 0.292969,1.0547 -2.7e-5,0.5469 -0.221381,1.0091 -0.664063,1.3867 -0.442734,0.3776 -0.970077,0.5664 -1.582031,0.5664 -0.572941,0 -1.067732,-0.1692 -1.484375,-0.5078 -0.416689,-0.3515 -0.625022,-0.8463 -0.625,-1.4844 -2.2e-5,-0.651 0.221331,-1.1848 0.664062,-1.6015 0.442685,-0.4167 0.99607,-0.7162 1.660157,-0.8985 0.677058,-0.1822 1.367161,-0.2734 2.070312,-0.2734"
         style="fill:#ffffff;fill-opacity:1"
         id="path3758"
         inkscape:export-xdpi="300.70001"
         inkscape:export-ydpi="300.70001" />
    </g>
  </g>
</svg>
