<?xml version="1.0" encoding="UTF-8" standalone="no"?>
<!-- Created with Inkscape (http://www.inkscape.org/) -->

<svg
   xmlns:dc="http://purl.org/dc/elements/1.1/"
   xmlns:cc="http://creativecommons.org/ns#"
   xmlns:rdf="http://www.w3.org/1999/02/22-rdf-syntax-ns#"
   xmlns:svg="http://www.w3.org/2000/svg"
   xmlns="http://www.w3.org/2000/svg"
   xmlns:sodipodi="http://sodipodi.sourceforge.net/DTD/sodipodi-0.dtd"
   xmlns:inkscape="http://www.inkscape.org/namespaces/inkscape"
   width="200"
   height="13"
   id="svg2"
   version="1.1"
   inkscape:version="0.48.2 r9819"
   sodipodi:docname="bracketRight.svg"
   inkscape:export-filename="/Applications/MAMP/htdocs/Porfolio-Repo/images/BracketTop.png"
   inkscape:export-xdpi="300.70001"
   inkscape:export-ydpi="300.70001">
  <defs
     id="defs4" />
  <sodipodi:namedview
     id="base"
     pagecolor="#000000"
     bordercolor="#666666"
     borderopacity="1.0"
     inkscape:pageopacity="0"
     inkscape:pageshadow="2"
     inkscape:zoom="6.94"
     inkscape:cx="83.284427"
     inkscape:cy="8"
     inkscape:document-units="px"
     inkscape:current-layer="layer1"
     showgrid="false"
     inkscape:window-width="1179"
     inkscape:window-height="1015"
     inkscape:window-x="0"
     inkscape:window-y="0"
     inkscape:window-maximized="0"
     showguides="true"
     inkscape:guide-bbox="true">
    <sodipodi:guide
       orientation="1,0"
       position="100.86455,37.319885"
       id="guide3823" />
  </sodipodi:namedview>
  <metadata
     id="metadata7">
    <rdf:RDF>
      <cc:Work
         rdf:about="">
        <dc:format>image/svg+xml</dc:format>
        <dc:type
           rdf:resource="http://purl.org/dc/dcmitype/StillImage" />
        <dc:title></dc:title>
      </cc:Work>
    </rdf:RDF>
  </metadata>
  <g
     inkscape:label="Layer 1"
     inkscape:groupmode="layer"
     id="layer1"
     transform="translate(0,-1039.3622)">
    <g
       transform="matrix(0.51690189,0,0,1.9346031,-945.18773,1145.7441)"
       style="font-size:111.13239288px;font-style:normal;font-variant:normal;font-weight:normal;font-stretch:normal;line-height:125%;letter-spacing:0px;word-spacing:0px;fill:#000000;fill-opacity:1;stroke:none;font-family:Acanthus SSi;-inkscape-font-specification:Acanthus SSi"
       id="text2985">
      <path
         d="m 2020.9419,-16.318283 0,-22.356712 c 0,-2.857878 -0.2713,-5.155046 -0.8139,-6.89151 -0.5427,-1.736419 -1.3386,-3.038751 -2.3876,-3.906998 -1.013,-0.904371 -6.3654,-1.790679 -8.3189,-2.65893 3.1473,-0.868191 9.0785,-2.315226 10.0553,-4.341109 0.9767,-2.025815 1.4651,-5.390171 1.4651,-10.093078 l 0,-20.78306 c 0,-4.087809 0.4341,-7.271286 1.3024,-9.55044 0.9043,-2.315182 2.4056,-3.96118 4.5039,-4.93801 2.1343,-1.01285 5.1188,-1.51931 8.9535,-1.51939 l 0,0.21706 c -2.8941,0.97682 -4.9019,2.5143 -6.0233,4.612424 -1.0853,2.098276 -1.6279,5.155137 -1.6279,9.170593 l 0,20.674532 c 0,4.95614 -0.5246,8.736519 -1.5737,11.341147 -1.0491,2.604698 -7.1612,4.304964 -10.5979,5.100804 l 0,0.217055 c 12.2252,1.393881 12.1716,5.878609 12.1716,15.465201 l 0,22.248184 c 0,3.979338 0.5426,7.0000232 1.6279,9.0620655 1.0853,2.0981831 3.093,3.6718336 6.0233,4.72095617 l 0,0.21705546 c -3.8347,-2.247e-5 -6.8192,-0.50648469 -8.9535,-1.51938823 -2.0983,-0.9767695 -3.5996,-2.6227717 -4.5039,-4.9380116 -0.8683,-2.279096 -1.3024,-5.4625723 -1.3024,-9.5504403"
         id="path2986"
         inkscape:connector-curvature="0"
         sodipodi:nodetypes="cscccssscccccsssccsscccccc"
         style="fill:#000000;fill-opacity:1" />
    </g>
  </g>
</svg>
