<?xml version="1.0" encoding="UTF-8" standalone="no"?>
<!-- Created with Inkscape (http://www.inkscape.org/) -->

<svg
   xmlns:dc="http://purl.org/dc/elements/1.1/"
   xmlns:cc="http://creativecommons.org/ns#"
   xmlns:rdf="http://www.w3.org/1999/02/22-rdf-syntax-ns#"
   xmlns:svg="http://www.w3.org/2000/svg"
   xmlns="http://www.w3.org/2000/svg"
   xmlns:sodipodi="http://sodipodi.sourceforge.net/DTD/sodipodi-0.dtd"
   xmlns:inkscape="http://www.inkscape.org/namespaces/inkscape"
   width="744.09448819"
   height="1052.3622047"
   id="svg2"
   version="1.1"
   inkscape:version="0.48.2 r9819"
   sodipodi:docname="New document 1">
  <defs
     id="defs4" />
  <sodipodi:namedview
     id="base"
     pagecolor="#ffffff"
     bordercolor="#666666"
     borderopacity="1.0"
     inkscape:pageopacity="0.0"
     inkscape:pageshadow="2"
     inkscape:zoom="3.2419952"
     inkscape:cx="347.52911"
     inkscape:cy="879.92295"
     inkscape:document-units="px"
     inkscape:current-layer="layer1"
     showgrid="false"
     inkscape:window-width="1366"
     inkscape:window-height="746"
     inkscape:window-x="-8"
     inkscape:window-y="-8"
     inkscape:window-maximized="0" />
  <metadata
     id="metadata7">
    <rdf:RDF>
      <cc:Work
         rdf:about="">
        <dc:format>image/svg+xml</dc:format>
        <dc:type
           rdf:resource="http://purl.org/dc/dcmitype/StillImage" />
        <dc:title></dc:title>
      </cc:Work>
    </rdf:RDF>
  </metadata>
  <g
     inkscape:label="Layer 1"
     inkscape:groupmode="layer"
     id="layer1">
    <g
       transform="matrix(0,1.462416,-2.5062368,0,1247.406,-58.749301)"
       style="font-size:40px;font-style:normal;font-variant:normal;font-weight:normal;font-stretch:normal;line-height:125%;letter-spacing:0px;word-spacing:0px;fill:#ffffff;fill-opacity:1;stroke:#ffffff;font-family:Sex Pistols;-inkscape-font-specification:Sex Pistols;stroke-opacity:1"
       id="flowRoot2985">
      <path
         d="m 117.66406,361.80055 c 9.79815,-0.28477 16.14987,-2.30706 19.05518,-6.06689 2.90523,-3.7597 4.35786,-7.54794 4.35791,-11.36475 l 0,-39.99023 c -5e-5,-4.21537 2.19315,-8.24573 6.57959,-12.09107 4.38634,-3.84508 9.6557,-5.76768 15.8081,-5.76782 l 9.22852,0 4.84702,2.16484 -4.84702,2.10762 -7.69043,0 c -3.475,1.3e-4 -6.52269,0.95432 -9.14307,2.86255 -2.6205,1.90849 -3.9592,4.51469 -4.01611,7.81861 l 0,42.7246 c -5e-5,4.72827 -1.72328,9.24283 -5.16968,13.54371 -3.4465,4.301 -7.50533,6.47995 -12.17651,6.53686 l 0,0.1709 c 4.67118,0.057 8.74426,2.22173 12.21924,6.49414 3.47488,4.27251 5.21234,8.77283 5.2124,13.50098 l -0.0855,42.72461 c 0.0569,3.30402 1.39561,5.91022 4.01611,7.8186 2.62038,1.90835 5.66807,2.86253 9.14307,2.86255 l 7.69043,0 4.6267,2.14761 -4.6267,2.12485 -9.22852,0 c -6.1524,-2e-5 -11.40752,-1.92263 -15.76538,-5.76782 -4.35795,-3.84523 -6.56539,-7.87558 -6.62231,-12.09107 l 0,-39.99023 c -5e-5,-3.75973 -1.45268,-7.51949 -4.35791,-11.2793 -2.90531,-3.75971 -9.25703,-5.78201 -19.05518,-6.06689 -2.87701,-1.55073 -2.83904,-3.71019 5e-5,-5.12696 z"
         style="font-size:175px;font-family:Secret Stick;-inkscape-font-specification:Secret Stick;stroke:#ffffff;stroke-opacity:1;fill:#ffffff;fill-opacity:1"
         id="path2994"
         inkscape:connector-curvature="0"
         sodipodi:nodetypes="csssccccccccssccccccscccsscsccc" />
    </g>
    <path
       style="fill:none;stroke:#ffffff;stroke-width:4;stroke-linecap:butt;stroke-linejoin:miter;stroke-opacity:1;stroke-miterlimit:4;stroke-dasharray:none"
       d="m 407.54022,123.67612 c 2.47707,-5.71496 8.92576,0.51947 9.49865,4.11705 1.5525,9.74921 -9.35807,15.7275 -17.73275,14.88025 -14.98033,-1.51551 -23.03883,-17.64136 -20.26185,-31.34844 4.07532,-20.115708 26.01484,-30.50548 44.96415,-25.643464 25.25644,6.480311 33.73841,36.622114 16.85356,53.744614 -22.22971,22.54257 -48.12119,16.57851 -77.48357,7.38985 -8.48833,-2.65634 -16.36422,-7.15442 -23.01667,-13.05242"
       id="path2996"
       inkscape:connector-curvature="0"
       sodipodi:nodetypes="cssssssc" />
    <path
       sodipodi:nodetypes="cssssssc"
       inkscape:connector-curvature="0"
       id="path2999"
       d="m 264.45978,123.67612 c -2.47707,-5.71496 -8.92576,0.51947 -9.49865,4.11705 -1.5525,9.74921 9.35807,15.7275 17.73275,14.88025 14.98033,-1.51551 23.03883,-17.64136 20.26185,-31.34844 -4.07532,-20.115708 -26.01484,-30.50548 -44.96415,-25.643464 -25.25644,6.480311 -33.73841,36.622114 -16.85356,53.744614 22.22971,22.54257 48.12119,16.57851 77.48357,7.38985 8.48833,-2.65634 16.36422,-7.15442 23.01667,-13.05242"
       style="fill:none;stroke:#ffffff;stroke-width:4;stroke-linecap:butt;stroke-linejoin:miter;stroke-opacity:1;stroke-miterlimit:4;stroke-dasharray:none" />
  </g>
</svg>
