<svg xmlns:dc="http://purl.org/dc/elements/1.1/" xmlns:cc="http://creativecommons.org/ns#" xmlns:rdf="http://www.w3.org/1999/02/22-rdf-syntax-ns#" xmlns:svg="http://www.w3.org/2000/svg" xmlns="http://www.w3.org/2000/svg" xmlns:sodipodi="http://sodipodi.sourceforge.net/DTD/sodipodi-0.dtd" xmlns:inkscape="http://www.inkscape.org/namespaces/inkscape" width="64px" height="64px" version="1.1" inkscape:version="0.48.2 r9819"><style>.style0{fill:	none;stroke:	#000000;stroke-width:	0.4;}.style1{fill:	none;stroke:	#000000;stroke-width:	0.40000001;}.style10{fill:	#000000;stroke:	#000000;stroke-width:	0.1;}.style11{fill:	none;stroke:	#27718a;stroke-width:	0.78599995;stroke-linecap:	round;}.style12{fill:	none;stroke:	#27718a;stroke-width:	0.88599998;stroke-linecap:	round;}.style13{fill:	none;stroke:	#27718a;stroke-width:	0.26232144;}.style14{fill:	none;stroke:	#27718a;stroke-width:	0.49411356;}.style15{fill:	none;stroke:	#27718a;stroke-width:	0.32140201;}.style2{fill:	#000000;}.style3{fill:	none;stroke:	#000000;stroke-width:	0.2;}.style4{fill:	#ffffff;stroke:	#000000;stroke-width:	0.1;filter:	url(#filter3784);}.style5{fill:	none;stroke:	#000000;stroke-width:	0.11582626;}.style6{fill:	none;stroke:	#000000;stroke-width:	0.14279173;}.style7{fill:	none;stroke:	#000000;stroke-width:	0.10379193;}.style8{fill:	none;stroke:	#000000;stroke-width:	0.09001149;}.style9{fill:	none;stroke:	#000000;stroke-width:	0.30000001;}</style><defs><filter inkscape:label="Drop shadow" width="1.5" height="1.5" x="-0.2" y="-0.2"><feGaussianBlur in="SourceAlpha" stdDeviation="3.4" result="blur"/><feColorMatrix result="bluralpha" type="matrix" values="1 0 0 0 0 0 1 0 0 0 0 0 1 0 0 0 0 0 0.6 0 "/><feOffset in="bluralpha" dx="2" dy="10" result="offsetBlur"/><feMerge result="fbSourceGraphic"><feMergeNode in="offsetBlur"/><feMergeNode in="SourceGraphic"/></feMerge><feColorMatrix result="fbSourceGraphicAlpha" in="fbSourceGraphic" values="0 0 0 -1 0 0 0 0 -1 0 0 0 0 -1 0 0 0 0 1 0"/><feGaussianBlur in="fbSourceGraphicAlpha" stdDeviation="3.4" result="blur"/><feColorMatrix result="bluralpha" type="matrix" values="1 0 0 0 0 0 1 0 0 0 0 0 1 0 0 0 0 0 0.6 0 "/><feOffset in="bluralpha" dx="-6.38378e-16" dy="12.1" result="offsetBlur"/><feMerge result="fbSourceGraphic"><feMergeNode in="offsetBlur"/><feMergeNode in="fbSourceGraphic"/></feMerge><feColorMatrix result="fbSourceGraphicAlpha" in="fbSourceGraphic" values="0 0 0 -1 0 0 0 0 -1 0 0 0 0 -1 0 0 0 0 1 0"/><feGaussianBlur in="fbSourceGraphicAlpha" stdDeviation="3.4" result="blur"/><feColorMatrix result="bluralpha" type="matrix" values="1 0 0 0 0 0 1 0 0 0 0 0 1 0 0 0 0 0 0.6 0 "/><feOffset in="bluralpha" dx="-6.38378e-16" dy="12.1" result="offsetBlur"/><feMerge result="fbSourceGraphic"><feMergeNode in="offsetBlur"/><feMergeNode in="fbSourceGraphic"/></feMerge><feColorMatrix result="fbSourceGraphicAlpha" in="fbSourceGraphic" values="0 0 0 -1 0 0 0 0 -1 0 0 0 0 -1 0 0 0 0 1 0"/><feGaussianBlur in="fbSourceGraphicAlpha" stdDeviation="3.4" result="blur"/><feColorMatrix result="bluralpha" type="matrix" values="1 0 0 0 0 0 1 0 0 0 0 0 1 0 0 0 0 0 0.6 0 "/><feOffset in="bluralpha" dx="-6.38378e-16" dy="12.1" result="offsetBlur"/><feMerge result="fbSourceGraphic"><feMergeNode in="offsetBlur"/><feMergeNode in="fbSourceGraphic"/></feMerge><feColorMatrix result="fbSourceGraphicAlpha" in="fbSourceGraphic" values="0 0 0 -1 0 0 0 0 -1 0 0 0 0 -1 0 0 0 0 1 0"/><feGaussianBlur in="fbSourceGraphicAlpha" stdDeviation="3.4" result="blur"/><feColorMatrix result="bluralpha" type="matrix" values="1 0 0 0 0 0 1 0 0 0 0 0 1 0 0 0 0 0 0.6 0 "/><feOffset in="bluralpha" dx="-6.38378e-16" dy="12.1" result="offsetBlur"/><feMerge result="fbSourceGraphic"><feMergeNode in="offsetBlur"/><feMergeNode in="fbSourceGraphic"/></feMerge><feColorMatrix result="fbSourceGraphicAlpha" in="fbSourceGraphic" values="0 0 0 -1 0 0 0 0 -1 0 0 0 0 -1 0 0 0 0 1 0"/><feGaussianBlur in="fbSourceGraphicAlpha" stdDeviation="3.4" result="blur"/><feColorMatrix result="bluralpha" type="matrix" values="1 0 0 0 0 0 1 0 0 0 0 0 1 0 0 0 0 0 0.6 0 "/><feOffset in="bluralpha" dx="-6.38378e-16" dy="12.1" result="offsetBlur"/><feMerge><feMergeNode in="offsetBlur"/><feMergeNode in="fbSourceGraphic"/></feMerge></filter></defs><metadata><rdf:RDF><cc:Work rdf:about=""><dc:format>image/svg+xml</dc:format><dc:type rdf:resource="http://purl.org/dc/dcmitype/StillImage"/><dc:title/></cc:Work></rdf:RDF></metadata><g inkscape:label="Layer 1" inkscape:groupmode="layer"><path d="m 50 25.1 -37.6 0 c 0.1 -2.4 -2.8 -3 -4.9 -4 C 7.4 23.1 8.2 24.5 10.9 26 9.2 26.2 7.2 25.9 5.1 25.6 5.3 29.6 9.1 27.6 11.6 27.5 27.4 30.7 45.2 45.6 50 25.1 z" inkscape:connector-curvature="0" class="style0"/><path d="m 49.8 25.2 c -2.9 2.9 -6 5.4 -9.7 6.2 -1.4 0.3 -3 -1.3 -1.2 -3.1" inkscape:connector-curvature="0" class="style1"/><path d="m44.1 28.2a1.3 1.3 0 1 1 -2.7 0 1.3 1.3 0 1 1 2.7 0z" class="style2"/><path d="m44.4 28.4a1.6 1.7 0 1 1 -3.2 0 1.6 1.7 0 1 1 3.2 0z" class="style3"/><path d="m 33.8 29.2 c -2 -2.3 -4.2 -1.7 -6.4 -0.4 2 2.7 3.2 2.3 6.2 1.8" inkscape:connector-curvature="0" class="style1"/><path d="m 50.2 24.9 c -0.1 1.7 -0.2 2.4 -0.7 3.4 l -7 2.5 c 3 -1.5 4.9 -2.9 7.6 -5.9 z" inkscape:connector-curvature="0" class="style4"/><path d="M 48 29 48.1 27.1" inkscape:connector-curvature="0" class="style5"/><path inkscape:connector-curvature="0" d="M 49.4 28.4 49.6 25.6" class="style6"/><path inkscape:connector-curvature="0" d="m 46.6 29.4 0.1 -1.5" class="style7"/><path d="m 45.5 29.8 0.1 -1.1" inkscape:connector-curvature="0" class="style8"/><path d="m 37.5 28 c -1.7 2.7 -0.2 3 0.6 3.8" inkscape:connector-curvature="0" class="style9"/><path inkscape:connector-curvature="0" d="m 36.7 28 c -1.7 2.7 -0.2 3 0.6 3.8" class="style9"/><path d="m 37.8 25.2 c -0 1.1 -1.9 1 -1.8 0.1 z" inkscape:connector-curvature="0" class="style10"/><path d="m 32.7 7.1 c 1.4 1.4 -1.1 3.6 -2.7 2.7 -1.5 -0.9 -1.7 -2.8 -0.9 -4 1.4 -2.3 4.6 -2.3 5.6 -0.4 2.2 3.7 1.9 14.5 2 19.9" inkscape:connector-curvature="0" class="style11"/><path inkscape:connector-curvature="0" d="m 40.9 4.9 c -1.4 1.4 1.1 3.6 2.7 2.7 C 45.1 6.7 45.3 4.8 44.5 3.6 43.1 1.3 40 1 38.9 3 36.8 6.7 37.1 19.8 36.9 25.3" class="style12"/><path inkscape:connector-curvature="0" d="m 35.6 19.3 c 0.5 0.5 -0.4 1.2 -0.9 0.9 -0.5 -0.3 -0.6 -0.9 -0.3 -1.3 0.5 -0.8 1.5 -0.9 1.9 -0.2 0.7 1.2 0.6 4.8 0.7 6.7" class="style13"/><path inkscape:connector-curvature="0" d="m 34.3 13.9 c 0.9 0.9 -0.7 2.3 -1.7 1.7 -1 -0.6 -1.1 -1.7 -0.6 -2.5 0.9 -1.4 2.9 -1.6 3.5 -0.4 1.4 2.4 1.1 9 1.3 12.4" class="style14"/><path d="m 38.1 18.7 c -0.5 0.5 0.4 1.3 1 1 0.5 -0.3 0.6 -1 0.3 -1.5 -0.5 -0.8 -1.7 -0.9 -2 -0.2 -0.8 1.4 -0.7 5.4 -0.8 7.4" inkscape:connector-curvature="0" class="style15"/><path d="m 39.5 12.3 c -0.9 0.9 0.7 2.3 1.7 1.7 1 -0.6 1.1 -1.7 0.6 -2.5 -0.9 -1.4 -2.9 -1.6 -3.5 -0.4 -1.4 2.4 -1.2 9.1 -1.3 12.5" inkscape:connector-curvature="0" class="style14"/></g></svg>