<?xml version="1.0" encoding="UTF-8" standalone="no"?>
<svg
   xmlns:dc="http://purl.org/dc/elements/1.1/"
   xmlns:cc="http://creativecommons.org/ns#"
   xmlns:rdf="http://www.w3.org/1999/02/22-rdf-syntax-ns#"
   xmlns:svg="http://www.w3.org/2000/svg"
   xmlns="http://www.w3.org/2000/svg"
   xmlns:sodipodi="http://sodipodi.sourceforge.net/DTD/sodipodi-0.dtd"
   xmlns:inkscape="http://www.inkscape.org/namespaces/inkscape"
   width="200"
   height="200"
   version="1.1"
   inkscape:version="0.48.2 r9819"
   id="svg2985"
   sodipodi:docname="myWhale.svg"
   inkscape:export-filename="C:\xampp\htdocs\Portfolio\images\myWhale.png"
   inkscape:export-xdpi="170.10001"
   inkscape:export-ydpi="170.10001">
  <sodipodi:namedview
     pagecolor="#ffffff"
     bordercolor="#666666"
     borderopacity="1"
     objecttolerance="10"
     gridtolerance="10"
     guidetolerance="10"
     inkscape:pageopacity="0"
     inkscape:pageshadow="2"
     inkscape:window-width="1366"
     inkscape:window-height="746"
     id="namedview3117"
     showgrid="false"
     inkscape:zoom="3.6332549"
     inkscape:cx="84.486745"
     inkscape:cy="20.850095"
     inkscape:window-x="-32000"
     inkscape:window-y="-32000"
     inkscape:window-maximized="1"
     inkscape:current-layer="layer10" />
  <style
     id="style2987">.style0{fill:	none;stroke:	#000000;stroke-width:	0.4;}.style1{fill:	none;stroke:	#000000;stroke-width:	0.40000001;}.style10{fill:	#000000;stroke:	#000000;stroke-width:	0.1;}.style11{fill:	none;stroke:	#27718a;stroke-width:	0.78599995;stroke-linecap:	round;}.style12{fill:	none;stroke:	#27718a;stroke-width:	0.88599998;stroke-linecap:	round;}.style13{fill:	none;stroke:	#27718a;stroke-width:	0.26232144;}.style14{fill:	none;stroke:	#27718a;stroke-width:	0.49411356;}.style15{fill:	none;stroke:	#27718a;stroke-width:	0.32140201;}.style2{fill:	#000000;}.style3{fill:	none;stroke:	#000000;stroke-width:	0.2;}.style4{fill:	#ffffff;stroke:	#000000;stroke-width:	0.1;filter:	url(#filter3784);}.style5{fill:	none;stroke:	#000000;stroke-width:	0.11582626;}.style6{fill:	none;stroke:	#000000;stroke-width:	0.14279173;}.style7{fill:	none;stroke:	#000000;stroke-width:	0.10379193;}.style8{fill:	none;stroke:	#000000;stroke-width:	0.09001149;}.style9{fill:	none;stroke:	#000000;stroke-width:	0.30000001;}</style>
  <defs
     id="defs2989">
    <filter
       inkscape:label="Drop shadow"
       width="1.5"
       height="1.5"
       x="-0.2"
       y="-0.2"
       id="filter2991"
       color-interpolation-filters="sRGB">
      <feGaussianBlur
         in="SourceAlpha"
         stdDeviation="3.4"
         result="blur"
         id="feGaussianBlur2993" />
      <feColorMatrix
         result="bluralpha"
         type="matrix"
         values="1 0 0 0 0 0 1 0 0 0 0 0 1 0 0 0 0 0 0.6 0 "
         id="feColorMatrix2995" />
      <feOffset
         in="bluralpha"
         dx="2"
         dy="10"
         result="offsetBlur"
         id="feOffset2997" />
      <feMerge
         result="fbSourceGraphic"
         id="feMerge2999">
        <feMergeNode
           in="offsetBlur"
           id="feMergeNode3001" />
        <feMergeNode
           in="SourceGraphic"
           id="feMergeNode3003" />
      </feMerge>
      <feColorMatrix
         result="fbSourceGraphicAlpha"
         in="fbSourceGraphic"
         values="0 0 0 -1 0 0 0 0 -1 0 0 0 0 -1 0 0 0 0 1 0"
         id="feColorMatrix3005" />
      <feGaussianBlur
         in="fbSourceGraphicAlpha"
         stdDeviation="3.4"
         result="blur"
         id="feGaussianBlur3007" />
      <feColorMatrix
         result="bluralpha"
         type="matrix"
         values="1 0 0 0 0 0 1 0 0 0 0 0 1 0 0 0 0 0 0.6 0 "
         id="feColorMatrix3009" />
      <feOffset
         in="bluralpha"
         dx="-6.38378e-16"
         dy="12.1"
         result="offsetBlur"
         id="feOffset3011" />
      <feMerge
         result="fbSourceGraphic"
         id="feMerge3013">
        <feMergeNode
           in="offsetBlur"
           id="feMergeNode3015" />
        <feMergeNode
           in="fbSourceGraphic"
           id="feMergeNode3017" />
      </feMerge>
      <feColorMatrix
         result="fbSourceGraphicAlpha"
         in="fbSourceGraphic"
         values="0 0 0 -1 0 0 0 0 -1 0 0 0 0 -1 0 0 0 0 1 0"
         id="feColorMatrix3019" />
      <feGaussianBlur
         in="fbSourceGraphicAlpha"
         stdDeviation="3.4"
         result="blur"
         id="feGaussianBlur3021" />
      <feColorMatrix
         result="bluralpha"
         type="matrix"
         values="1 0 0 0 0 0 1 0 0 0 0 0 1 0 0 0 0 0 0.6 0 "
         id="feColorMatrix3023" />
      <feOffset
         in="bluralpha"
         dx="-6.38378e-16"
         dy="12.1"
         result="offsetBlur"
         id="feOffset3025" />
      <feMerge
         result="fbSourceGraphic"
         id="feMerge3027">
        <feMergeNode
           in="offsetBlur"
           id="feMergeNode3029" />
        <feMergeNode
           in="fbSourceGraphic"
           id="feMergeNode3031" />
      </feMerge>
      <feColorMatrix
         result="fbSourceGraphicAlpha"
         in="fbSourceGraphic"
         values="0 0 0 -1 0 0 0 0 -1 0 0 0 0 -1 0 0 0 0 1 0"
         id="feColorMatrix3033" />
      <feGaussianBlur
         in="fbSourceGraphicAlpha"
         stdDeviation="3.4"
         result="blur"
         id="feGaussianBlur3035" />
      <feColorMatrix
         result="bluralpha"
         type="matrix"
         values="1 0 0 0 0 0 1 0 0 0 0 0 1 0 0 0 0 0 0.6 0 "
         id="feColorMatrix3037" />
      <feOffset
         in="bluralpha"
         dx="-6.38378e-16"
         dy="12.1"
         result="offsetBlur"
         id="feOffset3039" />
      <feMerge
         result="fbSourceGraphic"
         id="feMerge3041">
        <feMergeNode
           in="offsetBlur"
           id="feMergeNode3043" />
        <feMergeNode
           in="fbSourceGraphic"
           id="feMergeNode3045" />
      </feMerge>
      <feColorMatrix
         result="fbSourceGraphicAlpha"
         in="fbSourceGraphic"
         values="0 0 0 -1 0 0 0 0 -1 0 0 0 0 -1 0 0 0 0 1 0"
         id="feColorMatrix3047" />
      <feGaussianBlur
         in="fbSourceGraphicAlpha"
         stdDeviation="3.4"
         result="blur"
         id="feGaussianBlur3049" />
      <feColorMatrix
         result="bluralpha"
         type="matrix"
         values="1 0 0 0 0 0 1 0 0 0 0 0 1 0 0 0 0 0 0.6 0 "
         id="feColorMatrix3051" />
      <feOffset
         in="bluralpha"
         dx="-6.38378e-16"
         dy="12.1"
         result="offsetBlur"
         id="feOffset3053" />
      <feMerge
         result="fbSourceGraphic"
         id="feMerge3055">
        <feMergeNode
           in="offsetBlur"
           id="feMergeNode3057" />
        <feMergeNode
           in="fbSourceGraphic"
           id="feMergeNode3059" />
      </feMerge>
      <feColorMatrix
         result="fbSourceGraphicAlpha"
         in="fbSourceGraphic"
         values="0 0 0 -1 0 0 0 0 -1 0 0 0 0 -1 0 0 0 0 1 0"
         id="feColorMatrix3061" />
      <feGaussianBlur
         in="fbSourceGraphicAlpha"
         stdDeviation="3.4"
         result="blur"
         id="feGaussianBlur3063" />
      <feColorMatrix
         result="bluralpha"
         type="matrix"
         values="1 0 0 0 0 0 1 0 0 0 0 0 1 0 0 0 0 0 0.6 0 "
         id="feColorMatrix3065" />
      <feOffset
         in="bluralpha"
         dx="-6.38378e-16"
         dy="12.1"
         result="offsetBlur"
         id="feOffset3067" />
      <feMerge
         id="feMerge3069">
        <feMergeNode
           in="offsetBlur"
           id="feMergeNode3071" />
        <feMergeNode
           in="fbSourceGraphic"
           id="feMergeNode3073" />
      </feMerge>
    </filter>
  </defs>
  <metadata
     id="metadata3075">
    <rdf:RDF>
      <cc:Work
         rdf:about="">
        <dc:format>image/svg+xml</dc:format>
        <dc:type
           rdf:resource="http://purl.org/dc/dcmitype/StillImage" />
        <dc:title></dc:title>
      </cc:Work>
    </rdf:RDF>
  </metadata>
  <g
     style="display:none"
     inkscape:label="innerfinMovement2"
     id="g3187"
     inkscape:groupmode="layer">
    <path
       inkscape:transform-center-y="6.1864964"
       inkscape:transform-center-x="-9.0378366"
       style="fill:#ffffff;stroke:#000000;stroke-width:1.87550068;display:inline"
       id="path3150"
       class="style1"
       inkscape:connector-curvature="0"
       d="m 123.91055,173.0701 c 13.75376,-4.48503 20.61972,10.91412 13.6796,24.21848 -12.40296,-6.805 -13.71629,-6.23048 -18.54542,-20.98699"
       sodipodi:nodetypes="ccc"
       inkscape:export-filename="C:\xampp\htdocs\Portfolio\images\innerfin.png"
       inkscape:export-xdpi="170.10001"
       inkscape:export-ydpi="170.10001" />
  </g>
  <g
     inkscape:groupmode="layer"
     id="g3195"
     inkscape:label="innerfinMovementBegin"
     style="display:none">
    <path
       inkscape:export-ydpi="170.10001"
       inkscape:export-xdpi="170.10001"
       inkscape:export-filename="C:\xampp\htdocs\Portfolio\images\innerfin.png"
       sodipodi:nodetypes="ccc"
       d="m 123.91055,173.0701 c 13.75376,-4.48503 23.09684,4.85894 28.26707,19.53948 -13.5039,3.37871 -31.05611,-3.20289 -29.83007,-17.68417"
       inkscape:connector-curvature="0"
       class="style1"
       id="path3197"
       style="fill:#ffffff;stroke:#000000;stroke-width:1.87550068;display:inline"
       inkscape:transform-center-x="-9.0378366"
       inkscape:transform-center-y="6.1864964" />
  </g>
  <g
     inkscape:groupmode="layer"
     id="layer9"
     inkscape:label="innerfin"
     style="display:none">
    <path
       inkscape:export-ydpi="170.10001"
       inkscape:export-xdpi="170.10001"
       inkscape:export-filename="C:\xampp\htdocs\Portfolio\images\innerfin.png"
       sodipodi:nodetypes="ccc"
       d="m 135.3576,37.070098 c -13.75376,-4.48503 -30.80343,7.611296 -35.14796,18.43854 14.88008,6.13106 28.85424,-2.652419 38.36237,-12.179458"
       inkscape:connector-curvature="0"
       class="style1"
       id="path3189"
       style="fill:#ffffff;stroke:#000000;stroke-width:1.87550068;display:inline"
       inkscape:transform-center-x="9.0378344"
       inkscape:transform-center-y="6.1864939"
       transform="translate(0,136)" />
  </g>
  <g
     style="display:inline"
     inkscape:label="innerfinMovementEnd"
     id="g3171"
     inkscape:groupmode="layer">
    <path
       inkscape:export-ydpi="170.10001"
       inkscape:export-xdpi="170.10001"
       inkscape:export-filename="C:\xampp\htdocs\Portfolio\images\innerfin.png"
       sodipodi:nodetypes="ccc"
       d="m 135.3576,37.070098 c -13.75376,-4.48503 -34.93195,0.179943 -39.276484,11.007187 14.880084,6.13106 32.982764,4.778934 42.490894,-4.748105"
       inkscape:connector-curvature="0"
       class="style1"
       id="path3173"
       style="fill:#ffffff;stroke:#000000;stroke-width:1.87550068;display:inline"
       inkscape:transform-center-x="9.0378344"
       inkscape:transform-center-y="6.1864939"
       transform="translate(0,136)" />
  </g>
  <g
     inkscape:groupmode="layer"
     id="layer10"
     inkscape:label="body2"
     style="display:none">
    <path
       transform="translate(0,136)"
       inkscape:export-ydpi="170.10001"
       inkscape:export-xdpi="170.10001"
       inkscape:export-filename="C:\xampp\htdocs\Portfolio\images\body.png"
       style="fill:#ffffff;stroke:#000000;stroke-width:1.87550068;display:inline"
       id="path3257"
       class="style0"
       inkscape:connector-curvature="0"
       d="M 199.17478,-3.5344527 C 141.69383,-5.8429391 88.820947,1.0647212 34.772708,5.621665 28.607962,-7.1710632 18.023753,-5.2085798 10.416275,-6.3415417 14.379139,0.05291147 19.282512,8.1346162 28.159212,9.5588244 16.260156,8.6294288 9.0935755,9.6106715 5.0641556,14.720439 15.854425,27.784588 28.480078,21.940601 33.447392,14.836326 100.90764,14.002999 178.0116,98.683832 199.17478,-3.5344527 z"
       sodipodi:nodetypes="ccccccc" />
  </g>
  <g
     inkscape:label="Layer 1"
     inkscape:groupmode="layer"
     id="g3077"
     transform="translate(0,136)"
     style="display:inline">
    <path
       d="m 199.17478,-3.5344527 -165.778248,0 C 33.837433,-15.501475 21.051341,-18.493227 11.792451,-23.479483 11.351551,-13.506971 14.878747,-6.5262075 26.783036,0.95317724 19.287744,1.9504288 10.469752,0.45455376 1.2108614,-1.041326 2.0926603,18.903706 18.846843,8.9311896 29.869333,8.4325617 99.531466,24.388587 178.0116,98.683832 199.17478,-3.5344527 z"
       inkscape:connector-curvature="0"
       class="style0"
       id="path3079"
       style="fill:#ffffff;stroke:#000000;stroke-width:1.87550068"
       inkscape:export-filename="C:\xampp\htdocs\Portfolio\images\body.png"
       inkscape:export-xdpi="170.10001"
       inkscape:export-ydpi="170.10001" />
    <path
       style="fill:#ffffff"
       d="m 110.82676,183.82054 c -4.48856,-0.76391 -9.65011,-2.2103 -14.509425,-4.06589 l -2.133304,-0.81463 0.394673,-0.76322 c 0.547234,-1.05823 3.07461,-3.30983 4.712279,-4.1981 5.848947,-3.17244 16.528957,-3.41542 26.654507,-0.60643 1.56478,0.4341 2.76317,0.6371 2.90524,0.49214 0.133,-0.1357 0.28119,-0.60521 0.32931,-1.04334 0.0866,-0.78843 0.0593,-0.8045 -2.66487,-1.5669 -7.45705,-2.087 -17.27952,-2.58015 -22.84452,-1.14695 l -1.92665,0.49619 -2.752355,-1.13898 c -1.513794,-0.62644 -8.247902,-3.51524 -14.964683,-6.41955 -20.953482,-9.06021 -32.451202,-13.51056 -43.717673,-16.92153 -5.927071,-1.79444 -9.486328,-2.64394 -11.077644,-2.64394 -0.77104,0 -4.588127,0.63023 -8.482416,1.40051 -6.273443,1.24087 -7.37857,1.38697 -9.695261,1.28176 -4.6472765,-0.21106 -6.8927882,-2.07699 -8.0983536,-6.72942 -0.2386674,-0.92105 -0.4339407,-2.01319 -0.4339407,-2.42698 0,-0.73151 0.032392,-0.74706 1.16975,-0.56179 3.0208849,0.49208 8.6155583,1.25676 11.3534563,1.55178 3.378747,0.36407 13.284158,0.19706 14.059884,-0.23706 0.393753,-0.22036 -0.01079,-0.59072 -2.38917,-2.18732 -9.184151,-6.16529 -13.100416,-11.58058 -13.63926,-18.85994 l -0.178407,-2.41014 4.651535,2.22682 c 6.027304,2.88543 8.871715,4.62261 11.023468,6.73241 2.422614,2.37539 3.422015,4.54964 3.610466,7.85474 l 0.140043,2.45616 52.394149,0 c 51.789872,0 52.394142,0.006 52.394142,0.53752 0,1.78831 1.86923,3.12088 4.34652,3.09862 1.98351,-0.0178 3.47594,-0.97608 3.94179,-2.53095 l 0.33112,-1.10519 25.15015,0 25.15015,0 -0.30721,0.57402 c -0.57084,1.06662 -11.66112,11.96209 -14.8501,14.58925 -5.9039,4.86375 -10.2614,7.76253 -15.52471,10.32763 -4.55251,2.21869 -9.39079,3.82485 -11.48465,3.81256 -2.03807,-0.012 -3.87462,-1.10533 -5.04828,-3.00542 -0.74979,-1.21388 -0.83218,-1.57049 -0.82496,-3.57079 0.007,-1.89671 0.12299,-2.44396 0.79286,-3.73601 0.43166,-0.83259 1.14921,-1.97647 1.59455,-2.54195 l 0.80972,-1.02815 -0.77687,-0.68337 c -0.42728,-0.37586 -0.83978,-0.68729 -0.91667,-0.69207 -0.18364,-0.0114 -2.31571,3.19885 -2.82754,4.25745 -2.98704,6.17794 0.96167,13.22788 7.3711,13.16022 2.32321,-0.0245 7.25098,-1.56717 11.37943,-3.56235 3.32019,-1.60457 27.40146,-11.10068 27.50423,-10.84591 0.12387,0.30708 -2.32135,6.16332 -3.82234,9.15438 -7.21511,14.37779 -17.4656,22.37656 -30.99083,24.18308 -3.10824,0.41515 -12.81604,0.167 -16.18084,-0.41362 -1.36241,-0.2351 -4.25698,-0.82561 -6.43237,-1.31224 l -3.95524,-0.88478 0.73223,-0.62985 0.73224,-0.62984 -0.61323,-0.82944 c -0.70685,-0.95606 -0.85425,-0.99637 -1.3702,-0.37468 -1.32223,1.59319 -5.24524,3.76437 -8.36982,4.63226 -2.25236,0.62562 -8.9165,0.79424 -11.8252,0.29922 l 0,0 z m 32.89062,-18.45003 c 0,-0.17471 -0.99414,-1.21968 -2.20921,-2.32217 -2.86993,-2.60403 -3.43074,-3.65226 -3.40139,-6.35763 0.024,-2.20637 0.74787,-4.59516 2.37178,-7.82624 0.77841,-1.54879 0.7953,-1.6522 0.32587,-1.99546 -0.27229,-0.1991 -0.63923,-0.36201 -0.81541,-0.36201 -0.45559,0 -2.46698,4.45574 -3.17286,7.02872 -1.25487,4.57402 -0.37895,7.23267 3.58555,10.88317 2.18451,2.01149 2.37087,2.12429 2.82717,1.71135 0.26868,-0.24315 0.4885,-0.58503 0.4885,-0.75973 z m 3.16468,0.67877 c 0.48732,-0.53848 0.44376,-0.60559 -2.09931,-3.23401 -2.78637,-2.8799 -3.26725,-3.79913 -3.26725,-6.24559 0,-1.5421 0.99836,-4.64718 2.3698,-7.37049 0.93594,-1.85854 0.96375,-1.98901 0.49678,-2.33048 -0.27207,-0.19894 -0.6381,-0.36171 -0.8134,-0.36171 -0.43231,0 -2.73106,4.96197 -3.26989,7.05823 -0.56257,2.18861 -0.55266,4.60789 0.0258,6.30571 0.35148,1.03151 1.07838,1.98834 3.06916,4.03994 1.43474,1.47856 2.69457,2.6883 2.79962,2.6883 0.10505,0 0.41494,-0.24745 0.68865,-0.5499 l 0,0 z m 21.96628,-10.47564 c 3.12769,-0.78967 5.56699,-4.16831 5.54817,-7.68468 -0.0121,-2.25502 -0.44136,-3.50967 -1.78052,-5.20383 -3.57047,-4.51699 -10.00218,-3.26042 -12.10705,2.36537 -1.12219,2.9993 -0.41594,6.20984 1.88586,8.57301 1.90068,1.95135 3.97091,2.57693 6.45354,1.95013 l 0,0 z"
       id="path3241"
       inkscape:connector-curvature="0"
       transform="translate(0,-136)" />
  </g>
  <g
     inkscape:groupmode="layer"
     id="layer7"
     inkscape:label="face"
     style="display:inline">
    <path
       transform="translate(0,136)"
       d="M 198.29298,-3.0358292 C 185.50689,11.424319 171.839,23.889964 155.52572,27.878971 c -6.17259,1.495877 -13.22698,-6.482136 -5.2908,-15.457402"
       inkscape:connector-curvature="0"
       class="style1"
       id="path3081"
       style="fill:none;stroke:#000000;stroke-width:1.87550068;display:inline"
       inkscape:export-filename="C:\xampp\htdocs\Portfolio\images\face.png"
       inkscape:export-xdpi="170.10001"
       inkscape:export-ydpi="170.10001" />
    <path
       transform="translate(0,136)"
       d="m 172.67853,11.922947 a 5.4689651,6.1850073 0 0 1 -10.93793,0 5.4689651,6.1850073 0 1 1 10.93793,0 z"
       class="style2"
       id="path3083"
       inkscape:connector-curvature="0"
       style="fill:#000000;display:inline"
       inkscape:export-filename="C:\xampp\htdocs\Portfolio\images\face.png"
       inkscape:export-xdpi="170.10001"
       inkscape:export-ydpi="170.10001" />
    <path
       transform="translate(0,136)"
       d="m 173.94301,11.855032 a 6.7215515,7.4401228 0 0 1 -13.4431,0 6.7215515,7.4401228 0 1 1 13.4431,0 z"
       class="style3"
       id="path3085"
       inkscape:connector-curvature="0"
       style="fill:none;stroke:#000000;stroke-width:0.85757118;display:inline"
       inkscape:export-filename="C:\xampp\htdocs\Portfolio\images\face.png"
       inkscape:export-xdpi="170.10001"
       inkscape:export-ydpi="170.10001" />
    <path
       transform="translate(0,136)"
       d="m 199.91457,-4.1766671 c -0.44091,8.4766411 -0.73979,11.6119794 -2.94429,16.5982361 l -31.00499,12.110607 c 13.227,-7.479387 21.32006,-13.679057 33.22434,-28.6378333 z"
       inkscape:connector-curvature="0"
       class="style4"
       id="path3089"
       style="fill:#ffffff;stroke:#000000;stroke-width:0.46887517;display:inline;filter:url(#filter3784)"
       sodipodi:nodetypes="ccccc"
       inkscape:export-filename="C:\xampp\htdocs\Portfolio\images\face.png"
       inkscape:export-xdpi="170.10001"
       inkscape:export-ydpi="170.10001" />
    <path
       transform="translate(0,136)"
       d="m 190.28578,14.917835 0.51191,-9.4028778"
       inkscape:connector-curvature="0"
       class="style5"
       id="path3091"
       style="fill:none;stroke:#000000;stroke-width:0.54308051;display:inline"
       sodipodi:nodetypes="cc"
       inkscape:export-filename="C:\xampp\htdocs\Portfolio\images\face.png"
       inkscape:export-xdpi="170.10001"
       inkscape:export-ydpi="170.10001" />
    <path
       transform="translate(0,136)"
       inkscape:connector-curvature="0"
       d="m 196.60039,12.636167 0.45575,-14.3165671"
       class="style6"
       id="path3093"
       style="fill:none;stroke:#000000;stroke-width:0.66951495;display:inline"
       sodipodi:nodetypes="cc"
       inkscape:export-filename="C:\xampp\htdocs\Portfolio\images\face.png"
       inkscape:export-xdpi="170.10001"
       inkscape:export-ydpi="170.10001" />
    <path
       transform="translate(0,136)"
       inkscape:connector-curvature="0"
       d="M 184.18419,17.551412 184.6251,10.42707"
       class="style7"
       id="path3095"
       style="fill:none;stroke:#000000;stroke-width:0.48665455;display:inline"
       sodipodi:nodetypes="cc"
       inkscape:export-filename="C:\xampp\htdocs\Portfolio\images\face.png"
       inkscape:export-xdpi="170.10001"
       inkscape:export-ydpi="170.10001" />
    <path
       transform="translate(0,136)"
       d="m 179.4053,19.403901 0.3699,-4.987825"
       inkscape:connector-curvature="0"
       class="style8"
       id="path3097"
       style="fill:none;stroke:#000000;stroke-width:0.42204148;display:inline"
       sodipodi:nodetypes="cc"
       inkscape:export-filename="C:\xampp\htdocs\Portfolio\images\face.png"
       inkscape:export-xdpi="170.10001"
       inkscape:export-ydpi="170.10001" />
    <path
       transform="translate(0,136)"
       inkscape:connector-curvature="0"
       d="m 140.53513,10.925693 c -7.49529,13.462894 -0.8818,14.958774 2.6454,18.947778"
       class="style9"
       id="path3101"
       style="fill:none;stroke:#000000;stroke-width:1.40662539;display:inline"
       inkscape:export-filename="C:\xampp\htdocs\Portfolio\images\face.png"
       inkscape:export-xdpi="170.10001"
       inkscape:export-ydpi="170.10001" />
    <path
       transform="translate(0,136)"
       d="m 145.38503,-3.0358292 c 0,5.4848862 -8.37709,4.986258 -7.93619,0.4986281 z"
       inkscape:connector-curvature="0"
       class="style10"
       id="path3103"
       style="fill:#000000;stroke:#000000;stroke-width:0.46887517;display:inline"
       inkscape:export-filename="C:\xampp\htdocs\Portfolio\images\face.png"
       inkscape:export-xdpi="170.10001"
       inkscape:export-ydpi="170.10001" />
    <path
       transform="translate(0,136)"
       d="m 144.06233,10.925693 c -7.49529,13.462894 -0.8818,14.958774 2.64539,18.947778"
       inkscape:connector-curvature="0"
       class="style9"
       id="path3099"
       style="fill:none;stroke:#000000;stroke-width:1.40662539;display:inline"
       inkscape:export-filename="C:\xampp\htdocs\Portfolio\images\face.png"
       inkscape:export-xdpi="170.10001"
       inkscape:export-ydpi="170.10001" />
  </g>
  <g
     inkscape:groupmode="layer"
     id="g3179"
     inkscape:label="outterfinMovementBegin"
     style="display:none">
    <path
       d="m 121.53411,175.10343 c 3.9446,9.69621 11.83201,14.76368 20.08649,15.43388 3.15317,0.25601 6.3599,-0.12962 9.42088,-1.14401 -4.92113,-15.32282 -13.38752,-19.67157 -26.80129,-20.78492"
       inkscape:connector-curvature="0"
       class="style1"
       id="path3181"
       style="fill:#ffffff;stroke:#000000;stroke-width:1.87550068;display:inline"
       inkscape:transform-center-x="-10.433127"
       inkscape:transform-center-y="2.1713745"
       sodipodi:nodetypes="cscc"
       inkscape:export-filename="C:\xampp\htdocs\Portfolio\images\outterfins.png"
       inkscape:export-xdpi="170.10001"
       inkscape:export-ydpi="170.10001" />
  </g>
  <g
     style="display:none"
     inkscape:label="outterfinMovement2"
     id="g3183"
     inkscape:groupmode="layer">
    <path
       inkscape:export-ydpi="170.10001"
       inkscape:export-xdpi="170.10001"
       inkscape:export-filename="C:\xampp\htdocs\Portfolio\images\outterfins.png"
       sodipodi:nodetypes="ccc"
       inkscape:transform-center-y="2.1713745"
       inkscape:transform-center-x="-10.433127"
       style="fill:#ffffff;stroke:#000000;stroke-width:1.87550068;display:inline"
       id="path3185"
       class="style1"
       inkscape:connector-curvature="0"
       d="m 121.53411,175.10343 c 5.45142,13.40011 9.35049,16.30834 17.94749,19.51934 0.85881,-12.8457 -1.82764,-24.90104 -15.24141,-26.01439" />
  </g>
  <g
     inkscape:groupmode="layer"
     id="layer8"
     inkscape:label="outterfin"
     style="display:none">
    <path
       transform="translate(0,136)"
       d="m 129.00442,37.070098 c -13.75374,-4.48503 -25.99741,5.24007 -30.341935,16.067314 14.880075,6.13106 24.048235,-0.281191 33.556355,-9.808232"
       inkscape:connector-curvature="0"
       class="style1"
       id="path3087"
       style="fill:#ffffff;stroke:#000000;stroke-width:1.87550068;display:inline"
       inkscape:transform-center-x="9.0378343"
       inkscape:transform-center-y="6.1864941"
       sodipodi:nodetypes="ccc"
       inkscape:export-filename="C:\xampp\htdocs\Portfolio\images\outterfins.png"
       inkscape:export-xdpi="170.10001"
       inkscape:export-ydpi="170.10001" />
  </g>
  <g
     style="display:inline"
     inkscape:label="outterfinMovementEnd"
     id="g3175"
     inkscape:groupmode="layer">
    <path
       inkscape:export-ydpi="170.10001"
       inkscape:export-xdpi="170.10001"
       inkscape:export-filename="C:\xampp\htdocs\Portfolio\images\outterfins.png"
       sodipodi:nodetypes="ccc"
       inkscape:transform-center-y="6.1864941"
       inkscape:transform-center-x="9.0378343"
       style="fill:#ffffff;stroke:#000000;stroke-width:1.87550068;display:inline"
       id="path3177"
       class="style1"
       inkscape:connector-curvature="0"
       d="m 129.00442,37.070098 c -13.75374,-4.48503 -32.052587,-4.393165 -36.397112,6.434079 14.880072,6.13106 30.103412,9.352044 39.611532,-0.174997"
       transform="translate(0,136)" />
  </g>
  <g
     inkscape:groupmode="layer"
     id="layer1"
     inkscape:label="water1"
     style="display:none"
     transform="translate(0,136)">
    <path
       inkscape:connector-curvature="0"
       d="m 134.30905,-32.729984 c 2.20451,2.493129 -1.76359,5.983509 -3.96809,4.487632 -2.2045,-1.49588 -2.6454,-4.487632 -1.32269,-6.482136 2.20449,-3.989007 6.61349,-4.487632 8.37708,-0.997249 3.08631,5.983505 2.64541,23.934034 3.08631,33.407924"
       class="style13"
       id="path3109"
       style="fill:none;stroke:#27718a;stroke-width:1.22995996;display:inline"
       inkscape:export-filename="C:\xampp\htdocs\Portfolio\images\water1.png"
       inkscape:export-xdpi="186.2"
       inkscape:export-ydpi="186.2" />
  </g>
  <g
     inkscape:groupmode="layer"
     id="layer2"
     inkscape:label="water2"
     style="display:none"
     transform="translate(0,136)">
    <path
       d="m 145.33154,-35.721737 c -2.20449,2.493127 1.76361,6.482133 4.409,4.986254 2.20451,-1.495875 2.64541,-4.986254 1.32271,-7.479384 -2.20451,-3.989006 -7.4953,-4.487634 -8.818,-0.997253 -3.5272,6.980762 -3.0863,26.925793 -3.5272,36.898307"
       inkscape:connector-curvature="0"
       class="style15"
       id="path3113"
       style="fill:none;stroke:#27718a;stroke-width:1.50697422;display:inline"
       inkscape:export-filename="C:\xampp\htdocs\Portfolio\images\water2.png"
       inkscape:export-xdpi="186.2"
       inkscape:export-ydpi="186.2" />
  </g>
  <g
     inkscape:groupmode="layer"
     id="layer3"
     inkscape:label="water3"
     style="display:none"
     transform="translate(0,136)">
    <path
       inkscape:connector-curvature="0"
       d="m 128.57736,-59.655778 c 3.9681,4.487632 -3.08629,11.468391 -7.49529,8.476638 -4.409,-2.991752 -4.8499,-8.476638 -2.64539,-12.465644 3.96809,-6.980759 12.78608,-7.978013 15.43148,-1.994503 6.1726,11.967018 4.84989,44.876321 5.73169,61.829599"
       class="style14"
       id="path3111"
       style="fill:none;stroke:#27718a;stroke-width:2.3167758"
       inkscape:export-filename="C:\xampp\htdocs\Portfolio\images\water3.png"
       inkscape:export-xdpi="170.10001"
       inkscape:export-ydpi="170.10001" />
  </g>
  <g
     inkscape:groupmode="layer"
     id="layer4"
     inkscape:label="water4"
     style="display:none"
     transform="translate(0,136)">
    <path
       d="m 151.50415,-67.633791 c -3.9681,4.487635 3.08629,11.468396 7.49528,8.476641 4.409,-2.991755 4.8499,-8.476641 2.64541,-12.465647 -3.9681,-6.98076 -12.7861,-7.978014 -15.43149,-1.9945 -6.17259,11.967016 -5.29079,45.374945 -5.73169,62.32822"
       inkscape:connector-curvature="0"
       class="style14"
       id="path3115"
       style="fill:none;stroke:#27718a;stroke-width:2.3167758;display:inline"
       inkscape:export-filename="C:\xampp\htdocs\Portfolio\images\water4.png"
       inkscape:export-xdpi="170.10001"
       inkscape:export-ydpi="170.10001" />
  </g>
  <g
     inkscape:groupmode="layer"
     id="layer5"
     inkscape:label="water5"
     style="display:none"
     transform="translate(0,136)">
    <path
       d="m 121.52297,-93.56233 c 6.17259,6.98076 -4.8499,17.950527 -11.90429,13.462895 -6.61349,-4.487632 -7.49529,-13.961519 -3.96809,-19.945035 6.17259,-11.46839 20.28138,-11.46839 24.69037,-1.9945 9.6998,18.449153 8.37709,72.300738 8.81799,99.2265336"
       inkscape:connector-curvature="0"
       class="style11"
       id="path3105"
       style="fill:none;stroke:#27718a;stroke-width:3.68535829;stroke-linecap:round"
       inkscape:export-filename="C:\xampp\htdocs\Portfolio\images\water5.png"
       inkscape:export-xdpi="170.10001"
       inkscape:export-ydpi="170.10001" />
  </g>
  <g
     inkscape:groupmode="layer"
     id="layer6"
     inkscape:label="water6"
     style="display:none"
     transform="translate(0,136)">
    <path
       inkscape:connector-curvature="0"
       d="m 157.67674,-104.5321 c -6.17259,6.980763 4.8499,17.95053 11.90428,13.462898 6.6135,-4.487632 7.49529,-13.961518 3.9681,-19.945028 -6.17259,-11.4684 -19.84048,-12.96427 -24.69038,-2.99176 -9.25889,18.449156 -7.93618,83.769135 -8.81798,111.1935536"
       class="style12"
       id="path3107"
       style="fill:none;stroke:#27718a;stroke-width:4.15423346;stroke-linecap:round"
       inkscape:export-filename="C:\xampp\htdocs\Portfolio\images\water6.png"
       inkscape:export-xdpi="170.10001"
       inkscape:export-ydpi="170.10001" />
  </g>
</svg>
