<?xml version="1.0" encoding="UTF-8" standalone="no"?>
<!-- Created with Inkscape (http://www.inkscape.org/) -->

<svg
   xmlns:dc="http://purl.org/dc/elements/1.1/"
   xmlns:cc="http://creativecommons.org/ns#"
   xmlns:rdf="http://www.w3.org/1999/02/22-rdf-syntax-ns#"
   xmlns:svg="http://www.w3.org/2000/svg"
   xmlns="http://www.w3.org/2000/svg"
   xmlns:sodipodi="http://sodipodi.sourceforge.net/DTD/sodipodi-0.dtd"
   xmlns:inkscape="http://www.inkscape.org/namespaces/inkscape"
   width="1052.3622"
   height="744.09448"
   id="svg2"
   version="1.1"
   inkscape:version="0.48.2 r9819"
   sodipodi:docname="New document 1">
  <defs
     id="defs4">
    <filter
       id="filter3974"
       inkscape:label="Drop shadow"
       width="1.5"
       height="1.5"
       x="-.25"
       y="-.25">
      <feGaussianBlur
         id="feGaussianBlur3976"
         in="SourceAlpha"
         stdDeviation="1.5"
         result="blur" />
      <feColorMatrix
         id="feColorMatrix3978"
         result="bluralpha"
         type="matrix"
         values="1 0 0 0 0 0 1 0 0 0 0 0 1 0 0 0 0 0 0.494 0 " />
      <feOffset
         id="feOffset3980"
         in="bluralpha"
         dx="1.8"
         dy="2.5"
         result="offsetBlur" />
      <feMerge
         id="feMerge3982">
        <feMergeNode
           id="feMergeNode3984"
           in="offsetBlur" />
        <feMergeNode
           id="feMergeNode3986"
           in="SourceGraphic" />
      </feMerge>
    </filter>
    <filter
       id="filter4100"
       inkscape:label="Drop shadow"
       width="1.5"
       height="1.5"
       x="-.25"
       y="-.25">
      <feGaussianBlur
         id="feGaussianBlur4102"
         in="SourceAlpha"
         stdDeviation="2.1"
         result="blur" />
      <feColorMatrix
         id="feColorMatrix4104"
         result="bluralpha"
         type="matrix"
         values="1 0 0 0 0 0 1 0 0 0 0 0 1 0 0 0 0 0 0.494 0 " />
      <feOffset
         id="feOffset4106"
         in="bluralpha"
         dx="1.8"
         dy="3.7"
         result="offsetBlur" />
      <feMerge
         id="feMerge4108">
        <feMergeNode
           id="feMergeNode4110"
           in="offsetBlur" />
        <feMergeNode
           id="feMergeNode4112"
           in="SourceGraphic" />
      </feMerge>
    </filter>
  </defs>
  <sodipodi:namedview
     id="base"
     pagecolor="#ffffff"
     bordercolor="#666666"
     borderopacity="1.0"
     inkscape:pageopacity="0.0"
     inkscape:pageshadow="2"
     inkscape:zoom="1.1222018"
     inkscape:cx="517.99995"
     inkscape:cy="445.72467"
     inkscape:document-units="px"
     inkscape:current-layer="layer1"
     showgrid="false"
     inkscape:window-width="1366"
     inkscape:window-height="746"
     inkscape:window-x="-8"
     inkscape:window-y="-8"
     inkscape:window-maximized="1" />
  <metadata
     id="metadata7">
    <rdf:RDF>
      <cc:Work
         rdf:about="">
        <dc:format>image/svg+xml</dc:format>
        <dc:type
           rdf:resource="http://purl.org/dc/dcmitype/StillImage" />
        <dc:title></dc:title>
      </cc:Work>
    </rdf:RDF>
  </metadata>
  <g
     inkscape:groupmode="layer"
     id="g3810"
     inkscape:label="waterspout4"
     style="display:none">
    <path
       sodipodi:nodetypes="cscscssscccscscsccscc"
       inkscape:connector-curvature="0"
       id="path3812"
       d="m 628.41896,6.4477424 c -3.03749,0.1730749 -6.08792,1.0894582 -8.35483,3.0290636 -2.26693,1.939606 -3.64929,4.959565 -3.25038,8.831263 0.0523,0.584343 0.63735,1.065903 1.22092,1.005592 0.58357,-0.06016 1.05741,-0.6513 0.98944,-1.234024 -0.33668,-3.267297 0.71338,-5.403432 2.4844,-6.918746 1.77103,-1.5153136 4.36601,-2.352095 7.03411,-2.5041226 2.66811,-0.1520286 5.38726,0.3874658 7.28817,1.3899246 1.90093,1.002458 2.89595,2.292349 2.79101,3.912658 l -0.014,0.09441 0.0206,0.09102 c 1.79444,16.233235 3.55474,34.29391 4.06032,43.024367 0.16164,2.791212 1.47842,5.554348 1.5222,6.634869 -0.0278,0.612871 -2.39071,-1.536891 -1.78035,-1.474838 1.88481,0.191624 1.13465,-0.641064 1.05765,-1.249709 -0.0444,-1.096641 1.08388,2.197825 1.01284,-0.826218 -0.2058,-8.760055 -1.85436,-29.982845 -3.66344,-46.348438 l -0.0231,0.0023 c 0.0698,-2.555478 -1.64995,-4.606262 -3.95513,-5.8219109 -2.36648,-1.2479819 -5.40296,-1.8104678 -8.44045,-1.637392 z"
       style="font-size:medium;font-style:normal;font-variant:normal;font-weight:normal;font-stretch:normal;text-indent:0;text-align:start;text-decoration:none;line-height:normal;letter-spacing:normal;word-spacing:normal;text-transform:none;direction:ltr;block-progression:tb;writing-mode:lr-tb;text-anchor:start;baseline-shift:baseline;color:#000000;fill:#afe9dd;fill-opacity:1;stroke:#d7f4ee;stroke-width:0.18515532;stroke-miterlimit:4;stroke-dasharray:none;marker:none;visibility:visible;display:inline;overflow:visible;enable-background:accumulate;font-family:Sans;-inkscape-font-specification:Sans" />
    <path
       sodipodi:nodetypes="cscccsccccssscscscc"
       inkscape:connector-curvature="0"
       id="path3814"
       d="m 649.96062,4.125324 c -3.05555,0.4792053 -5.9655,1.6853415 -8.07341,3.4084719 -2.05363,1.6787576 -3.36719,4.0390111 -2.80038,6.5427261 l -0.0231,0.0023 c 1.89083,22.069708 4.47736,42.708673 5.10516,46.724555 0.0899,0.57577 -1.15258,4.814341 1.01284,2.502604 0.3984,-0.425312 0.38077,-1.924408 0.29071,-2.500161 -0.68211,-4.363414 -2.31814,-25.014729 -4.19496,-46.920894 l -0.009,-0.09215 -0.0206,-0.09102 c -0.41515,-1.559161 0.32976,-3.05839 2.03984,-4.4563056 1.71008,-1.3979167 4.31973,-2.4980999 7.01647,-2.9210365 2.69675,-0.4229376 5.46258,-0.1677024 7.5228,0.9366367 2.06024,1.104337 3.5166,2.9652924 3.82078,6.2304734 0.0465,0.584828 0.62622,1.072476 1.21038,1.018236 0.58415,-0.05439 1.06415,-0.640269 1.00224,-1.223668 -0.36158,-3.8806673 -2.33928,-6.5615246 -4.9806,-7.9773422 -2.64131,-1.4158186 -5.86368,-1.6626201 -8.91924,-1.1834129 z"
       style="font-size:medium;font-style:normal;font-variant:normal;font-weight:normal;font-stretch:normal;text-indent:0;text-align:start;text-decoration:none;line-height:normal;letter-spacing:normal;word-spacing:normal;text-transform:none;direction:ltr;block-progression:tb;writing-mode:lr-tb;text-anchor:start;baseline-shift:baseline;color:#000000;fill:#afe9dd;fill-opacity:1;stroke:#afe9dd;stroke-width:0.18515532;stroke-miterlimit:4;stroke-dasharray:none;marker:none;visibility:visible;display:inline;overflow:visible;enable-background:accumulate;font-family:Sans;-inkscape-font-specification:Sans" />
  </g>
  <g
     style="display:none"
     inkscape:label="waterspout3"
     id="g3804"
     inkscape:groupmode="layer">
    <path
       style="font-size:medium;font-style:normal;font-variant:normal;font-weight:normal;font-stretch:normal;text-indent:0;text-align:start;text-decoration:none;line-height:normal;letter-spacing:normal;word-spacing:normal;text-transform:none;direction:ltr;block-progression:tb;writing-mode:lr-tb;text-anchor:start;baseline-shift:baseline;color:#000000;fill:#d7f4ee;fill-opacity:1;stroke:#87decd;stroke-width:0.36537161;stroke-miterlimit:4;stroke-dasharray:none;marker:none;visibility:visible;display:inline;overflow:visible;enable-background:accumulate;font-family:Sans;-inkscape-font-specification:Sans"
       d="m 620.18002,26.82007 c -6.00367,0.01175 -12.1134,1.486675 -16.79027,5.062632 -4.67687,3.575959 -7.72798,9.376473 -7.36168,17.048297 0.0406,1.15699 1.14024,2.169286 2.29661,2.113712 1.15637,-0.05535 2.1541,-1.168664 2.08332,-2.324198 -0.30913,-6.474202 1.99134,-10.569296 5.64513,-13.363007 3.6538,-2.793712 8.85751,-4.161163 14.13107,-4.171487 5.27358,-0.01032 10.57276,1.347426 14.20956,3.528676 3.6368,2.181249 5.45751,4.830642 5.07511,8.011833 l -0.0378,0.184495 0.0306,0.181562 c 1.77599,32.179597 3.28659,67.956185 3.33637,85.213005 0.0159,5.51717 2.3109,11.10424 2.28003,13.23799 -0.12121,1.20455 -4.54393,-3.28736 -3.34805,-3.09893 3.69296,0.58188 2.30516,-1.14012 2.21944,-2.34771 0.0313,-2.16556 1.89737,4.44797 2.0852,-1.51814 0.5441,-17.28264 -0.40357,-59.277576 -2.19404,-91.719554 l -0.0457,0.002 c 0.41449,-5.027609 -2.75166,-9.254781 -7.16187,-11.899912 -4.52753,-2.715485 -10.44947,-4.152932 -16.45313,-4.14118 z"
       id="path3806"
       inkscape:connector-curvature="0"
       sodipodi:nodetypes="cscscssscccscscsccscc" />
    <path
       style="font-size:medium;font-style:normal;font-variant:normal;font-weight:normal;font-stretch:normal;text-indent:0;text-align:start;text-decoration:none;line-height:normal;letter-spacing:normal;word-spacing:normal;text-transform:none;direction:ltr;block-progression:tb;writing-mode:lr-tb;text-anchor:start;baseline-shift:baseline;color:#000000;fill:#d7f4ee;fill-opacity:1;stroke:#afe9dd;stroke-width:0.36537161;stroke-miterlimit:4;stroke-dasharray:none;marker:none;visibility:visible;display:inline;overflow:visible;enable-background:accumulate;font-family:Sans;-inkscape-font-specification:Sans"
       d="m 666.3137,20.39017 c -6.09782,0.258214 -12.07229,1.974174 -16.58947,4.882644 -4.40088,2.833574 -7.50267,7.168375 -6.94964,12.203767 l -0.0457,-7.06e-4 c -1.21402,43.693388 -0.74494,84.736675 -0.40954,92.750555 0.0479,1.14896 -3.33339,9.18239 1.42782,5.13267 0.87596,-0.74506 1.17569,-3.68825 1.1275,-4.8372 -0.36442,-8.70739 1.0329,-49.562939 2.23792,-92.932549 l 0.003,-0.182684 -0.02,-0.183036 c -0.4663,-3.1496 1.32856,-5.923007 4.99321,-8.282548 3.66464,-2.359542 9.02667,-3.934728 14.40846,-4.162624 5.38178,-0.227897 10.74779,0.889296 14.54099,3.513967 3.7932,2.624671 6.23369,6.598174 6.10199,13.067998 -0.0392,1.157036 0.98867,2.242428 2.14611,2.266343 1.15747,0.0237 2.22923,-1.01807 2.23795,-2.175739 0.15652,-7.689393 -3.12345,-13.386724 -7.98651,-16.751686 -4.86306,-3.364962 -11.12609,-4.567422 -17.22392,-4.309209 z"
       id="path3808"
       inkscape:connector-curvature="0"
       sodipodi:nodetypes="cscccsccccssscscscc" />
  </g>
  <g
     inkscape:groupmode="layer"
     id="layer3"
     inkscape:label="waterspout2"
     style="display:none">
    <path
       sodipodi:nodetypes="cscscssscccscscsccscc"
       inkscape:connector-curvature="0"
       id="path3798"
       d="m 621.05452,61.793788 c -6.5672,-0.268501 -13.31897,1.058401 -18.60199,4.750508 -5.28302,3.692107 -8.89207,9.893562 -8.85095,18.301957 -0.0101,1.267384 1.1455,2.42614 2.41291,2.419547 1.2674,-0.0064 2.41086,-1.177302 2.3876,-2.44451 -0.0347,-7.09579 2.67339,-11.467082 6.80073,-14.351534 4.12735,-2.884453 9.8831,-4.136266 15.65167,-3.900417 5.76858,0.235849 11.50104,1.969258 15.37665,4.525484 3.87561,2.556225 5.74289,5.539384 5.17555,9.000962 l -0.05,0.200022 0.025,0.200021 c 0.43447,35.280382 1.05807,74.519662 -0.34419,93.359982 -0.48559,6.52415 0.71204,12.86016 0.57828,15.19254 -0.18902,1.31183 -3.54479,-4.22897 -2.22161,-4.15277 1.32318,0.0762 2.57475,-1.139 2.53758,-2.46385 0.13577,-2.36717 1.86685,4.95398 2.35189,-1.56278 1.40505,-18.87778 2.33657,-64.85508 1.89856,-100.423127 l -0.05,0 c 0.68898,-5.479634 -2.57597,-10.251577 -7.27578,-13.351428 -4.82482,-3.1823 -11.23471,-5.032066 -17.8019,-5.300567 z"
       style="font-size:medium;font-style:normal;font-variant:normal;font-weight:normal;font-stretch:normal;text-indent:0;text-align:start;text-decoration:none;line-height:normal;letter-spacing:normal;word-spacing:normal;text-transform:none;direction:ltr;block-progression:tb;writing-mode:lr-tb;text-anchor:start;baseline-shift:baseline;color:#000000;fill:#afe9dd;fill-opacity:1;stroke:#5fd3bc;stroke-width:0.40000001;stroke-miterlimit:4;stroke-dasharray:none;marker:none;visibility:visible;display:inline;overflow:visible;enable-background:accumulate;font-family:Sans;-inkscape-font-specification:Sans" />
    <path
       sodipodi:nodetypes="cscccsccccssscscscc"
       inkscape:connector-curvature="0"
       id="path3800"
       d="m 667.85952,65.34374 c -6.67058,0.385881 -13.18146,2.365389 -18.07693,5.625602 -4.76942,3.176259 -8.0914,7.973836 -7.40079,13.476441 l -0.05,0 c -0.58925,47.849297 0.61904,92.769187 1.12185,101.535857 0.0719,1.25689 -3.49343,10.10789 1.64985,5.59428 0.94624,-0.83041 1.22452,-4.05723 1.15232,-5.31411 -0.54631,-9.52532 0.29162,-54.2713 0.87649,-101.766022 l 0,-0.200021 -0.025,-0.200022 c -0.56376,-3.4398 1.35403,-6.50608 5.32557,-9.150978 3.97154,-2.644899 9.81439,-4.459941 15.70168,-4.800514 5.88729,-0.340572 11.78007,0.791517 15.97671,3.600385 4.19664,2.808869 6.93538,7.117129 6.90074,14.201519 -0.0233,1.267207 1.1202,2.437925 2.3876,2.444509 1.26741,0.0064 2.42298,-1.152163 2.41291,-2.419546 0.0412,-8.419805 -3.64567,-14.600834 -9.02597,-18.201947 -5.38029,-3.601113 -12.25643,-4.811354 -18.92702,-4.425473 z"
       style="font-size:medium;font-style:normal;font-variant:normal;font-weight:normal;font-stretch:normal;text-indent:0;text-align:start;text-decoration:none;line-height:normal;letter-spacing:normal;word-spacing:normal;text-transform:none;direction:ltr;block-progression:tb;writing-mode:lr-tb;text-anchor:start;baseline-shift:baseline;color:#000000;fill:#afe9dd;fill-opacity:1;stroke:#87decd;stroke-width:0.40000001;stroke-miterlimit:4;stroke-dasharray:none;marker:none;visibility:visible;display:inline;overflow:visible;enable-background:accumulate;font-family:Sans;-inkscape-font-specification:Sans" />
  </g>
  <g
     inkscape:groupmode="layer"
     id="layer2"
     inkscape:label="waterspout1"
     style="display:none">
    <path
       style="font-size:medium;font-style:normal;font-variant:normal;font-weight:normal;font-stretch:normal;text-indent:0;text-align:start;text-decoration:none;line-height:normal;letter-spacing:normal;word-spacing:normal;text-transform:none;direction:ltr;block-progression:tb;writing-mode:lr-tb;text-anchor:start;baseline-shift:baseline;color:#000000;fill:#87decd;fill-opacity:1;stroke:none;stroke-width:6;marker:none;visibility:visible;display:inline;overflow:visible;enable-background:accumulate;font-family:Sans;-inkscape-font-specification:Sans"
       d="m 614.375,107.90625 c -8.20812,-0.33559 -16.64693,1.32286 -23.25,5.9375 -6.60307,4.61464 -11.11389,12.36563 -11.0625,22.875 -0.0126,1.58406 1.43172,3.03235 3.01581,3.02411 1.58408,-0.008 3.01326,-1.47147 2.98419,-3.05531 -0.0434,-8.86879 3.34137,-14.33232 8.5,-17.9375 5.15863,-3.60518 12.35255,-5.16978 19.5625,-4.875 7.20995,0.29478 14.37476,2.46131 19.21875,5.65625 4.84399,3.19494 7.17784,6.92349 6.46875,11.25 l -0.0625,0.25 0.0312,0.25 c 0.54303,44.09576 -2.84111,93.13962 -4.59375,116.6875 -0.60692,8.15431 -0.52031,7.45984 -0.6875,10.375 -0.23625,1.63961 1.14332,3.32799 2.79712,3.42323 1.6538,0.0953 3.21809,-1.42359 3.17163,-3.07948 0.16969,-2.95864 2.33331,6.19181 2.93955,-1.95326 1.75612,-23.5947 2.9204,-81.06019 2.37295,-125.51549 l -0.0625,0 c 0.86113,-6.84881 -3.21962,-12.8131 -9.09375,-16.6875 -6.03038,-3.97745 -14.04188,-6.28941 -22.25,-6.625 z"
       id="path3016"
       inkscape:connector-curvature="0"
       sodipodi:nodetypes="cscscssscccscscsccscc" />
    <path
       style="font-size:medium;font-style:normal;font-variant:normal;font-weight:normal;font-stretch:normal;text-indent:0;text-align:start;text-decoration:none;line-height:normal;letter-spacing:normal;word-spacing:normal;text-transform:none;direction:ltr;block-progression:tb;writing-mode:lr-tb;text-anchor:start;baseline-shift:baseline;color:#000000;fill:#87decd;fill-opacity:1;stroke:none;stroke-width:6;marker:none;visibility:visible;display:inline;overflow:visible;enable-background:accumulate;font-family:Sans;-inkscape-font-specification:Sans"
       d="m 672.875,107.34375 c -8.33734,0.4823 -16.47507,2.95642 -22.59375,7.03125 -5.96113,3.9699 -10.11317,9.96623 -9.25,16.84375 l -0.0625,0 c -0.73648,59.80523 0.77372,115.94909 1.40216,126.90625 0.0898,1.57095 6.04255,2.91856 7.61349,2.82855 1.57094,-0.09 2.91833,-1.60137 2.8281,-3.1723 -0.68282,-11.90538 -6.57477,-67.13795 -5.84375,-126.5 l 0,-0.25 -0.0312,-0.25 c -0.70463,-4.29929 1.69236,-8.13173 6.65625,-11.4375 4.96389,-3.30577 12.26667,-5.57433 19.625,-6 7.35833,-0.42567 14.72351,0.98929 19.96875,4.5 5.24524,3.51071 8.6683,8.89546 8.625,17.75 -0.0291,1.58384 1.40011,3.04708 2.98419,3.05531 1.58409,0.008 3.0284,-1.44005 3.01581,-3.02411 0.0515,-10.52363 -4.5566,-18.24909 -11.28125,-22.75 -6.72465,-4.50091 -15.31891,-6.01355 -23.65625,-5.53125 z"
       id="path3787"
       inkscape:connector-curvature="0"
       sodipodi:nodetypes="cscccsccccssscscscc" />
  </g>
  <g
     inkscape:label="Layer 1"
     inkscape:groupmode="layer"
     id="layer1"
     transform="translate(0,-308.2677)">
    <path
       sodipodi:nodetypes="ccc"
       inkscape:connector-curvature="0"
       id="path3011"
       d="m 706.57791,730.48445 c -2.81545,26.91737 -67.33959,40.68913 -96.23703,53.22652 9.89622,-11.82689 27.81231,-43.52764 40.16608,-60.46331"
       style="fill:#b7c8be;stroke:#000000;stroke-width:0.74603301000000000px;stroke-linecap:butt;stroke-linejoin:miter;stroke-opacity:1" />
    <path
       sodipodi:nodetypes="cc"
       inkscape:connector-curvature="0"
       id="path4146"
       d="m 692.60338,729.08355 c -3.38473,25.12042 -40.93802,30.0928 -61.98494,44.79843"
       style="fill:none;stroke:#000000;stroke-width:0.88592255px;stroke-linecap:butt;stroke-linejoin:miter;stroke-opacity:1" />
    <path
       style="fill:none;stroke:#000000;stroke-width:0.88592255px;stroke-linecap:butt;stroke-linejoin:miter;stroke-opacity:1"
       d="m 684.60338,723.08355 c -3.38473,25.12042 -40.93802,30.0928 -61.98494,44.79843"
       id="path4148"
       inkscape:connector-curvature="0"
       sodipodi:nodetypes="cc" />
    <path
       sodipodi:nodetypes="cc"
       inkscape:connector-curvature="0"
       id="path4150"
       d="m 680.60338,713.08355 c -3.38473,25.12042 -40.93802,30.0928 -61.98494,44.79843"
       style="fill:none;stroke:#000000;stroke-width:0.88592255px;stroke-linecap:butt;stroke-linejoin:miter;stroke-opacity:1" />
    <path
       style="fill:#b7c8be;stroke:#000000;stroke-width:1px;stroke-linecap:butt;stroke-linejoin:miter;stroke-opacity:1;filter:url(#filter4100)"
       d="m 880,266.95163 c -226.09724,-15.11378 -434.82156,-7.06367 -648.57143,-5.71429 -14.39253,-52.6664 -42.25873,-65.09844 -80.49277,-75.19071 16.02217,30.08246 -14.17888,75.38672 61.31485,86.22838 -58.3249,-14.86726 -48.61783,45.07522 -72.25065,63.24804 31.89692,-15.79882 89.39658,15.0897 92.94954,-52.39517 C 369.627,350.85336 696.6616,449.98614 788.2233,417.26996 830.20938,405.86245 879.62525,345.2021 880,266.95163 z"
       id="path2985"
       inkscape:connector-curvature="0"
       transform="translate(0,308.2677)"
       sodipodi:nodetypes="cccccccc"
       clip-path="none" />
    <path
       style="fill:#b7c8be;stroke:#000000;stroke-width:1px;stroke-linecap:butt;stroke-linejoin:miter;stroke-opacity:1;filter:url(#filter3974)"
       d="m 664.21986,710.74029 c 5.81598,43.3791 -49.41011,74.07071 -116.62877,84.58422 22.58101,-26.98639 33.18257,-105.28934 88.83914,-93.97772"
       id="path2987"
       inkscape:connector-curvature="0"
       sodipodi:nodetypes="ccc" />
    <path
       style="fill:none;stroke:#000000;stroke-width:1px;stroke-linecap:butt;stroke-linejoin:miter;stroke-opacity:1"
       d="M 879.17355,289.21719 C 816.02482,359.43178 707.92362,359.28862 729.5097,322.4575"
       id="path2989"
       inkscape:connector-curvature="0"
       transform="translate(0,308.2677)"
       sodipodi:nodetypes="cc" />
    <path
       sodipodi:type="arc"
       style="fill:#000000;fill-rule:evenodd;stroke:#000000;stroke-width:1px;stroke-linecap:butt;stroke-linejoin:miter;stroke-opacity:1"
       id="path2991"
       sodipodi:cx="799.29156"
       sodipodi:cy="308.36319"
       sodipodi:rx="11.690351"
       sodipodi:ry="11.786965"
       d="m 810.98192,308.36319 a 11.690351,11.786965 0 1 1 -23.38071,0 11.690351,11.786965 0 1 1 23.38071,0 z"
       transform="matrix(1.5379514,0,0,1.5379514,-441.50817,134.01753)" />
    <path
       sodipodi:type="arc"
       style="fill:none;stroke:#000000"
       id="path2993"
       sodipodi:cx="802.19"
       sodipodi:cy="308.55643"
       sodipodi:rx="15.554931"
       sodipodi:ry="15.844773"
       d="m 817.74493,308.55643 a 15.554931,15.844773 0 1 1 -31.10986,0 15.554931,15.844773 0 1 1 31.10986,0 z"
       transform="matrix(1.3346697,0,0,1.3346697,-282.80106,196.43352)" />
    <path
       style="fill:#000000;stroke:#000000;stroke-width:1px;stroke-linecap:butt;stroke-linejoin:miter;stroke-opacity:1"
       d="m 654.02477,258.2951 c -5.10459,9.91631 -14.0652,9.32786 -20.54237,-0.5552 z"
       id="path3009"
       inkscape:connector-curvature="0"
       transform="translate(0,308.2677)"
       sodipodi:nodetypes="ccc" />
    <path
       style="fill:none;stroke:#000000;stroke-width:0.91444194px;stroke-linecap:butt;stroke-linejoin:miter;stroke-opacity:1"
       d="m 627.16316,709.48115 c -26.15899,-0.47997 -37.11196,37.0551 -55.41076,56.22563"
       id="path4128"
       inkscape:connector-curvature="0"
       sodipodi:nodetypes="cc" />
    <path
       sodipodi:nodetypes="cc"
       inkscape:connector-curvature="0"
       id="path4130"
       d="m 635.12751,717.51716 c -28.19859,-0.5174 -40.00555,39.94426 -59.73109,60.60949"
       style="fill:none;stroke:#000000;stroke-width:0.9857403px;stroke-linecap:butt;stroke-linejoin:miter;stroke-opacity:1" />
    <path
       style="fill:none;stroke:#000000;stroke-width:0.88592255px;stroke-linecap:butt;stroke-linejoin:miter;stroke-opacity:1"
       d="m 645.17742,725.46675 c -25.34315,-0.465 -35.95452,35.89944 -53.68262,54.47208"
       id="path4132"
       inkscape:connector-curvature="0"
       sodipodi:nodetypes="cc" />
    <path
       sodipodi:nodetypes="cc"
       inkscape:connector-curvature="0"
       id="path4134"
       d="m 215.11348,587.65881 c -25.10693,-7.35968 -34.87506,21.50415 -57.58067,35.17203"
       style="fill:none;stroke:#000000;stroke-width:0.91444194px;stroke-linecap:butt;stroke-linejoin:miter;stroke-opacity:1" />
    <path
       style="fill:none;stroke:#000000;stroke-width:0.9857403px;stroke-linecap:butt;stroke-linejoin:miter;stroke-opacity:1"
       d="m 219.78629,594.83695 c -22.60897,8.10638 -40.21021,22.63711 -64.68615,37.37065"
       id="path4136"
       inkscape:connector-curvature="0"
       sodipodi:nodetypes="cc" />
    <path
       sodipodi:nodetypes="cc"
       inkscape:connector-curvature="0"
       id="path4138"
       d="m 223.82034,603.37269 c -0.47759,12.11829 -23.51199,25.38298 -55.45137,30.37171"
       style="fill:none;stroke:#000000;stroke-width:0.88592255px;stroke-linecap:butt;stroke-linejoin:miter;stroke-opacity:1" />
    <path
       style="fill:none;stroke:#000000;stroke-width:0.91444194px;stroke-linecap:butt;stroke-linejoin:miter;stroke-opacity:1"
       d="M 217.63685,560.30823 C 221.2166,534.3909 191.22847,528.9826 174.36403,508.53885"
       id="path4140"
       inkscape:connector-curvature="0"
       sodipodi:nodetypes="cc" />
    <path
       sodipodi:nodetypes="cc"
       inkscape:connector-curvature="0"
       id="path4142"
       d="M 211.22564,565.98776 C 199.87622,544.82009 182.9105,529.55216 164.73117,507.51445"
       style="fill:none;stroke:#000000;stroke-width:0.9857403px;stroke-linecap:butt;stroke-linejoin:miter;stroke-opacity:1" />
    <path
       style="fill:none;stroke:#000000;stroke-width:0.88592255px;stroke-linecap:butt;stroke-linejoin:miter;stroke-opacity:1"
       d="m 203.3775,571.23555 c -12.05638,1.3133 -28.57047,-19.51505 -38.21114,-50.37066"
       id="path4144"
       inkscape:connector-curvature="0"
       sodipodi:nodetypes="cc" />
  </g>
</svg>
