<?xml version="1.0" standalone="no"?>
<!DOCTYPE svg PUBLIC "-//W3C//DTD SVG 1.1//EN" "http://www.w3.org/Graphics/SVG/1.1/DTD/svg11.dtd" >
<svg xmlns="http://www.w3.org/2000/svg">
<metadata></metadata>
<defs>
<font id="acanthus_ssiregular" horiz-adv-x="1147" >
<font-face units-per-em="2048" ascent="1638" descent="-410" />
<missing-glyph horiz-adv-x="573" />
<glyph horiz-adv-x="2048" />
<glyph horiz-adv-x="2048" />
<glyph unicode="&#xd;" horiz-adv-x="0" />
<glyph unicode=" "  horiz-adv-x="573" />
<glyph unicode="&#x09;" horiz-adv-x="573" />
<glyph unicode="&#xa0;" horiz-adv-x="573" />
<glyph unicode="!" horiz-adv-x="655" d="M209 86q0 32 15 58.5t41 41.5t54 15q46 0 79.5 -33.5t33.5 -81.5q0 -45 -34 -78t-79 -33t-77.5 32.5t-32.5 78.5zM215 1286q0 60 24.5 103t75.5 43q54 0 78.5 -42.5t24.5 -103.5l-8 -129l-74 -733h-39l-74 733z" />
<glyph unicode="&#x22;" horiz-adv-x="1065" d="M328 1321q0 111 65 111q72 0 72 -117q0 -23 -4 -51l-47 -422q0 -6 -1 -15t-2.5 -20t-7.5 -20t-16 -9q-12 0 -16.5 11t-6 26t-2.5 27l-32 422q0 36 -2 57zM623 1321q0 111 65 111q72 0 72 -117q0 -23 -4 -51l-47 -422q0 -6 -1 -15t-2.5 -20t-7.5 -20t-16 -9 q-12 0 -16.5 11t-6 26t-2.5 27l-32 422q0 36 -2 57z" />
<glyph unicode="#" d="M90 459v119h236l45 282h-224v119h240l64 428h118l-63 -428h272l62 428h116l-61 -428h201v-119h-217l-41 -282h204v-119h-221l-63 -459h-119l63 459h-274l-68 -459h-116l67 459h-221zM444 578h275l43 282h-273z" />
<glyph unicode="$" d="M102 449l33 6q35 -117 90.5 -207t142 -144t203.5 -55v572q-175 85 -276.5 175t-101.5 238q0 77 31.5 140.5t85 111t120.5 78t141 41.5v133h58v-129q204 0 327 -82l-28 -305h-33q-14 72 -31 125.5t-45.5 98t-76.5 74.5t-113 36v-547q123 -64 196.5 -112t128 -125.5 t54.5 -182.5q0 -103 -52 -188t-139 -138t-188 -65v-184h-58v182q-218 0 -417 98zM367 1112q0 -68 26 -120t71.5 -91t106.5 -72v523q-92 -17 -148 -80.5t-56 -159.5zM629 55q58 12 104.5 48t73.5 91t27 117q0 185 -205 287v-543z" />
<glyph unicode="%" horiz-adv-x="1311" d="M63 1073q0 88 27 171t85.5 135.5t150.5 52.5q89 0 146.5 -53.5t83.5 -135t26 -170.5q0 -85 -26.5 -168t-85 -136.5t-146.5 -53.5q-132 0 -196.5 109.5t-64.5 248.5zM195 1075q0 -100 27.5 -208.5t101.5 -108.5q51 0 79 58.5t38 132.5t10 126q0 54 -10 127.5t-37.5 131 t-79.5 57.5q-75 0 -102 -107t-27 -209zM213 0l784 1407h99l-785 -1407h-98zM725 338q0 87 27 169.5t86 134.5t149 52q87 0 145.5 -53t84.5 -134t26 -169q0 -85 -26.5 -168t-85 -136.5t-146.5 -53.5q-131 0 -195.5 109.5t-64.5 248.5zM856 340q0 -102 27 -211t102 -109 q73 0 100 107t27 213q0 52 -9.5 125t-38 130.5t-79.5 57.5q-52 0 -81 -57.5t-38.5 -130t-9.5 -125.5z" />
<glyph unicode="&#x26;" horiz-adv-x="1761" d="M143 371q0 147 92.5 257.5t241.5 200.5l-16 17q-81 73 -127.5 135.5t-46.5 140.5q0 95 51.5 165t135.5 107.5t173 37.5q80 0 155.5 -29t123 -87t47.5 -142q0 -75 -38.5 -128t-94 -87t-133.5 -72l-23 -13l406 -434q86 130 133 213t47 146q0 27 -29 42.5t-67.5 22 t-69.5 10.5v31h604v-31q-74 -4 -144.5 -29t-124.5 -62t-106 -92t-100 -122l-113 -159q90 -120 148 -185.5t140 -114.5t183 -49q74 0 164 17l10 -27q-200 -71 -379 -71l-153 14q-27 3 -40 17t-36.5 58t-56.5 92.5t-90 108.5q-80 -95 -143 -155.5t-145 -100t-181 -39.5 q-137 0 -267.5 104.5t-130.5 291.5zM313 475q0 -147 97.5 -245.5t244.5 -98.5q70 0 126.5 20t106.5 57t97 89q-138 166 -245.5 282t-231.5 218q-40 -21 -76 -56t-63.5 -79t-41.5 -89.5t-14 -97.5zM449 1186q0 -58 25.5 -96t84.5 -95l98 -90q146 120 146 254q0 54 -23 103 t-64.5 78.5t-97.5 29.5q-51 0 -89.5 -25t-59 -66t-20.5 -93z" />
<glyph unicode="'" horiz-adv-x="614" d="M252 1321q0 111 65 111q72 0 72 -117q0 -23 -4 -51l-47 -422q0 -6 -1 -15t-2.5 -20t-7.5 -20t-16 -9q-11 0 -15.5 11t-6 26t-2.5 27l-33 422q0 36 -2 57z" />
<glyph unicode="(" horiz-adv-x="778" d="M131 492q0 276 117.5 532.5t318.5 460.5l29 -27q-174 -224 -256 -456t-82 -510q0 -140 21 -267t63 -245.5t103 -225t151 -225.5l-29 -29q-100 103 -178 214.5t-136.5 238t-90 263.5t-31.5 276z" />
<glyph unicode=")" horiz-adv-x="778" d="M182 -473q174 225 256 455t82 510q0 281 -82 511t-256 453l29 29q96 -96 178.5 -214t139 -241.5t87.5 -260.5t31 -277t-32 -278t-88 -260.5t-138.5 -239.5t-177.5 -214z" />
<glyph unicode="*" horiz-adv-x="1106" d="M186 1077l54 160l247 -98l-16 268h166l-19 -268l250 98l52 -160l-261 -65l172 -209l-135 -101l-143 232l-143 -232l-136 101l172 209z" />
<glyph unicode="+" d="M121 401v111h397v401h111v-401h397v-111h-397v-401h-111v401h-397z" />
<glyph unicode="," horiz-adv-x="573" d="M143 104q0 47 35 71t84 24q70 0 123.5 -38t83 -99t29.5 -130q0 -81 -40.5 -148.5t-102 -115.5t-144.5 -94l-18 33q84 57 137 124t53 148t-40.5 106.5t-94.5 30.5q-105 14 -105 88z" />
<glyph unicode="-" horiz-adv-x="737" d="M139 467v100h447v-100h-447z" />
<glyph unicode="." horiz-adv-x="573" d="M193 86q0 32 15 58.5t41 41.5t54 15q46 0 79.5 -33.5t33.5 -81.5q0 -45 -34 -78t-79 -33t-77.5 32.5t-32.5 78.5z" />
<glyph unicode="/" horiz-adv-x="1311" d="M6 -391l1206 1876l91 -58l-1207 -1876z" />
<glyph unicode="0" d="M100 702q0 171 46 338t153.5 279.5t278.5 112.5q129 0 221 -68.5t145 -178t76.5 -233.5t23.5 -250q0 -118 -23.5 -242t-78.5 -236t-147 -180.5t-222 -68.5q-129 0 -220.5 66.5t-147.5 178.5t-80.5 237t-24.5 245zM313 707q0 -124 20 -277t78.5 -277t161.5 -124t161 122.5 t77.5 277t19.5 278.5q0 80 -9.5 189t-35.5 220.5t-79 186.5t-134 75q-147 0 -203.5 -227.5t-56.5 -443.5z" />
<glyph unicode="1" d="M190 0v31q112 12 168.5 33.5t81.5 59t31 88t8 171.5v668q0 105 -6.5 154t-32 84t-83 56t-160.5 31v31h475q-6 -194 -9 -372t-3.5 -332.5t-0.5 -319.5q4 -132 9.5 -176.5t30.5 -82.5t81.5 -59.5t167.5 -33.5v-31h-758z" />
<glyph unicode="2" d="M35 29q692 556 692 952q0 119 -70 200t-186 81q-94 0 -172.5 -51t-159.5 -138l-30 25q78 147 189.5 240.5t252.5 93.5q84 0 153.5 -32t118.5 -88.5t75 -131t26 -156.5q0 -146 -98.5 -298t-224.5 -273.5t-314 -282.5h377q81 0 130.5 10t80 33.5t55.5 62.5t71 123l29 -12 l-145 -387h-838z" />
<glyph unicode="3" d="M145 211q0 36 16.5 65t46 46.5t64.5 17.5q42 0 80 -23v-43q0 -61 27.5 -115t76 -87t109.5 -33q76 0 137.5 43t94 113t32.5 147q0 73 -32 128.5t-88.5 93.5t-121 56.5t-134.5 18.5q-60 0 -148 -18l-16 26q16 13 69.5 59t76.5 59.5t59 22.5l38 11q96 35 167 110.5t71 171.5 q0 60 -31 104t-81 66.5t-111 22.5q-87 0 -168.5 -43.5t-149.5 -118.5l-39 27q91 142 193.5 217.5t249.5 75.5q80 0 153 -34.5t118.5 -99.5t45.5 -147q0 -90 -51.5 -159.5t-123 -113.5t-175.5 -92v-4q113 -11 205.5 -55t145.5 -123t53 -190q0 -94 -42.5 -173.5t-117.5 -140.5 t-163 -93t-179 -32q-128 0 -242.5 59.5t-114.5 176.5z" />
<glyph unicode="4" d="M14 487l723 955l54 -25q-15 -243 -15 -526v-320h289v-135h-289v-84q0 -93 5 -139t29 -83t74.5 -59.5t151.5 -39.5v-31h-684v31q101 17 152.5 39.5t74.5 58.5t28 83t5 140v84h-587zM168 571h444v596z" />
<glyph unicode="5" d="M145 193q0 61 41 101t99 40q35 0 65 -15q-8 -32 -8 -67q0 -90 57 -152.5t158 -62.5q78 0 132.5 44.5t82 114t27.5 146.5q0 164 -89 259t-249 95q-140 0 -260 -75l-17 6l68 780h391q99 0 134.5 5.5t56.5 26t51 74.5h26l-67 -276h-539l-37 -408q60 18 113.5 28.5 t122.5 10.5q100 0 186.5 -30t149 -86t98 -139t35.5 -185q0 -99 -40 -183.5t-108.5 -144t-158 -92.5t-187.5 -33q-73 0 -149.5 22.5t-130.5 72t-54 123.5z" />
<glyph unicode="6" d="M88 483q0 176 71 330t189.5 272.5t268.5 207t315 147.5l18 -31q-124 -67 -235 -153t-198 -190t-142 -228q72 26 136.5 41.5t121.5 15.5q122 0 219 -55.5t152 -154.5t55 -222q0 -140 -66 -251t-180.5 -174t-253.5 -63q-107 0 -194.5 39t-150 109.5t-94.5 161.5t-32 198z M301 467q0 -162 75 -295t224 -133q89 0 144 57.5t78.5 143t23.5 174.5q0 84 -22.5 156t-66 128.5t-109.5 88.5t-148 32q-75 0 -146 -26q-53 -143 -53 -326z" />
<glyph unicode="7" d="M90 1038l103 369h890l17 -12l-795 -1420h-141l756 1262h-476q-88 0 -132 -7.5t-68.5 -27t-51.5 -61t-71 -111.5z" />
<glyph unicode="8" d="M109 326q0 94 47 166t119 124t167 101l-20 16q-88 67 -137.5 111t-85 108t-35.5 144q0 81 35 145t96.5 107t135 63.5t149.5 20.5q95 0 182.5 -33.5t144 -103t56.5 -165.5q0 -87 -38 -151t-90.5 -104.5t-152.5 -102.5l18 -14q110 -86 161.5 -133t91.5 -120t40 -165 q0 -115 -64 -197.5t-167 -125t-211 -42.5q-110 0 -211 39t-166 118.5t-65 193.5zM289 362q0 -84 37 -161t105 -124.5t153 -47.5q64 0 117 33t82.5 89t29.5 121q0 74 -30 133.5t-79 108t-115.5 97.5t-113.5 83q-79 -52 -132.5 -144.5t-53.5 -187.5zM344 1176q0 -63 28 -117.5 t74 -100t97.5 -84t109.5 -81.5q41 37 70 85.5t44 104t15 111.5q0 75 -27 140.5t-82.5 104.5t-131.5 39q-85 0 -141 -58.5t-56 -143.5z" />
<glyph unicode="9" d="M47 948q0 142 68 252t183.5 171t256.5 61q137 0 244 -63.5t165 -175.5t58 -249q0 -188 -68 -348.5t-188.5 -288t-273.5 -216t-330 -142.5l-15 39q139 66 259.5 160t213 217t140.5 260q-147 -88 -297 -88q-115 0 -210 53t-150.5 147.5t-55.5 210.5zM260 1014 q0 -103 30 -179.5t79 -125t105.5 -70t107.5 -21.5q53 0 109.5 19t90.5 53q15 48 21 108t6 130q0 97 -25.5 201.5t-87 176.5t-161.5 72q-133 0 -204 -111t-71 -253z" />
<glyph unicode=":" horiz-adv-x="573" d="M193 86q0 32 15 58.5t41 41.5t54 15q46 0 79.5 -33.5t33.5 -81.5q0 -45 -34 -78t-79 -33t-77.5 32.5t-32.5 78.5zM193 788q0 46 32.5 79.5t77.5 33.5q29 0 56 -15t42 -42t15 -56q0 -44 -34 -78t-79 -34t-77.5 33.5t-32.5 78.5z" />
<glyph unicode=";" horiz-adv-x="573" d="M143 104q0 47 35 71t84 24q70 0 123.5 -38t83 -99t29.5 -130q0 -81 -40.5 -148.5t-102 -115.5t-144.5 -94l-18 33q84 57 137 124t53 148t-40.5 106.5t-94.5 30.5q-105 14 -105 88zM193 788q0 46 32.5 79.5t77.5 33.5q29 0 56 -15t42 -42t15 -56q0 -44 -34 -78t-79 -34 t-77.5 33.5t-32.5 78.5z" />
<glyph unicode="&#x3c;" d="M133 414v110l881 394v-130l-721 -321l721 -340v-131z" />
<glyph unicode="=" d="M119 264v113h907v-113h-907zM119 539v110h907v-110h-907z" />
<glyph unicode="&#x3e;" d="M133 -4v131l721 319l-721 342v130l881 -418v-109z" />
<glyph unicode="?" horiz-adv-x="737" d="M150 86q0 32 15 58.5t41 41.5t54 15q46 0 79.5 -33.5t33.5 -81.5q0 -45 -34 -78t-79 -33t-77.5 32.5t-32.5 78.5zM180 571q0 94 44.5 132.5t134.5 61t123.5 40t33.5 76.5q0 49 -41 87t-121.5 86t-111.5 76q-49 49 -49 123q0 60 34 179l35 -9q1 -47 16 -74.5t38 -46 t71 -51.5q84 -58 114.5 -87.5t47 -87.5t16.5 -177q0 -168 -38.5 -229t-117.5 -76.5t-115 -36.5t-48 -121l-10 -92h-39z" />
<glyph unicode="@" horiz-adv-x="1434" d="M76 705q0 147 53.5 279t150 233.5t224.5 158t268 56.5q173 0 320.5 -76t235 -214.5t87.5 -318.5q0 -133 -65.5 -260.5t-172 -209t-221.5 -81.5q-55 0 -102.5 30t-54.5 83q-49 -49 -111 -80t-123 -31q-70 0 -122.5 38.5t-79.5 101.5t-27 135q0 93 31.5 196.5t91 191.5 t141 140.5t178.5 52.5q66 0 123 -28.5t72 -85.5l26 88h160l-180 -535q-13 -39 -23.5 -68.5t-18 -56.5t-7.5 -51q0 -53 49 -53q72 0 155.5 68.5t141 182.5t57.5 240q0 107 -46 204t-123 167.5t-177 109t-205 38.5q-169 0 -307.5 -85t-217.5 -231.5t-79 -320.5 q0 -136 42.5 -253t125.5 -210.5t193 -143t239 -49.5q110 0 214.5 41t189 115t135.5 172h82q-46 -121 -143.5 -215t-223 -144.5t-256.5 -50.5q-193 0 -354.5 99t-253.5 267t-92 364zM483 449q0 -51 30.5 -84t80.5 -33q85 0 141 76t90 180l95 280q14 41 14 88q0 54 -27.5 87.5 t-85.5 33.5q-71 0 -133.5 -70t-109 -178t-71 -213.5t-24.5 -166.5z" />
<glyph unicode="A" horiz-adv-x="1393" d="M-51 0v31q89 24 134 51t69 68t61 133l231 610l123 338q31 81 31 106q0 24 -8 37q86 36 149 111l451 -1213q31 -84 57 -127.5t70.5 -71t126.5 -42.5v-31h-602v31q72 16 114.5 43.5t42.5 89.5q0 30 -12.5 80t-29 100t-41 117t-48.5 129h-467q-29 -81 -57 -159.5t-48 -146 t-20 -112.5q0 -44 22.5 -71t59 -40.5t74.5 -19t78 -10.5v-31h-561zM436 684h406l-213 539z" />
<glyph unicode="B" horiz-adv-x="1352" d="M63 0v31q121 16 173 46.5t65 85t16 177.5v717q-3 122 -15.5 176.5t-61.5 84.5t-164 46v31l416 16q17 1 31 1.5t38 0.5q231 0 398 -72.5t167 -271.5q0 -136 -103.5 -209.5t-258.5 -111.5v-5q123 -30 219.5 -70.5t166 -116.5t69.5 -187q0 -158 -100 -241.5t-230 -107.5 t-262 -24zM498 315q0 -89 11 -145t54.5 -91.5t132.5 -35.5q88 0 157 37.5t107.5 106t38.5 157.5q0 70 -44 155t-139 145.5t-238 60.5l-80 -5v-342v-43zM498 745q181 4 303.5 68t122.5 225q0 117 -60 190t-157 104.5t-209 31.5v-619z" />
<glyph unicode="C" horiz-adv-x="1516" d="M111 690q0 140 53.5 273t159 239t261 168t351.5 62q262 0 448 -113v-338h-30q-21 122 -73 211t-140.5 139.5t-206.5 50.5q-137 0 -247 -53t-185.5 -146t-114.5 -212.5t-39 -255.5q0 -149 52 -276t138.5 -219.5t196 -143.5t219.5 -51q127 0 214 55.5t142 143.5t111 222 l29 -12q-35 -179 -113 -371q-183 -88 -417 -88q-160 0 -307.5 47t-260 138.5t-177 226.5t-64.5 303z" />
<glyph unicode="D" horiz-adv-x="1679" d="M63 0v31q121 16 173 46.5t65 85t16 177.5v717q-3 122 -15.5 176.5t-60.5 84.5t-165 48v29l495 16q18 1 32.5 1.5t37.5 0.5q295 0 484.5 -76.5t283.5 -190t126 -228t32 -220.5q0 -119 -44 -241t-145.5 -226.5t-277 -169.5t-426.5 -65zM498 319q0 -82 18 -140t80.5 -95 t179.5 -37q93 0 191.5 33.5t180 105.5t131.5 194t50 288q0 237 -111.5 395t-300 232.5t-419.5 74.5v-1051z" />
<glyph unicode="E" horiz-adv-x="1352" d="M63 0v31q121 16 173 46.5t65 85t16 177.5v727q-3 123 -16 177t-64.5 84t-173.5 48v31h1100l-24 -320h-31q-7 126 -62.5 185t-134.5 72.5t-215 13.5h-198v-590h213q94 0 149.5 11.5t94 53t49.5 125.5h30v-462h-30q-13 87 -51.5 126.5t-91.5 48.5t-150 9h-213v-338v-57 q0 -70 19.5 -120t87.5 -83t200 -33q131 0 218 36.5t139.5 115t78.5 209.5h31q-1 -113 -19 -211.5t-51 -198.5h-1139z" />
<glyph unicode="F" horiz-adv-x="1188" d="M31 0v31q122 17 173 47t64.5 84.5t16.5 177.5v727q-3 123 -16.5 177t-64 84t-173.5 48v31h1083l-33 -328h-30q-6 126 -57.5 187t-130.5 76.5t-212 15.5h-186v-619h223q99 0 157.5 13.5t94.5 61t43 138.5h31v-506h-31q-7 97 -42.5 141t-90.5 54t-162 10h-223v-311 q0 -124 15.5 -177t76.5 -82t203 -50v-31h-729z" />
<glyph unicode="G" horiz-adv-x="1597" d="M111 686q0 168 67 307t184 238t265 150t309 51q239 0 479 -80l-8 -361h-27q-18 91 -58.5 164t-100 123.5t-134.5 77t-169 26.5q-129 0 -236 -47t-181 -131t-113.5 -198.5t-39.5 -241.5q0 -201 89 -366.5t248 -259t359 -93.5q70 0 107 9.5t53.5 30t20.5 51.5t4 93v125 q0 113 -23.5 168t-79 76.5t-174.5 36.5v31h607v-31q-71 -15 -102.5 -39.5t-39.5 -63.5t-8 -112v-260h100v-31q-135 -57 -223 -87.5t-188 -48.5t-207 -18q-214 0 -392 84.5t-283 245.5t-105 381z" />
<glyph unicode="H" horiz-adv-x="1802" d="M55 0v31q121 16 173 46.5t65 85t16 177.5v727q-3 123 -16 177t-64.5 84t-173.5 48v31h707v-31q-105 -16 -158 -34.5t-77.5 -49t-31 -77t-6.5 -148.5v-299h824v299q0 102 -5.5 148.5t-30.5 77t-78 49t-159 34.5v31h707v-31q-122 -18 -173.5 -48t-64.5 -84t-16 -177v-727 q3 -123 16 -177.5t65 -85t173 -46.5v-31h-707v31q104 15 158 33.5t79 49.5t30.5 77.5t5.5 148.5v340h-824v-340q0 -102 6.5 -148.5t31 -77.5t78.5 -49.5t157 -33.5v-31h-707z" />
<glyph unicode="I" horiz-adv-x="819" d="M66 0v31q122 17 173 47t64 84.5t16 177.5v727q-3 123 -16 177t-63.5 84t-173.5 48v31h688v-31q-122 -18 -173.5 -48t-64.5 -84t-16 -177v-727q3 -123 16 -177.5t65 -85t173 -46.5v-31h-688z" />
<glyph unicode="J" horiz-adv-x="819" d="M25 -322q111 53 177 122t97.5 158.5t41 191.5t9.5 268v649q0 102 -5.5 148.5t-29.5 77t-77 49t-160 34.5v31h704v-31q-122 -18 -174 -48t-65 -85t-13 -176v-739q0 -162 -15.5 -257.5t-62.5 -163.5t-144 -128.5t-267 -134.5z" />
<glyph unicode="K" horiz-adv-x="1434" d="M66 0v31q122 17 173 47t64 84.5t16 177.5v727q-3 123 -16 177t-63.5 84t-173.5 48v31h651v-31q-105 -18 -148 -48.5t-54.5 -84.5t-14.5 -176v-727q3 -123 17 -177.5t69.5 -85t185.5 -46.5v-31h-706zM528 686l330 363q152 173 152 247q0 67 -115 80v31h530v-31 q-82 -8 -154.5 -44t-136 -89t-128.5 -122t-121 -130l-193 -207l416 -462q106 -117 216 -198t239 -118l-11 -31q-165 15 -234 24.5t-130 33.5t-112 66.5t-130 127.5z" />
<glyph unicode="L" horiz-adv-x="1311" d="M63 0v31q121 16 173 46.5t65 85t16 177.5v727q-3 123 -16 177t-64.5 84t-173.5 48v31h689v-31q-123 -18 -175 -48.5t-65.5 -85t-13.5 -175.5v-678q0 -105 5.5 -177t24.5 -136l250 -19q58 -4 80 -4q115 0 185.5 34.5t118.5 98t136 211.5l27 -12l-117 -385h-1145z" />
<glyph unicode="M" horiz-adv-x="1966" d="M29 0v31q87 15 131.5 49.5t61.5 83t36 155.5l76 580l26 283q0 174 -225 194v31h443l2 -23q-17 -16 -17 -55q0 -51 41 -149l389 -879l371 823q57 131 57 193q0 43 -22 57l4 33h450v-31q-101 -20 -151.5 -68.5t-50.5 -152.5l45 -754q12 -145 19.5 -194t28.5 -85.5 t64.5 -55.5t128.5 -35v-31h-673v31q90 13 139.5 30.5t78.5 62.5t29 132l-55 905h-4l-522 -1161h-23l-485 1112h-4q0 -4 -18 -193.5t-22 -251t-11.5 -192t-12.5 -229.5q0 -55 12 -91.5t66 -70t168 -53.5v-31h-571z" />
<glyph unicode="N" horiz-adv-x="1679" d="M33 1376v31h338l1011 -1081l-10 753q-2 102 -25.5 157.5t-84 87t-177.5 52.5v31h560v-31q-99 -13 -134.5 -64.5t-50.5 -166.5q-9 -72 -13.5 -197t-4.5 -293q0 -301 10 -688l-27 -6q-111 135 -235 271.5t-288.5 310.5t-273.5 289.5t-241 257.5v-381v-109q0 -175 6.5 -268 t33.5 -153t82.5 -93t162.5 -55v-31h-613v31q98 11 151 48t78 105t31.5 162.5t6.5 280.5v92v311q0 110 -20 173t-80 102.5t-193 70.5z" />
<glyph unicode="O" horiz-adv-x="1720" d="M111 705q0 216 96.5 381.5t266.5 255.5t384 90q192 0 335.5 -60.5t235.5 -164t136.5 -232.5t44.5 -273q0 -164 -55 -298t-156 -229.5t-241 -147.5t-298 -52q-160 0 -298 51t-239 147.5t-156.5 232t-55.5 299.5zM348 756q0 -122 33.5 -253.5t100.5 -239t169.5 -173 t233.5 -65.5q160 0 269.5 94.5t163.5 242t54 306.5q-3 182 -70.5 348t-187.5 266t-272 100q-126 0 -220.5 -55.5t-155 -147.5t-89.5 -203t-29 -220z" />
<glyph unicode="P" horiz-adv-x="1229" d="M61 0v31q121 16 173 46.5t65 85t16 177.5v641q0 166 -11 236t-61.5 105.5t-166.5 41.5v31l446 16q15 1 27.5 1.5t32.5 0.5q189 0 309.5 -45t178.5 -109t77.5 -126t19.5 -105q0 -136 -76.5 -225t-194 -134.5t-253.5 -60.5l-6 31q150 24 235.5 105t85.5 229q0 98 -37 171.5 t-103 122.5t-146.5 72t-175.5 23v-1022q0 -102 6.5 -148.5t30 -77.5t77.5 -49.5t158 -33.5v-31h-707z" />
<glyph unicode="Q" horiz-adv-x="1720" d="M111 711q0 216 99 379.5t271 252.5t381 89q158 0 296 -50.5t242 -144.5t162 -226t58 -294q0 -146 -46.5 -272t-130.5 -221.5t-203 -158t-263 -83.5l403 -213q83 -43 172.5 -60t206.5 -22v-31q-77 -19 -130 -32t-117 -24.5t-103 -11.5q-94 0 -179 36.5t-181.5 104.5 t-193.5 137.5t-193 117.5l-101 49q-102 49 -193 115t-174 208.5t-83 354.5zM348 737q0 -136 40 -264.5t113 -229t173.5 -159.5t214.5 -59q158 0 270 94t167.5 241t55.5 304q0 175 -65 342t-185 271.5t-278 104.5q-126 0 -221.5 -54t-159.5 -148.5t-94.5 -208.5t-30.5 -234z " />
<glyph unicode="R" horiz-adv-x="1434" d="M61 0v31q121 16 173 46.5t65 85t16 177.5v641q0 141 -5.5 202.5t-27.5 101t-69.5 56.5t-136.5 25v29l499 16h48q212 0 326.5 -59t149 -133.5t34.5 -145.5q0 -224 -254 -338l10 -16q104 -179 155.5 -261t134 -180.5t181.5 -168t221 -95.5l-6 -30q-73 3 -152.5 7.5 t-137.5 15t-110 36t-96 70.5q-59 61 -116.5 140t-103 156t-64.5 117q-27 59 -58 88t-60 37t-94 12.5t-87 8.5v-332q0 -102 6.5 -148.5t31.5 -77.5t80.5 -49t165.5 -34v-31h-719zM496 707q168 2 297 83t129 240q0 88 -35 153t-96.5 106.5t-135.5 60t-159 18.5v-661z" />
<glyph unicode="S" horiz-adv-x="1065" d="M49 432h37q44 -166 150 -280.5t264 -114.5q77 0 138 30t96.5 87t35.5 135q0 123 -76.5 194.5t-234 162t-237 172.5t-79.5 220q0 115 66.5 206t172.5 140.5t218 49.5q152 0 299 -80l-16 -312h-33q-30 155 -90 242.5t-199 87.5q-100 0 -169.5 -64t-69.5 -163 q0 -119 77 -190t240 -166.5t245.5 -181t82.5 -226.5q0 -126 -72.5 -218t-186.5 -140t-239 -48q-95 0 -189.5 27.5t-170.5 77.5z" />
<glyph unicode="T" horiz-adv-x="1393" d="M35 1083l28 387h17l20 -18q24 -21 40 -31t32.5 -12t54.5 -2h938q39 0 55.5 2t30.5 11t41 32l21 18h16l29 -387l-29 -6q-35 124 -86.5 181.5t-123 72.5t-210.5 15h-123v-957q0 -145 15.5 -209t74 -98t197.5 -51v-31h-754v31q141 17 198.5 50.5t73 98t15.5 209.5v957h-123 q-138 0 -210 -15t-123.5 -72.5t-86.5 -181.5z" />
<glyph unicode="U" horiz-adv-x="1720" d="M61 1376v31h707v-31q-105 -16 -158.5 -34.5t-77 -49t-30 -77t-6.5 -148.5v-424q0 -12 -0.5 -29t-1.5 -39q0 -108 34.5 -220t146 -198.5t316.5 -86.5q132 0 214 47.5t123 127t53 169t12 200.5q0 47 -0.5 75t-1.5 61v217q0 115 -8.5 181.5t-38 114t-93.5 76t-168 37.5v31 h594v-31q-69 -8 -109 -33.5t-59 -73t-26 -107t-13 -195.5l-12 -455q-3 -147 -55 -267.5t-178 -195t-340 -74.5q-242 0 -369 81t-165 194.5t-38 245.5q1 30 1.5 53.5t0.5 54.5v463q-3 123 -16 177t-64.5 84t-173.5 48z" />
<glyph unicode="V" horiz-adv-x="1434" d="M-55 1376v31h649v-31q-110 -11 -154.5 -47t-44.5 -92q0 -22 8 -53t22 -65.5t28 -67.5l327 -799l242 586q74 176 103.5 259.5t29.5 133.5q0 44 -23.5 71.5t-73.5 44t-138 29.5v31h577v-31q-72 -6 -121.5 -38.5t-90.5 -93t-75.5 -138t-91.5 -211.5l-391 -942h-29l-462 1118 q-49 116 -74.5 165t-78.5 89.5t-138 50.5z" />
<glyph unicode="W" horiz-adv-x="1925" d="M-55 1376v31h579v-31q-106 -16 -148 -49.5t-42 -87.5q0 -39 41 -176l215 -733l321 864q-21 62 -51 97.5t-72.5 54.5t-107.5 30v31h598v-31q-102 -14 -143 -47.5t-41 -85.5q0 -31 24 -117l260 -819l162 467q48 138 87.5 268.5t39.5 192.5q0 67 -47.5 92.5t-157.5 48.5v31 h535v-31q-87 -6 -139.5 -53t-88.5 -135l-143 -395l-301 -840h-22l-365 1149l-412 -1149h-20l-334 1155q-39 115 -53 148t-54.5 65t-119.5 55z" />
<glyph unicode="X" horiz-adv-x="1352" d="M0 0v31q117 11 189 50.5t112.5 92t124.5 186.5l192 310l-202 364q-77 139 -109.5 189t-99.5 99.5t-158 53.5v31h569v-31q-116 -24 -116 -94q0 -42 53 -139l174 -314q4 7 71.5 118.5t106.5 194t39 130.5q0 49 -34.5 70.5t-94.5 33.5v31h514v-31q-101 -10 -168.5 -48 t-116 -101t-122.5 -183l-164 -264l248 -434q59 -104 79.5 -137t60.5 -75t91.5 -67t128.5 -36v-31h-580v31q62 11 88.5 31.5t26.5 56.5t-24 86.5t-84 154.5l-148 263q-7 -15 -45 -82t-83.5 -148.5t-74 -147.5t-28.5 -102q0 -47 33.5 -68.5t99.5 -43.5v-31h-549z" />
<glyph unicode="Y" horiz-adv-x="1229" d="M-43 1376v31h565v-31q-129 -16 -129 -88q0 -37 49 -147l205 -449l178 342q82 154 82 230q0 50 -36 76.5t-113 35.5v31h526v-31q-125 -10 -202.5 -74t-149.5 -190l-242 -483v-234q2 -135 16 -200.5t69.5 -104t185.5 -59.5v-31h-721v31q131 21 185.5 59.5t68.5 104 t16 200.5v166l-213 469q-57 127 -89 184.5t-93.5 104t-157.5 57.5z" />
<glyph unicode="Z" horiz-adv-x="1434" d="M76 14l135 187l780 1145h-192q-88 0 -163.5 -2.5t-155 -12.5t-126.5 -31q-73 -33 -116.5 -114.5t-65.5 -186.5h-33l33 408h1088l10 -14l-908 -1332h195q175 0 302.5 11t225.5 53q79 32 132 94t84 138.5t51 170.5l30 -6q-27 -295 -118 -522h-1180z" />
<glyph unicode="[" horiz-adv-x="819" d="M180 -414q6 477 6 951t-6 948h459v-47l-320 -21v-1763l320 -21v-47h-459z" />
<glyph unicode="\" horiz-adv-x="573" d="M-29 1446l109 39l522 -1471l-108 -39z" />
<glyph unicode="]" horiz-adv-x="819" d="M180 -367l320 21v1763l-320 21v47h459q-6 -474 -6 -948t6 -951h-459v47z" />
<glyph unicode="^" d="M186 739l336 668h107l329 -668h-114l-271 541l-270 -541h-117z" />
<glyph unicode="_" horiz-adv-x="1024" d="M0 -201h1024v-98h-1024v98z" />
<glyph unicode="`" horiz-adv-x="696" d="M139 1380l97 101l305 -428l-29 -25z" />
<glyph unicode="a" horiz-adv-x="901" d="M70 664q0 22 37.5 67t98 92.5t127.5 80t128 32.5q90 0 144.5 -41.5t78 -110t23.5 -159.5v-293v-60q0 -75 10.5 -110.5t47.5 -57.5t120 -38v-31q-19 -5 -58 -16.5t-55.5 -15.5t-47.5 -8.5t-46 -4.5q-63 0 -92 33t-37 98q-122 -141 -260 -141q-94 0 -149.5 69t-55.5 166 q0 43 12 90l453 207q2 27 2 70q0 132 -48 190.5t-157 58.5q-81 0 -104 -30t-23 -99v-53l-102 -6q-47 0 -47 21zM258 246q0 -69 38 -116.5t105 -47.5q74 0 148 78v311l-277 -141q-14 -51 -14 -84z" />
<glyph unicode="b" d="M82 1374v21l235 90l23 -8v-658q213 117 342 117q108 0 196.5 -61t138.5 -161t50 -210q0 -170 -88.5 -289t-219.5 -177t-251 -58q-85 0 -154 18.5t-172 62.5v1125q0 50 -4.5 74.5t-26.5 51t-69 62.5zM340 420q0 -89 8.5 -151t34.5 -114.5t79 -82t136 -29.5q65 0 133 38 t115 123t47 218q0 93 -28 168t-78.5 129t-116 83t-140.5 29q-85 0 -190 -45v-366z" />
<glyph unicode="c" horiz-adv-x="901" d="M70 432q0 141 72.5 256.5t195 181.5t258.5 66q83 0 153 -21t70 -84q0 -34 -30 -64t-66 -30q-25 0 -43.5 13t-62.5 49t-75 53.5t-67 17.5q-112 0 -177 -106t-65 -225q0 -130 53 -230t140.5 -154.5t189.5 -54.5q60 0 106.5 20t104.5 62l25 -30q-148 -172 -360 -172 q-92 0 -168.5 35t-134 99t-88.5 146.5t-31 171.5z" />
<glyph unicode="d" d="M70 410q0 114 43.5 212t119.5 168t176.5 108t213.5 38q84 0 170 -23v273q0 50 -4.5 74.5t-26.5 51.5t-70 62v21l236 90l22 -8v-1213q0 -88 4 -125t22 -55t62 -18q14 0 84 8l8 -35l-337 -76v197q-82 -82 -163 -131t-175 -49q-80 0 -150.5 36.5t-123.5 98.5t-82 138.5 t-29 156.5zM244 508q0 -207 99.5 -316.5t227.5 -109.5q58 0 123 44t99 99v355q0 86 -27.5 143t-71 89t-89.5 45t-89 13q-132 0 -202 -110.5t-70 -251.5z" />
<glyph unicode="e" horiz-adv-x="942" d="M70 438q0 98 33.5 189.5t94 160.5t145.5 108.5t187 39.5q91 0 161 -37t110.5 -106t44.5 -162h-594l-8 -103q0 -181 99.5 -298t260.5 -117q144 0 242 129l31 -23q-62 -106 -162 -172.5t-215 -66.5q-123 0 -222 62.5t-153.5 167t-54.5 228.5zM258 670l393 16 q-16 83 -62.5 143t-121.5 60q-81 0 -134.5 -64.5t-74.5 -154.5z" />
<glyph unicode="f" horiz-adv-x="614" d="M39 807v20l166 97q3 215 82 340q62 100 155 160.5t199 60.5q44 0 101 -13.5t97 -45t40 -80.5q0 -47 -32 -68t-81 -21q-45 65 -104 114.5t-121 49.5q-108 0 -143.5 -127.5t-35.5 -275.5v-125h267v-86h-267v-567q0 -92 10.5 -129t49.5 -53t137 -27v-31h-518v31 q79 11 112 28.5t41.5 53.5t10.5 127v567h-166z" />
<glyph unicode="g" horiz-adv-x="1106" d="M80 -289q0 71 40.5 124t96 88t137.5 77q-74 9 -141.5 51.5t-67.5 106.5q0 40 39.5 79t116.5 103q-47 26 -86 66.5t-60.5 91t-21.5 106.5q0 78 32 140t88.5 105.5t123 65t141.5 21.5q70 0 131.5 -16.5t136.5 -51.5h293v-86l-250 6q41 -72 41 -161q0 -100 -53.5 -176 t-140.5 -116t-187 -40q-85 0 -153 29q-41 -41 -41 -86q0 -91 164 -91l262 11q113 0 189 -28.5t113.5 -78.5t37.5 -117q0 -101 -84.5 -202.5t-232.5 -166.5t-320 -65q-112 0 -191 33t-116 81.5t-37 96.5zM229 -207q0 -100 108 -146t224 -46q60 0 126 14t123 43t92.5 77 t35.5 113q0 166 -248 166q-30 0 -42.5 -0.5t-26.5 -1.5l-201 -12q-67 -29 -129 -87t-62 -120zM307 639q0 -95 32.5 -162.5t82.5 -101t100 -33.5q93 0 133.5 75.5t40.5 180.5q0 115 -53.5 203t-159.5 88q-91 0 -133.5 -75.5t-42.5 -174.5z" />
<glyph unicode="h" d="M29 0v31q65 10 92.5 20.5t42 30.5t19.5 56t5 102v946q0 50 -4.5 74.5t-26.5 51t-69 62.5v21l236 90l22 -8v-678q125 73 195 105t157 32q163 0 210.5 -95t47.5 -233v-368q0 -92 9 -129t40.5 -53t110.5 -27v-31h-477v31q78 11 109.5 28.5t40 53.5t10.5 127v237 q0 168 -42.5 259t-201.5 91q-60 0 -107.5 -17t-101.5 -52v-518q0 -92 8.5 -129t40.5 -53t111 -27v-31h-477z" />
<glyph unicode="i" horiz-adv-x="532" d="M18 0v31q78 11 109.5 28.5t40 53.5t10.5 127v395q0 72 -19 105t-106 83v21l260 92l23 -10v-686q0 -92 8.5 -129t40.5 -53t111 -27v-31h-478zM143 1325q0 43 31 75t74 32q44 0 74 -32t30 -75q0 -42 -30 -73t-74 -31q-43 0 -74 31t-31 73z" />
<glyph unicode="j" horiz-adv-x="532" d="M-53 -502q127 62 183 136t68.5 172.5t12.5 314.5v489q0 57 -5 83.5t-18.5 40t-54 30.5t-84.5 35v20l297 117l23 -10v-877q0 -139 -17 -227.5t-60.5 -153t-122.5 -112.5t-210 -93zM178 1325q0 43 31 75t74 32q44 0 74 -32t30 -75q0 -42 -30 -73t-74 -31q-43 0 -74 31 t-31 73z" />
<glyph unicode="k" horiz-adv-x="1024" d="M18 0v31q78 11 109.5 28.5t40 53.5t10.5 127v946q0 50 -4.5 74.5t-26.5 51t-69 62.5v21l235 90l23 -8v-1237q0 -92 8.5 -129t40.5 -53t111 -27v-31h-478zM360 502q59 72 114 137t78 99t23 59q0 41 -88 67v31l480 31v-31q-108 -20 -186 -61t-144 -103.5t-150 -161.5 l275 -317q83 -89 143 -142t135 -87v-23q-110 -14 -139 -14q-75 0 -154.5 55t-146.5 132.5t-123.5 158.5t-116.5 170z" />
<glyph unicode="l" horiz-adv-x="532" d="M18 0v31q78 11 109.5 28.5t40 53.5t10.5 127v946q0 50 -4.5 74.5t-26.5 51t-69 62.5v21l235 90l23 -8v-1237q0 -92 8.5 -129t40.5 -53t111 -27v-31h-478z" />
<glyph unicode="m" horiz-adv-x="1720" d="M41 0v31q59 10 85.5 20t40.5 31t18.5 58t4.5 100v395q0 72 -15.5 105t-84.5 83v21l244 92l22 -10l-16 -158q88 77 169 122.5t171 45.5q54 0 104 -20.5t89 -58.5t57 -89q91 78 170.5 123t169.5 45q112 0 171 -52t78 -127t19 -161q0 -32 -0.5 -49t-1.5 -37v-270 q0 -91 8 -128.5t36 -53.5t99 -27v-31h-450v31q59 10 85.5 20t40.5 31t18.5 58t4.5 100v219q1 15 1.5 28t0.5 41q0 299 -233 299q-61 0 -108.5 -24.5t-96.5 -75.5v-487q0 -91 8 -128.5t36 -53.5t99 -27v-31h-450v31q59 10 85.5 20t40.5 31t18.5 58t4.5 100v219v65 q0 79 -14.5 144.5t-65.5 112t-149 46.5q-107 0 -207 -102v-485q0 -91 8 -128.5t37 -53.5t99 -27v-31h-451z" />
<glyph unicode="n" d="M29 0v31q65 10 92.5 20.5t42 30.5t19.5 56t5 102v395q0 72 -15.5 105t-84.5 83v21l244 92l22 -10l-16 -150q109 80 189 120t171 40q163 0 210.5 -95t47.5 -233v-368q0 -92 9 -129t40.5 -53t110.5 -27v-31h-477v31q78 11 109.5 28.5t40 53.5t10.5 127v237q0 168 -42.5 259 t-201.5 91q-63 0 -110 -20t-99 -68v-499q0 -92 8.5 -129t40.5 -53t111 -27v-31h-477z" />
<glyph unicode="o" d="M70 453q0 141 68.5 250.5t185 171t251.5 61.5q140 0 255 -58t181 -167t66 -250q0 -103 -39 -191t-110.5 -154t-163 -101t-191.5 -35q-105 0 -196 32t-160 94.5t-108 151t-39 195.5zM260 467q0 -101 38 -204.5t112 -170.5t178 -67q98 0 165 63.5t100.5 159.5t33.5 192 q0 104 -34.5 208t-105.5 172.5t-176 68.5q-103 0 -173.5 -63t-104 -160.5t-33.5 -198.5z" />
<glyph unicode="p" horiz-adv-x="1106" d="M0 -469q75 13 103 29.5t36.5 52.5t10.5 127v895q0 72 -15 105t-86 83v21l244 100l22 -8l-8 -127q184 127 326 127q112 0 201 -61t137.5 -160.5t48.5 -212.5q0 -130 -73 -250.5t-205 -196t-298 -75.5l-137 6v-246q0 -93 11.5 -129t55 -51.5t156.5 -28.5v-31h-530v31z M307 348q0 -126 47.5 -215.5t206.5 -89.5q94 0 158.5 58t95.5 148t31 183q0 110 -36.5 189t-90.5 124t-112.5 65.5t-106.5 20.5q-56 0 -102 -14t-91 -45v-424z" />
<glyph unicode="q" d="M74 422q0 108 46.5 202.5t125 164.5t178.5 108.5t203 38.5q148 0 272 -94l45 94h19v-1196q2 -81 5 -107.5t17.5 -48t42.5 -32.5t84 -21v-31h-514v31q104 13 145 28.5t51.5 51.5t10.5 129v354q-170 -114 -318 -114q-120 0 -214.5 59t-146.5 160t-52 223zM248 494 q0 -186 109 -299t272 -113q106 0 176 51v408q0 149 -71 239t-208 90q-94 0 -156 -56t-92 -142t-30 -178z" />
<glyph unicode="r" horiz-adv-x="737" d="M29 0v31q59 10 85.5 20t40.5 31t18.5 58t4.5 100v395q0 72 -15.5 105t-84.5 83v21l244 92l22 -10l-8 -244h4q23 57 68.5 117.5t103 98.5t117.5 38q44 0 74 -26.5t30 -69.5q0 -38 -33.5 -74.5t-72.5 -56.5q-86 69 -131 69q-98 -9 -129 -108t-31 -221v-209q0 -92 10.5 -129 t51 -53t143.5 -27v-31h-512z" />
<glyph unicode="s" horiz-adv-x="737" d="M66 285l47 8q24 -108 84 -184t159 -76q70 0 114 47.5t44 116.5q0 79 -50 120.5t-158 97.5t-162 111.5t-54 153.5q0 76 42 135t109.5 90t143.5 31q37 0 79 -8t77.5 -23t70.5 -39l6 -184l-45 -8q-28 95 -70 153t-120 58q-63 0 -99 -41t-36 -103q0 -68 51 -112t157 -102 t161 -113.5t55 -147.5q0 -88 -49 -153t-127 -99t-164 -34q-144 0 -250 75z" />
<glyph unicode="t" horiz-adv-x="696" d="M39 821l287 287h18v-215h324v-86h-324v-442q0 -115 11.5 -174t59.5 -93.5t154 -34.5q62 0 121 15l8 -33q-170 -65 -323 -65q-87 0 -127 26t-51 70.5t-11 124.5v43v563h-137z" />
<glyph unicode="u" d="M29 856v31l309 26v-510v-53q0 -68 14 -126.5t62 -100t139 -41.5q123 0 225 92v444q0 107 -9.5 151.5t-48.5 65.5t-130 21v31l358 26l-12 -684q0 -41 -2 -59q0 -44 17 -69t67 -25l94 8l8 -31l-348 -84l6 162q-96 -71 -184 -111t-186 -40q-104 0 -154.5 51.5t-62 114 t-11.5 133.5v362v70q0 81 -27 113t-124 32z" />
<glyph unicode="v" horiz-adv-x="942" d="M-29 883v30h424v-30q-114 0 -114 -62q0 -11 4.5 -28t5 -20t8.5 -24.5t16 -41.5l207 -506l90 219q123 305 123 385q0 44 -31.5 56t-97.5 22v30h357v-30q-45 0 -80.5 -26t-59 -65t-45 -90t-37.5 -90l-268 -632h-35l-299 727q-19 49 -29 74t-27 48t-44 37t-68 17z" />
<glyph unicode="w" horiz-adv-x="1475" d="M-29 883v30h432v-30q-116 -3 -116 -66q0 -20 28 -102l197 -506l193 459q-38 98 -54.5 133.5t-45 54t-87.5 27.5v30h438v-30q-125 -5 -125 -68q0 -16 17 -67l201 -539q96 214 160.5 375.5t64.5 224.5q0 44 -27 55.5t-88 18.5v30h346v-30q-55 -4 -88.5 -28.5t-53.5 -59 t-48 -97.5l-320 -718h-28l-244 628l-256 -628h-31l-295 737q-24 59 -40 89.5t-46.5 52t-83.5 24.5z" />
<glyph unicode="x" horiz-adv-x="983" d="M25 0v31q81 16 124 36.5t73.5 54.5t80.5 105l127 185l-160 270q-42 72 -67.5 109.5t-67 61.5t-110.5 30v30h442v-30q-84 -8 -84 -54q0 -24 29 -73l114 -207q21 35 43 72t40.5 70t33 68.5t14.5 57.5q0 29 -18 46t-47 20v30h342v-30q-59 -5 -92 -14.5t-72 -43.5 q-43 -35 -89 -102.5t-132 -204.5l162 -276q42 -72 68.5 -110t69.5 -65.5t109 -35.5v-31h-432v31q76 11 76 53q0 27 -37 92l-114 205q-6 -10 -50.5 -83.5t-71 -127t-26.5 -80.5q0 -48 62 -59v-31h-340z" />
<glyph unicode="y" horiz-adv-x="942" d="M-29 883v30h424v-30q-110 -5 -110 -78q0 -39 37 -131l200 -524l127 372q70 203 70 264q0 46 -27 68t-86 29v30h359v-30q-45 -6 -72 -20t-46 -39t-40 -66l-86 -201l-315 -801q-36 -93 -69.5 -150t-66.5 -81.5t-75 -24.5t-71.5 29.5t-29.5 73.5q0 33 17.5 59.5t48.5 38.5 q84 -59 108 -59q20 0 39 26.5t34.5 62.5t23.5 54l67 160l-313 809q-28 72 -52.5 95t-95.5 34z" />
<glyph unicode="z" horiz-adv-x="983" d="M72 16q64 89 139 194t148.5 210t145.5 210t157 230h-54q-158 0 -229.5 -4.5t-112.5 -23t-64 -60.5t-40 -127l-37 6l22 262h740l8 -14q-87 -119 -202.5 -280t-203.5 -288.5t-184 -277.5h141q156 0 232 14.5t130 76.5t87 202l35 -6l-80 -340h-768z" />
<glyph unicode="{" horiz-adv-x="819" d="M205 541q87 24 114 80t27 186v383q0 113 24.5 176.5t83 91t164.5 27.5v-4q-80 -27 -110.5 -85t-30.5 -169v-381q0 -137 -29 -209t-124 -94v-4q153 -20 153 -285v-410q0 -110 30 -167.5t111 -86.5v-4q-106 0 -164.5 27.5t-83 91t-24.5 176.5v412q0 79 -15 127t-43.5 72.5 t-82.5 48.5z" />
<glyph unicode="|" horiz-adv-x="573" d="M231 0v1485h111v-1485h-111z" />
<glyph unicode="}" horiz-adv-x="819" d="M242 -410q81 29 111 86t30 168v381q0 88 10.5 148t44.5 100.5t99 56.5v5q-76 9 -115 77.5t-39 204.5v410q0 112 -30 169.5t-111 84.5v4q107 0 165 -27.5t82.5 -91.5t24.5 -176v-412q0 -79 15 -126t43.5 -71.5t82.5 -48.5q-61 -18 -90.5 -48.5t-40 -80.5t-10.5 -139v-383 q0 -112 -24.5 -176t-82.5 -91.5t-165 -27.5v4z" />
<glyph unicode="~" d="M86 385q63 96 123.5 146.5t155.5 50.5q47 0 101.5 -17.5t144.5 -53t120 -46t66 -10.5q59 0 98.5 34t79.5 97l84 -51q-64 -94 -120 -140.5t-140 -46.5q-49 0 -88.5 13t-113.5 46.5t-125.5 49.5t-111.5 16q-65 0 -106 -37t-86 -106z" />
<glyph horiz-adv-x="0" d="M-940 264q2 89 61 156t152 67q23 0 36 -13t13 -36q0 -28 -48 -49.5t-71.5 -41.5t-23.5 -81q0 -65 49 -100t123 -35q2 1 4 1.5t4 0.5q70 0 138.5 26t113.5 75t45 114q0 50 -30 107t-88 143.5t-88 150.5t-30 130q0 202 197 376q89 81 204 138t218 57q70 0 117 -37t47 -106 q0 -22 -6 -43q88 80 202 136t219 56q71 0 117.5 -37t46.5 -106q0 -84 -61.5 -166t-145.5 -148q-65 -51 -141.5 -96t-126.5 -45q-19 0 -38 14t-19 33l2 4q0 40 70 66q110 36 206 110q73 59 109.5 113t36.5 92q0 31 -19 48.5t-53 17.5q-65 0 -150 -40t-147 -89 q-76 -58 -134 -146.5t-58 -173.5q0 -70 30.5 -134t90.5 -155.5t91 -151t31 -116.5q0 -92 -64 -164.5t-162 -111.5t-187 -39q-191 0 -262 110q-61 -54 -149.5 -85t-168.5 -31q-102 0 -170.5 33t-100.5 87t-32 115zM-467 901q0 -55 20.5 -108t45 -94t76.5 -123t69 -119 q61 37 109 37q21 0 35 -14t14 -36q0 -19 -12.5 -29.5t-40 -21t-46.5 -22t-32 -36t-13 -77.5q4 -57 53.5 -89t118.5 -32q2 1 4 1.5t5 0.5q70 0 138.5 26t113.5 75t45 114q0 50 -30 107t-88 143.5t-88 150.5t-30 130q0 69 23 135q-5 -4 -14 -14t-13 -13q-65 -51 -142.5 -96 t-125.5 -45q-20 0 -39 14t-19 33l2 4q0 40 70 66q108 35 207 110q72 60 108.5 113.5t36.5 91.5q0 31 -19 48.5t-52 17.5q-64 0 -148.5 -39.5t-148.5 -89.5q-78 -59 -135.5 -147t-57.5 -173zM360 86q0 60 68 212t151 281.5t115 129.5q16 0 27.5 -10.5t11.5 -28.5 q0 -15 -55.5 -101t-110.5 -193t-98 -251q-14 -50 -24 -69t-39 -19q-20 0 -33 15t-13 34zM766 954q0 26 21 62t50.5 62t55.5 26q24 0 36.5 -13.5t12.5 -35.5q0 -27 -21.5 -63.5t-51.5 -62.5t-56 -26q-47 0 -47 51z" />
<glyph unicode="&#xa1;" horiz-adv-x="655" d="M209 821q0 47 32 81t78 34t79.5 -34.5t33.5 -80.5q0 -44 -34 -78t-79 -34t-77.5 33.5t-32.5 78.5zM223 -377l8 131l74 731h39l74 -731l8 -131q0 -58 -24 -101.5t-76 -43.5q-54 0 -78.5 43t-24.5 102z" />
<glyph unicode="&#xa2;" d="M147 686q0 134 61.5 241t167 170t238.5 79v196h50v-196q183 -9 288 -62l21 -237h-35q-25 75 -59.5 128.5t-88 86.5t-126.5 36v-862q205 0 294 264l35 -10l-55 -246q-155 -53 -274 -53v-192h-50v192q-133 17 -239 74.5t-167 156.5t-61 234zM322 725q0 -94 33.5 -192 t99.5 -170.5t159 -96.5v862q-69 -4 -125.5 -42.5t-93.5 -99t-55 -127.5t-18 -134z" />
<glyph unicode="&#xa3;" d="M-63 115q0 94 208 94h48q51 92 85 201t58 237h-193v62h209q33 201 103 370t188 275t281 106q86 0 157.5 -46.5t71.5 -131.5q0 -53 -35 -89t-92 -36q-28 0 -55 8q24 52 24 105q0 61 -29.5 102t-80.5 41q-79 0 -141.5 -78t-106 -195.5t-74 -249t-41.5 -181.5h269v-62h-279 q-61 -266 -233 -454l327 -74q60 -16 99 -26.5t83 -18.5t91 -8q72 0 113.5 21.5t58 50t16.5 52.5q0 19 -8.5 32t-27 34t-26.5 37.5t-8 40.5q0 31 18.5 52.5t47.5 21.5q40 0 57 -35t17 -82q0 -89 -53 -169t-139 -127.5t-175 -47.5q-47 0 -108 11.5t-124 31t-110 35.5l-240 81 q-95 -73 -168 -73q-40 0 -61.5 22.5t-21.5 59.5z" />
<glyph unicode="&#xa4;" d="M137 258l103 104q-50 66 -74.5 138.5t-24.5 146.5q0 155 99 275l-103 102l56 55l100 -100q62 49 137.5 74.5t153.5 25.5q165 0 268 -100l100 100l56 -55l-101 -102q97 -121 97 -277q0 -72 -24 -144t-73 -139l101 -104l-56 -53l-100 100q-118 -98 -277 -98q-161 0 -282 98 l-100 -100zM250 643q0 -90 42.5 -168t116 -124t162.5 -46q68 0 127.5 26t103.5 72t68.5 107t24.5 129q0 93 -41.5 171.5t-115.5 124.5t-165 46q-88 0 -163 -46t-117.5 -124.5t-42.5 -167.5z" />
<glyph unicode="&#xa5;" d="M-31 1376v31h559v-31q-135 -21 -135 -96q0 -16 6 -37.5t19 -49.5t24 -52l142 -307l155 307q41 77 41 125q0 91 -153 110v31h524v-31q-86 -7 -149 -40t-108.5 -86t-88.5 -138l-146 -278h287v-62h-321v-190h307v-62h-307v-127q0 -100 7 -158.5t32.5 -101.5t80 -67 t152.5 -35v-31h-715v31q129 21 185 59t70 102.5t14 200.5v127h-297v62h297v133l-25 57h-285v62h258l-98 210q-38 81 -64 131.5t-61 93.5t-87.5 71.5t-119.5 35.5z" />
<glyph unicode="&#xa6;" horiz-adv-x="573" d="M231 0v557h111v-557h-111zM231 928v557h111v-557h-111z" />
<glyph unicode="&#xa7;" horiz-adv-x="1106" d="M111 -285q0 55 37 94t92 39q47 0 80.5 -32.5t33.5 -83.5q0 -45 -24 -90q38 -58 110 -58q75 0 123.5 60.5t48.5 138.5q0 95 -58 181.5t-183.5 238.5t-190.5 274t-65 266q0 118 50 244t139 233.5t203 171.5t232 64q60 0 121 -22.5t100 -66.5t39 -107q0 -55 -36.5 -97.5 t-90.5 -42.5q-44 0 -78 32t-34 83q0 45 33 98q-37 31 -62.5 46.5t-62.5 15.5q-78 0 -125 -65.5t-47 -147.5q0 -91 51.5 -164t187 -232.5t203.5 -284.5t68 -270q0 -121 -52 -249t-142.5 -231.5t-208 -165.5t-245.5 -62q-64 0 -119.5 20.5t-91.5 63.5t-36 108zM238 891 q0 -142 66 -261.5t196.5 -277.5t196 -264t65.5 -221q0 -47 -21 -121q136 126 136 336q0 150 -68 272t-198 276t-193.5 259.5t-63.5 238.5l4 78q-61 -59 -90.5 -141t-29.5 -174z" />
<glyph unicode="&#xa8;" horiz-adv-x="860" d="M137 1190q0 40 29 68t70 28q40 0 68 -28t28 -68t-27.5 -70t-68.5 -30q-42 0 -70.5 30t-28.5 70zM528 1190q0 40 29 68t68 28t68.5 -27.5t29.5 -68.5q0 -40 -29 -70t-69 -30t-68.5 30t-28.5 70z" />
<glyph unicode="&#xa9;" horiz-adv-x="1556" d="M72 700q0 145 55 280.5t151.5 236t226.5 158t273 57.5q146 0 277.5 -56t230.5 -156t154 -234t55 -286q0 -150 -55.5 -282.5t-155.5 -231.5t-231 -155t-277 -56q-141 0 -270 56.5t-227 158t-152.5 235t-54.5 275.5zM174 705q0 -178 80.5 -327t221 -235t315.5 -86 q127 0 238.5 51t192 139.5t126 208.5t45.5 249q0 135 -45.5 253t-129.5 206t-197 137t-243 49q-168 0 -306.5 -87t-218 -236.5t-79.5 -321.5zM356 700q0 101 31 184.5t88.5 143.5t137.5 92.5t180 32.5q116 0 301 -61v-232h-62q-5 70 -31.5 119.5t-76 77.5t-115.5 28 q-95 0 -160.5 -50t-97 -133t-31.5 -175q0 -99 35 -187t104.5 -144t165.5 -56q77 0 138.5 43t99.5 106l53 -16q-37 -98 -138.5 -154.5t-209.5 -56.5q-122 0 -216.5 57.5t-145 158.5t-50.5 222z" />
<glyph unicode="&#xaa;" horiz-adv-x="1106" d="M227 580v77h660v-77h-660zM258 1229q0 26 48.5 76t116.5 88.5t120 38.5q182 0 182 -238v-197v-51q0 -49 7.5 -72.5t32.5 -38t91 -30.5v-33q-16 -5 -51 -17.5t-57.5 -18t-45.5 -5.5q-86 0 -96 94q-87 -94 -184 -94q-73 0 -113.5 52.5t-40.5 127.5q0 33 11 66l325 147 q0 116 -24 166.5t-117 50.5q-59 0 -71.5 -25.5t-12.5 -101.5l-82 -6q-39 0 -39 21zM406 928q0 -47 25 -79t71 -32q51 0 102 51v211l-190 -94q-8 -36 -8 -57z" />
<glyph unicode="&#xab;" horiz-adv-x="1024" d="M121 514l340 322q49 49 55 49q7 0 10.5 -4.5t3.5 -12.5q0 -36 -86 -152t-157 -202q26 -28 90.5 -109t113 -150t48.5 -87t-17 -18q-12 0 -57 49zM483 514l340 322q13 14 30.5 31.5t25.5 17.5q7 0 10.5 -4.5t3.5 -12.5q0 -34 -81.5 -145t-162.5 -209q26 -28 90.5 -109 t113 -150t48.5 -87t-16 -18q-8 0 -19 9t-24 23.5t-15 16.5z" />
<glyph unicode="&#xac;" d="M119 539v110h907v-473h-111v363h-796z" />
<glyph unicode="&#xad;" horiz-adv-x="737" d="M139 467v100h447v-100h-447z" />
<glyph unicode="&#xae;" horiz-adv-x="1556" d="M72 700q0 145 55 280.5t151.5 236t226.5 158t273 57.5q146 0 277.5 -56t230.5 -156t154 -234t55 -286q0 -150 -55.5 -282.5t-155.5 -231.5t-231 -155t-277 -56q-141 0 -270 56.5t-227 158t-152.5 235t-54.5 275.5zM174 705q0 -178 80.5 -327t221 -235t315.5 -86 q127 0 238.5 51t192 139.5t126 208.5t45.5 249q0 135 -45.5 253t-129.5 206t-197 137t-243 49q-168 0 -306.5 -87t-218 -236.5t-79.5 -321.5zM438 283v45q50 0 74.5 12.5t24.5 42.5v661q0 34 -25.5 45t-73.5 11v45h340q107 0 179.5 -19t112.5 -66.5t40 -127.5 q0 -94 -69 -158t-160 -72v-4q51 -3 92 -53.5t88 -157.5q32 -71 50 -102t40 -44.5t57 -14.5v-43h-55q-64 0 -95 5.5t-50.5 23t-40.5 63t-43 96.5q-40 92 -57 124.5t-52.5 57.5t-95.5 25q-29 0 -43 -2v-293q0 -30 24.5 -42.5t73.5 -12.5v-45h-336zM676 731h31q127 0 196.5 35 t69.5 152q0 182 -197 182q-49 0 -67.5 -4t-25.5 -22.5t-7 -63.5v-279z" />
<glyph unicode="&#xaf;" horiz-adv-x="901" d="M137 1176v110h627v-110h-627z" />
<glyph unicode="&#xb0;" horiz-adv-x="819" d="M102 1120q0 84 41.5 155.5t113 114t153.5 42.5q61 0 118 -24t99.5 -68t66 -101t23.5 -119q0 -83 -42 -154.5t-112.5 -113t-152.5 -41.5q-83 0 -154.5 42t-112.5 113t-41 154zM184 1120q0 -94 66.5 -160.5t159.5 -66.5q61 0 112.5 30.5t82 83t30.5 113.5q0 62 -31 114.5 t-83.5 84t-112.5 31.5q-92 0 -158 -68t-66 -162z" />
<glyph unicode="&#xb1;" d="M121 0v113h905v-113h-905zM121 496v112h397v305h111v-305h397v-112h-397v-306h-111v306h-397z" />
<glyph unicode="&#xb2;" horiz-adv-x="688" d="M20 590q73 54 153 121t147.5 139.5t112 153.5t44.5 157q0 70 -48 119t-124 49q-60 0 -110.5 -29t-106.5 -83l-18 14q49 87 121.5 144t164.5 57q71 0 127 -33.5t85.5 -89.5t29.5 -121q0 -88 -63 -179t-142.5 -161.5t-208.5 -173.5h246q70 0 104 11t56 38t59 90l19 -8 l-95 -232h-544z" />
<glyph unicode="&#xb3;" horiz-adv-x="688" d="M63 698q0 35 25 57.5t59 22.5q25 0 52 -14v-25q0 -57 39 -97t100 -40q75 0 119.5 51.5t44.5 124.5q0 82 -71.5 130t-166.5 48q-41 0 -96 -10l-10 17q34 25 56 42.5t38.5 26t38.5 12.5l24 7q59 19 105.5 66.5t46.5 105.5q0 53 -41.5 82.5t-99.5 29.5q-109 0 -207 -94 l-25 14q55 85 122.5 131t164.5 46q52 0 99.5 -20.5t77.5 -59t30 -90.5q0 -78 -62 -126t-166 -92v-4q75 -6 134 -32t94 -73t35 -114q0 -75 -48.5 -135t-125.5 -93.5t-154 -33.5q-83 0 -157.5 35t-74.5 104z" />
<glyph unicode="&#xb4;" horiz-adv-x="696" d="M156 1053l305 428l96 -101l-373 -352z" />
<glyph unicode="&#xb5;" d="M29 856v31l309 26v-510v-53q0 -68 14 -126.5t62 -100t139 -41.5q123 0 225 92v444q0 107 -9.5 151.5t-48.5 65.5t-130 21v31l358 26l-12 -684q0 -41 -2 -59q0 -44 17 -69t67 -25l94 8l8 -31l-348 -84l6 162q-203 -151 -346 -151q-69 0 -118 30.5t-68 79.5h-4v-240 q0 -19 13.5 -62t26.5 -85.5t13 -62.5q0 -37 -10 -68.5t-29 -51.5t-45 -20q-37 0 -60.5 43t-23.5 97q0 19 13.5 62t26.5 85.5t13 62.5v791v70q0 81 -27 113t-124 32z" />
<glyph unicode="&#xb6;" horiz-adv-x="1229" d="M61 1026q0 143 93 229t230.5 121t274.5 35h148l371 -18v-31q-114 -12 -163 -40.5t-63 -83.5t-14 -161v-98v-1065q0 -131 16 -194.5t69 -94.5t169 -49v-31h-365v1815h-122v-1815h-392v31q102 16 156 35.5t81 54t35.5 88.5t8.5 160v692q-225 28 -379 125t-154 295z" />
<glyph unicode="&#xb8;" horiz-adv-x="614" d="M143 -367q0 22 12.5 37t32.5 15t38 -8.5t40 -24t38.5 -23.5t35.5 -8q20 0 32.5 11.5t12.5 31.5q0 21 -20 49t-58 70t-51.5 62t-13.5 44q0 52 104 111h57q-27 -24 -39 -36.5t-12 -31.5t40 -62t59.5 -69t19.5 -63q0 -38 -32.5 -83t-82 -75.5t-98.5 -30.5q-41 0 -78 23 t-37 61z" />
<glyph unicode="&#xb9;" horiz-adv-x="688" d="M98 588v30q92 9 130.5 29.5t47.5 58t11 123.5v390q0 68 -9.5 101.5t-49 52.5t-126.5 28v31h310q-7 -197 -8 -305.5t-1 -297.5q2 -91 10.5 -126t47.5 -55.5t131 -29.5v-30h-494z" />
<glyph unicode="&#xba;" horiz-adv-x="1106" d="M188 1073q0 78 29.5 145t80.5 114.5t119 73.5t144 26q161 0 263 -98t102 -259q0 -72 -29.5 -135.5t-83 -111.5t-118.5 -72.5t-138 -24.5q-102 0 -186 41.5t-133.5 120t-49.5 180.5zM227 580v77h660v-77h-660zM336 1087q0 -68 27 -140.5t80 -120.5t124 -48q68 0 116 45.5 t71.5 112t23.5 133.5q0 74 -24 146t-74.5 120.5t-124.5 48.5q-71 0 -121 -43.5t-74 -112.5t-24 -141z" />
<glyph unicode="&#xbb;" horiz-adv-x="1024" d="M123 862q0 19 16 19q10 0 29 -19t29 -31l344 -317l-340 -319q-44 -50 -56 -50q-14 0 -14 17q0 27 46 95t96.5 132t101.5 125q-34 39 -94.5 115t-109 145.5t-48.5 87.5zM485 862q0 7 5 13t12 6q12 0 57 -50l344 -317l-340 -319q-44 -50 -55 -50q-14 0 -14 17q0 27 46 95 t96.5 132.5t100.5 124.5q-34 39 -94.5 115t-109 145.5t-48.5 87.5z" />
<glyph unicode="&#xbc;" horiz-adv-x="1720" d="M84 563v31q92 9 130 29t47 57.5t11 124.5v389q0 69 -9.5 102.5t-47 52t-127.5 27.5v31h309q-8 -231 -8 -602q2 -77 5.5 -105t20 -51t55 -35.5t108.5 -19.5v-31h-494zM442 0l783 1407h98l-782 -1407h-99zM952 293l469 571l43 -14q-10 -203 -10 -506h180v-82h-180v-51 q0 -66 7.5 -97t41.5 -51t113 -32v-31h-445v31q82 12 117 32t43 51t8 97v51h-381zM1051 344h288v350z" />
<glyph unicode="&#xbd;" horiz-adv-x="1720" d="M102 563v31q91 9 130 29t48 57.5t11 124.5v389q0 69 -9.5 102.5t-47 52t-128.5 27.5v31h310q-8 -231 -8 -602q2 -91 10.5 -126.5t47 -55.5t130.5 -29v-31h-494zM420 0l782 1407h98l-782 -1407h-98zM971 16q116 87 213.5 175t170 194t72.5 203q0 71 -47.5 120.5 t-124.5 49.5q-61 0 -112.5 -31.5t-104.5 -83.5l-18 14q49 89 121.5 145t165.5 56q74 0 128.5 -33.5t83.5 -89t29 -121.5q0 -124 -109.5 -241t-303.5 -273h245q71 0 105 11.5t53.5 36t60.5 92.5l19 -9l-94 -231h-545z" />
<glyph unicode="&#xbe;" horiz-adv-x="1720" d="M102 698q0 35 25 57.5t59 22.5q25 0 52 -14v-25q0 -57 39 -97t100 -40q75 0 119.5 51.5t44.5 124.5q0 82 -71.5 130t-166.5 48q-41 0 -96 -10l-10 17q34 25 56 42.5t38.5 26t38.5 12.5l24 7q59 19 105.5 66.5t46.5 105.5q0 53 -41.5 82.5t-99.5 29.5q-109 0 -207 -94 l-25 14q55 85 122.5 131t164.5 46q52 0 99.5 -20.5t77.5 -59t30 -90.5q0 -78 -62 -126t-166 -92v-4q75 -6 134 -32t94 -73t35 -114q0 -54 -29 -104t-75.5 -84.5t-106.5 -54t-117 -19.5q-83 0 -157.5 35t-74.5 104zM453 0l782 1407h98l-782 -1407h-98zM936 293l469 571 l43 -14q-10 -203 -10 -506h180v-82h-180v-51q0 -66 7.5 -97t41.5 -51t112 -32v-31h-444v31q82 12 117 32t43 51t8 97v51h-381zM1034 344h289v350z" />
<glyph unicode="&#xbf;" horiz-adv-x="737" d="M178 10q0 168 38.5 230t120 78.5t116.5 37.5t45 117l10 94h39l16 -227q0 -93 -43.5 -132t-131.5 -61t-124.5 -40t-36.5 -78q0 -49 41.5 -87.5t122 -86t111.5 -76.5q49 -46 49 -123q0 -60 -35 -178l-35 10q-3 64 -29 93.5t-96 76.5q-65 47 -91.5 68.5t-47.5 56.5t-30 86.5 t-9 140.5zM373 821q0 47 32 81t78 34t79.5 -34.5t33.5 -80.5q0 -44 -34 -78t-79 -34t-77.5 33.5t-32.5 78.5z" />
<glyph unicode="&#xc0;" horiz-adv-x="1393" d="M-51 0v31q89 24 134 51t69 68t61 133l231 610l123 338q31 81 31 106q0 24 -8 37q86 36 149 111l451 -1213q31 -84 57 -127.5t70.5 -71t126.5 -42.5v-31h-602v31q72 16 114.5 43.5t42.5 89.5q0 30 -12.5 80t-29 100t-41 117t-48.5 129h-467q-29 -81 -57 -159.5t-48 -146 t-20 -112.5q0 -44 22.5 -71t59 -40.5t74.5 -19t78 -10.5v-31h-561zM436 684h406l-213 539zM487 1872l97 100l305 -428l-29 -24z" />
<glyph unicode="&#xc1;" horiz-adv-x="1393" d="M-51 0v31q89 24 134 51t69 68t61 133l231 610l123 338q31 81 31 106q0 24 -8 37q86 36 149 111l451 -1213q31 -84 57 -127.5t70.5 -71t126.5 -42.5v-31h-602v31q72 16 114.5 43.5t42.5 89.5q0 30 -12.5 80t-29 100t-41 117t-48.5 129h-467q-29 -81 -57 -159.5t-48 -146 t-20 -112.5q0 -44 22.5 -71t59 -40.5t74.5 -19t78 -10.5v-31h-561zM436 684h406l-213 539zM504 1544l305 428l96 -100l-373 -352z" />
<glyph unicode="&#xc2;" horiz-adv-x="1393" d="M-51 0v31q89 24 134 51t69 68t61 133l231 610l123 338q31 81 31 106q0 24 -8 37q86 36 149 111l451 -1213q31 -84 57 -127.5t70.5 -71t126.5 -42.5v-31h-602v31q72 16 114.5 43.5t42.5 89.5q0 30 -12.5 80t-29 100t-41 117t-48.5 129h-467q-29 -81 -57 -159.5t-48 -146 t-20 -112.5q0 -44 22.5 -71t59 -40.5t74.5 -19t78 -10.5v-31h-561zM436 684h406l-213 539zM459 1534l229 483h19l227 -483l-29 -14l-211 301l-202 -301z" />
<glyph unicode="&#xc3;" horiz-adv-x="1393" d="M-51 0v31q89 24 134 51t69 68t61 133l231 610l123 338q31 81 31 106q0 24 -8 37q86 36 149 111l451 -1213q31 -84 57 -127.5t70.5 -71t126.5 -42.5v-31h-602v31q72 16 114.5 43.5t42.5 89.5q0 30 -12.5 80t-29 100t-41 117t-48.5 129h-467q-29 -81 -57 -159.5t-48 -146 t-20 -112.5q0 -44 22.5 -71t59 -40.5t74.5 -19t78 -10.5v-31h-561zM315 1669q165 113 236 113q28 0 68.5 -15.5t83 -35t94 -40t80.5 -20.5q42 0 90 28t86 66l22 -22q-43 -47 -87 -83.5t-94.5 -61.5t-96.5 -25q-34 0 -71.5 14.5t-90 40t-96 43t-74.5 17.5q-50 0 -131 -48z M436 684h406l-213 539z" />
<glyph unicode="&#xc4;" horiz-adv-x="1393" d="M-51 0v31q89 24 134 51t69 68t61 133l231 610l123 338q31 81 31 106q0 24 -8 37q86 36 149 111l451 -1213q31 -84 57 -127.5t70.5 -71t126.5 -42.5v-31h-602v31q72 16 114.5 43.5t42.5 89.5q0 30 -12.5 80t-29 100t-41 117t-48.5 129h-467q-29 -81 -57 -159.5t-48 -146 t-20 -112.5q0 -44 22.5 -71t59 -40.5t74.5 -19t78 -10.5v-31h-561zM403 1681q0 39 29 68t70 29q40 0 68 -29t28 -68q0 -40 -27.5 -70t-68.5 -30q-42 0 -70.5 30t-28.5 70zM436 684h406l-213 539zM795 1681q0 39 29 68t67 29q39 0 68.5 -28.5t29.5 -68.5t-29 -70t-69 -30 q-39 0 -67.5 30t-28.5 70z" />
<glyph unicode="&#xc5;" horiz-adv-x="1393" d="M-51 0v31q89 24 134 51t69 68t61 133l231 610l123 338q31 81 31 106q0 24 -8 37q86 36 149 111l451 -1213q31 -84 57 -127.5t70.5 -71t126.5 -42.5v-31h-602v31q72 16 114.5 43.5t42.5 89.5q0 30 -12.5 80t-29 100t-41 117t-48.5 129h-467q-29 -81 -57 -159.5t-48 -146 t-20 -112.5q0 -44 22.5 -71t59 -40.5t74.5 -19t78 -10.5v-31h-561zM436 684h406l-213 539zM514 1696q0 49 24.5 90.5t66 66.5t89.5 25q50 0 91.5 -24t66.5 -66.5t25 -91.5q0 -79 -54 -132t-129 -53q-73 0 -126.5 54.5t-53.5 130.5zM580 1696q0 -51 33 -92t81 -41 q50 0 83.5 41t33.5 92q0 49 -33.5 90t-83.5 41q-34 -2 -59.5 -20.5t-40 -48t-14.5 -62.5z" />
<glyph unicode="&#xc6;" horiz-adv-x="1966" d="M-55 0v31q74 19 114 43.5t80 83.5l203 317l379 606q53 88 75.5 133.5t22.5 75.5q0 41 -38 59.5t-132 26.5v31h1106l-31 -315h-30q-8 122 -60 181t-127.5 72t-212.5 13h-174v-604h172q89 0 148.5 12t98 54.5t48.5 125.5h31v-463h-39q-7 86 -43.5 125.5t-90.5 48.5t-153 9 h-172v-279v-59q0 -72 7.5 -117.5t35.5 -83.5t86 -58t158 -20q99 0 171.5 21.5t123 65.5t84.5 110.5t55 159.5h31q-4 -89 -25 -194t-51 -212h-1094v31q115 22 164.5 55t61.5 84.5t12 169.5v326h-399l-62 -111q-27 -49 -76.5 -141.5t-85.5 -172t-36 -112.5q0 -37 32 -55.5 t93.5 -29.5t68.5 -13v-31h-530zM594 754h346v579h-4z" />
<glyph unicode="&#xc7;" horiz-adv-x="1516" d="M111 690q0 140 53.5 273t159 239t261 168t351.5 62q262 0 448 -113v-338h-30q-21 122 -73 211t-140.5 139.5t-206.5 50.5q-137 0 -247 -53t-185.5 -146t-114.5 -212.5t-39 -255.5q0 -149 52 -276t138.5 -219.5t196 -143.5t219.5 -51q127 0 214 55.5t142 143.5t111 222 l29 -12q-35 -179 -113 -371q-183 -88 -417 -88q-160 0 -307.5 47t-260 138.5t-177 226.5t-64.5 303zM594 -367q0 22 11.5 37t33.5 15q20 0 36 -8t41 -25t40 -24t35 -7q19 0 32 11.5t13 31.5q0 21 -20 49t-55 66t-52 61.5t-17 48.5q0 51 105 111h57q-27 -24 -39 -36.5 t-12 -31.5t40 -62t59.5 -69t19.5 -63q0 -38 -32.5 -83t-82 -75.5t-98.5 -30.5q-43 0 -79 22.5t-36 61.5z" />
<glyph unicode="&#xc8;" horiz-adv-x="1352" d="M63 0v31q121 16 173 46.5t65 85t16 177.5v727q-3 123 -16 177t-64.5 84t-173.5 48v31h1100l-24 -320h-31q-7 126 -62.5 185t-134.5 72.5t-215 13.5h-198v-590h213q94 0 149.5 11.5t94 53t49.5 125.5h30v-462h-30q-13 87 -51.5 126.5t-91.5 48.5t-150 9h-213v-338v-57 q0 -70 19.5 -120t87.5 -83t200 -33q131 0 218 36.5t139.5 115t78.5 209.5h31q-1 -113 -19 -211.5t-51 -198.5h-1139zM467 1872l96 100l305 -428l-28 -24z" />
<glyph unicode="&#xc9;" horiz-adv-x="1352" d="M63 0v31q121 16 173 46.5t65 85t16 177.5v727q-3 123 -16 177t-64.5 84t-173.5 48v31h1100l-24 -320h-31q-7 126 -62.5 185t-134.5 72.5t-215 13.5h-198v-590h213q94 0 149.5 11.5t94 53t49.5 125.5h30v-462h-30q-13 87 -51.5 126.5t-91.5 48.5t-150 9h-213v-338v-57 q0 -70 19.5 -120t87.5 -83t200 -33q131 0 218 36.5t139.5 115t78.5 209.5h31q-1 -113 -19 -211.5t-51 -198.5h-1139zM483 1544l305 428l97 -100l-373 -352z" />
<glyph unicode="&#xca;" horiz-adv-x="1352" d="M63 0v31q121 16 173 46.5t65 85t16 177.5v727q-3 123 -16 177t-64.5 84t-173.5 48v31h1100l-24 -320h-31q-7 126 -62.5 185t-134.5 72.5t-215 13.5h-198v-590h213q94 0 149.5 11.5t94 53t49.5 125.5h30v-462h-30q-13 87 -51.5 126.5t-91.5 48.5t-150 9h-213v-338v-57 q0 -70 19.5 -120t87.5 -83t200 -33q131 0 218 36.5t139.5 115t78.5 209.5h31q-1 -113 -19 -211.5t-51 -198.5h-1139zM438 1534l230 483h18l227 -483l-28 -14l-211 301l-203 -301z" />
<glyph unicode="&#xcb;" horiz-adv-x="1352" d="M63 0v31q121 16 173 46.5t65 85t16 177.5v727q-3 123 -16 177t-64.5 84t-173.5 48v31h1100l-24 -320h-31q-7 126 -62.5 185t-134.5 72.5t-215 13.5h-198v-590h213q94 0 149.5 11.5t94 53t49.5 125.5h30v-462h-30q-13 87 -51.5 126.5t-91.5 48.5t-150 9h-213v-338v-57 q0 -70 19.5 -120t87.5 -83t200 -33q131 0 218 36.5t139.5 115t78.5 209.5h31q-1 -113 -19 -211.5t-51 -198.5h-1139zM383 1681q0 39 29 68t69 29q39 0 68 -29t29 -68q0 -40 -28.5 -70t-68.5 -30q-41 0 -69.5 30t-28.5 70zM774 1681q0 39 29 68t67 29q40 0 69.5 -28.5 t29.5 -68.5q0 -27 -13.5 -50t-36 -36.5t-49.5 -13.5q-39 0 -67.5 30t-28.5 70z" />
<glyph unicode="&#xcc;" horiz-adv-x="819" d="M66 0v31q122 17 173 47t64 84.5t16 177.5v727q-3 123 -16 177t-63.5 84t-173.5 48v31h688v-31q-122 -18 -173.5 -48t-64.5 -84t-16 -177v-727q3 -123 16 -177.5t65 -85t173 -46.5v-31h-688zM201 1872l96 100l305 -428l-29 -24z" />
<glyph unicode="&#xcd;" horiz-adv-x="819" d="M66 0v31q122 17 173 47t64 84.5t16 177.5v727q-3 123 -16 177t-63.5 84t-173.5 48v31h688v-31q-122 -18 -173.5 -48t-64.5 -84t-16 -177v-727q3 -123 16 -177.5t65 -85t173 -46.5v-31h-688zM217 1544l305 428l96 -100l-372 -352z" />
<glyph unicode="&#xce;" horiz-adv-x="819" d="M66 0v31q122 17 173 47t64 84.5t16 177.5v727q-3 123 -16 177t-63.5 84t-173.5 48v31h688v-31q-122 -18 -173.5 -48t-64.5 -84t-16 -177v-727q3 -123 16 -177.5t65 -85t173 -46.5v-31h-688zM172 1534l229 483h19l227 -483l-29 -14l-210 301l-203 -301z" />
<glyph unicode="&#xcf;" horiz-adv-x="840" d="M66 0v31q122 17 173 47t64 84.5t16 177.5v727q-3 123 -16 177t-63.5 84t-173.5 48v31h688v-31q-122 -18 -173.5 -48t-64.5 -84t-16 -177v-727q3 -123 16 -177.5t65 -85t173 -46.5v-31h-688zM117 1681q0 39 29 68t69 29t68 -29t28 -68q0 -40 -27.5 -70t-68.5 -30t-69.5 30 t-28.5 70zM508 1681q0 39 29 68t67 29q39 0 68.5 -28.5t29.5 -68.5t-29 -70t-69 -30q-39 0 -67.5 30t-28.5 70z" />
<glyph unicode="&#xd0;" horiz-adv-x="1679" d="M63 0v31q121 16 173 46.5t65 85t16 177.5v371h-241v88h241v258q-3 122 -15.5 176.5t-60.5 84.5t-165 48v29l495 16q18 1 32.5 1.5t37.5 0.5q295 0 484.5 -76.5t283.5 -190t126 -228t32 -220.5q0 -119 -44 -241t-145.5 -226.5t-277 -169.5t-426.5 -65zM498 319 q0 -82 18 -140t80.5 -95t179.5 -37q93 0 191.5 33.5t180 105.5t131.5 194t50 288q0 237 -111.5 395t-300 232.5t-419.5 74.5v-571h254v-88h-254v-392z" />
<glyph unicode="&#xd1;" horiz-adv-x="1679" d="M33 1376v31h338l1011 -1081l-10 753q-2 102 -25.5 157.5t-84 87t-177.5 52.5v31h560v-31q-99 -13 -134.5 -64.5t-50.5 -166.5q-9 -72 -13.5 -197t-4.5 -293q0 -301 10 -688l-27 -6q-111 135 -235 271.5t-288.5 310.5t-273.5 289.5t-241 257.5v-381v-109q0 -175 6.5 -268 t33.5 -153t82.5 -93t162.5 -55v-31h-613v31q98 11 151 48t78 105t31.5 162.5t6.5 280.5v92v311q0 110 -20 173t-80 102.5t-193 70.5zM459 1669q58 40 125.5 76.5t109.5 36.5q30 0 67 -14t82 -35t96.5 -41.5t80.5 -20.5q42 0 90 28t86 66l23 -22q-156 -170 -279 -170 q-34 0 -69 13.5t-90.5 40.5t-98.5 44t-74 17q-50 0 -131 -48z" />
<glyph unicode="&#xd2;" horiz-adv-x="1720" d="M111 705q0 216 96.5 381.5t266.5 255.5t384 90q192 0 335.5 -60.5t235.5 -164t136.5 -232.5t44.5 -273q0 -164 -55 -298t-156 -229.5t-241 -147.5t-298 -52q-160 0 -298 51t-239 147.5t-156.5 232t-55.5 299.5zM348 756q0 -122 33.5 -253.5t100.5 -239t169.5 -173 t233.5 -65.5q160 0 269.5 94.5t163.5 242t54 306.5q-3 182 -70.5 348t-187.5 266t-272 100q-126 0 -220.5 -55.5t-155 -147.5t-89.5 -203t-29 -220zM651 1872l97 100l305 -428l-29 -24z" />
<glyph unicode="&#xd3;" horiz-adv-x="1720" d="M111 705q0 216 96.5 381.5t266.5 255.5t384 90q192 0 335.5 -60.5t235.5 -164t136.5 -232.5t44.5 -273q0 -164 -55 -298t-156 -229.5t-241 -147.5t-298 -52q-160 0 -298 51t-239 147.5t-156.5 232t-55.5 299.5zM348 756q0 -122 33.5 -253.5t100.5 -239t169.5 -173 t233.5 -65.5q160 0 269.5 94.5t163.5 242t54 306.5q-3 182 -70.5 348t-187.5 266t-272 100q-126 0 -220.5 -55.5t-155 -147.5t-89.5 -203t-29 -220zM668 1544l305 428l96 -100l-373 -352z" />
<glyph unicode="&#xd4;" horiz-adv-x="1720" d="M111 705q0 216 96.5 381.5t266.5 255.5t384 90q192 0 335.5 -60.5t235.5 -164t136.5 -232.5t44.5 -273q0 -164 -55 -298t-156 -229.5t-241 -147.5t-298 -52q-160 0 -298 51t-239 147.5t-156.5 232t-55.5 299.5zM348 756q0 -122 33.5 -253.5t100.5 -239t169.5 -173 t233.5 -65.5q160 0 269.5 94.5t163.5 242t54 306.5q-3 182 -70.5 348t-187.5 266t-272 100q-126 0 -220.5 -55.5t-155 -147.5t-89.5 -203t-29 -220zM623 1534l229 483h18l228 -483l-29 -14l-211 301l-203 -301z" />
<glyph unicode="&#xd5;" horiz-adv-x="1720" d="M111 705q0 216 96.5 381.5t266.5 255.5t384 90q192 0 335.5 -60.5t235.5 -164t136.5 -232.5t44.5 -273q0 -164 -55 -298t-156 -229.5t-241 -147.5t-298 -52q-160 0 -298 51t-239 147.5t-156.5 232t-55.5 299.5zM348 756q0 -122 33.5 -253.5t100.5 -239t169.5 -173 t233.5 -65.5q160 0 269.5 94.5t163.5 242t54 306.5q-3 182 -70.5 348t-187.5 266t-272 100q-126 0 -220.5 -55.5t-155 -147.5t-89.5 -203t-29 -220zM479 1669q58 40 125.5 76.5t110.5 36.5q40 0 101 -27.5t122.5 -55.5t101.5 -28q43 0 91 28t86 66l22 -22q-43 -47 -87 -83.5 t-94.5 -61.5t-96.5 -25q-34 0 -71.5 14.5t-90 40t-96 43t-74.5 17.5q-50 0 -131 -48z" />
<glyph unicode="&#xd6;" horiz-adv-x="1720" d="M111 705q0 216 96.5 381.5t266.5 255.5t384 90q192 0 335.5 -60.5t235.5 -164t136.5 -232.5t44.5 -273q0 -164 -55 -298t-156 -229.5t-241 -147.5t-298 -52q-160 0 -298 51t-239 147.5t-156.5 232t-55.5 299.5zM348 756q0 -122 33.5 -253.5t100.5 -239t169.5 -173 t233.5 -65.5q160 0 269.5 94.5t163.5 242t54 306.5q-3 182 -70.5 348t-187.5 266t-272 100q-126 0 -220.5 -55.5t-155 -147.5t-89.5 -203t-29 -220zM567 1681q0 39 29 68t70 29q40 0 68 -29t28 -68q0 -40 -27.5 -70t-68.5 -30q-42 0 -70.5 30t-28.5 70zM958 1681q0 39 29 68 t68 29t68.5 -28.5t29.5 -68.5t-29 -70t-69 -30t-68.5 30t-28.5 70z" />
<glyph unicode="&#xd7;" d="M121 78l377 379l-377 379l80 77l374 -376l375 376l78 -77l-375 -379l375 -379l-78 -78l-375 379l-374 -379z" />
<glyph unicode="&#xd8;" horiz-adv-x="1720" d="M109 711q0 157 53.5 288t156.5 230t243.5 151t311.5 52q98 0 191 -19.5t176 -60.5l129 202l66 -41l-129 -200q148 -106 225.5 -260.5t77.5 -339.5q0 -166 -54.5 -303.5t-155.5 -234.5t-238 -148.5t-300 -51.5q-216 0 -373 78l-141 -223l-63 45l141 215 q-103 62 -175 160.5t-107 216t-35 244.5zM346 760q0 -154 40.5 -289.5t127.5 -251.5l647 1008q-148 155 -325 155q-158 0 -270 -90t-166 -233t-54 -299zM561 164q145 -139 326 -139q121 0 233.5 74.5t182 217.5t69.5 338q0 139 -40 275.5t-118 240.5z" />
<glyph unicode="&#xd9;" horiz-adv-x="1720" d="M61 1376v31h707v-31q-105 -16 -158.5 -34.5t-77 -49t-30 -77t-6.5 -148.5v-424q0 -12 -0.5 -29t-1.5 -39q0 -108 34.5 -220t146 -198.5t316.5 -86.5q132 0 214 47.5t123 127t53 169t12 200.5q0 47 -0.5 75t-1.5 61v217q0 115 -8.5 181.5t-38 114t-93.5 76t-168 37.5v31 h594v-31q-69 -8 -109 -33.5t-59 -73t-26 -107t-13 -195.5l-12 -455q-3 -147 -55 -267.5t-178 -195t-340 -74.5q-242 0 -369 81t-165 194.5t-38 245.5q1 30 1.5 53.5t0.5 54.5v463q-3 123 -16 177t-64.5 84t-173.5 48zM651 1872l97 100l305 -428l-29 -24z" />
<glyph unicode="&#xda;" horiz-adv-x="1720" d="M61 1376v31h707v-31q-105 -16 -158.5 -34.5t-77 -49t-30 -77t-6.5 -148.5v-424q0 -12 -0.5 -29t-1.5 -39q0 -108 34.5 -220t146 -198.5t316.5 -86.5q132 0 214 47.5t123 127t53 169t12 200.5q0 47 -0.5 75t-1.5 61v217q0 115 -8.5 181.5t-38 114t-93.5 76t-168 37.5v31 h594v-31q-69 -8 -109 -33.5t-59 -73t-26 -107t-13 -195.5l-12 -455q-3 -147 -55 -267.5t-178 -195t-340 -74.5q-242 0 -369 81t-165 194.5t-38 245.5q1 30 1.5 53.5t0.5 54.5v463q-3 123 -16 177t-64.5 84t-173.5 48zM668 1544l305 428l96 -100l-373 -352z" />
<glyph unicode="&#xdb;" horiz-adv-x="1720" d="M61 1376v31h707v-31q-105 -16 -158.5 -34.5t-77 -49t-30 -77t-6.5 -148.5v-424q0 -12 -0.5 -29t-1.5 -39q0 -108 34.5 -220t146 -198.5t316.5 -86.5q132 0 214 47.5t123 127t53 169t12 200.5q0 47 -0.5 75t-1.5 61v217q0 115 -8.5 181.5t-38 114t-93.5 76t-168 37.5v31 h594v-31q-69 -8 -109 -33.5t-59 -73t-26 -107t-13 -195.5l-12 -455q-3 -147 -55 -267.5t-178 -195t-340 -74.5q-242 0 -369 81t-165 194.5t-38 245.5q1 30 1.5 53.5t0.5 54.5v463q-3 123 -16 177t-64.5 84t-173.5 48zM623 1534l229 483h18l228 -483l-29 -14l-211 301 l-203 -301z" />
<glyph unicode="&#xdc;" horiz-adv-x="1720" d="M61 1376v31h707v-31q-105 -16 -158.5 -34.5t-77 -49t-30 -77t-6.5 -148.5v-424q0 -12 -0.5 -29t-1.5 -39q0 -108 34.5 -220t146 -198.5t316.5 -86.5q132 0 214 47.5t123 127t53 169t12 200.5q0 47 -0.5 75t-1.5 61v217q0 115 -8.5 181.5t-38 114t-93.5 76t-168 37.5v31 h594v-31q-69 -8 -109 -33.5t-59 -73t-26 -107t-13 -195.5l-12 -455q-3 -147 -55 -267.5t-178 -195t-340 -74.5q-242 0 -369 81t-165 194.5t-38 245.5q1 30 1.5 53.5t0.5 54.5v463q-3 123 -16 177t-64.5 84t-173.5 48zM567 1681q0 39 29 68t70 29q40 0 68 -29t28 -68 q0 -40 -27.5 -70t-68.5 -30q-42 0 -70.5 30t-28.5 70zM958 1681q0 39 29 68t68 29t68.5 -28.5t29.5 -68.5t-29 -70t-69 -30t-68.5 30t-28.5 70z" />
<glyph unicode="&#xdd;" horiz-adv-x="1229" d="M-43 1376v31h565v-31q-129 -16 -129 -88q0 -37 49 -147l205 -449l178 342q82 154 82 230q0 50 -36 76.5t-113 35.5v31h526v-31q-125 -10 -202.5 -74t-149.5 -190l-242 -483v-234q2 -135 16 -200.5t69.5 -104t185.5 -59.5v-31h-721v31q131 21 185.5 59.5t68.5 104 t16 200.5v166l-213 469q-57 127 -89 184.5t-93.5 104t-157.5 57.5zM422 1544l305 428l96 -100l-372 -352z" />
<glyph unicode="&#xde;" horiz-adv-x="1229" d="M61 0v31q121 16 173 46.5t65 85t16 177.5v727q-3 123 -16 177t-64.5 84t-173.5 48v31h707v-31q-131 -21 -188 -53.5t-70.5 -79.5t-13.5 -147h59q372 0 492 -79t120 -175q0 -118 -77 -193t-195.5 -109.5t-251.5 -39.5l-6 32q154 18 237.5 79t83.5 192q0 62 -31.5 109.5 t-89 78t-129 44.5t-159.5 14q-18 0 -29 -0.5t-24 -1.5v-707q0 -102 6.5 -148.5t30 -77.5t77.5 -49.5t158 -33.5v-31h-707z" />
<glyph unicode="&#xdf;" horiz-adv-x="1106" d="M27 803v20l166 101q0 83 36 181t102 186t154.5 141t190.5 53q72 0 132 -37t94 -100t34 -140q0 -24 -12 -86q-76 -58 -114 -90.5t-71.5 -82.5t-33.5 -109q0 -68 38.5 -115t127.5 -124.5t133.5 -141t44.5 -156.5q0 -95 -61.5 -168.5t-148 -114t-151.5 -40.5 q-33 0 -56.5 15.5t-23.5 49.5q0 27 17.5 48.5t42.5 21.5q22 0 64 -36t65 -36q27 0 67.5 41t40.5 125q0 92 -46.5 159.5t-138 144.5t-127.5 119t-36 107q0 66 27.5 109.5t83 97t83 96t27.5 105.5q0 108 -57.5 182t-161.5 74q-93 0 -139.5 -111t-58 -238t-11.5 -251v-563 q0 -92 9.5 -129t46 -53t126.5 -27v-31h-489v31q72 11 101.5 28.5t38 53.5t10.5 127v563h-166z" />
<glyph unicode="&#xe0;" horiz-adv-x="901" d="M70 664q0 22 37.5 67t98 92.5t127.5 80t128 32.5q90 0 144.5 -41.5t78 -110t23.5 -159.5v-293v-60q0 -75 10.5 -110.5t47.5 -57.5t120 -38v-31q-19 -5 -58 -16.5t-55.5 -15.5t-47.5 -8.5t-46 -4.5q-63 0 -92 33t-37 98q-122 -141 -260 -141q-94 0 -149.5 69t-55.5 166 q0 43 12 90l453 207q2 27 2 70q0 132 -48 190.5t-157 58.5q-81 0 -104 -30t-23 -99v-53l-102 -6q-47 0 -47 21zM201 1380l96 101l305 -428l-29 -25zM258 246q0 -69 38 -116.5t105 -47.5q74 0 148 78v311l-277 -141q-14 -51 -14 -84z" />
<glyph unicode="&#xe1;" horiz-adv-x="901" d="M70 664q0 22 37.5 67t98 92.5t127.5 80t128 32.5q90 0 144.5 -41.5t78 -110t23.5 -159.5v-293v-60q0 -75 10.5 -110.5t47.5 -57.5t120 -38v-31q-19 -5 -58 -16.5t-55.5 -15.5t-47.5 -8.5t-46 -4.5q-63 0 -92 33t-37 98q-122 -141 -260 -141q-94 0 -149.5 69t-55.5 166 q0 43 12 90l453 207q2 27 2 70q0 132 -48 190.5t-157 58.5q-81 0 -104 -30t-23 -99v-53l-102 -6q-47 0 -47 21zM258 246q0 -69 38 -116.5t105 -47.5q74 0 148 78v311l-277 -141q-14 -51 -14 -84zM258 1053l305 428l96 -101l-372 -352z" />
<glyph unicode="&#xe2;" horiz-adv-x="901" d="M70 664q0 22 37.5 67t98 92.5t127.5 80t128 32.5q90 0 144.5 -41.5t78 -110t23.5 -159.5v-293v-60q0 -75 10.5 -110.5t47.5 -57.5t120 -38v-31q-19 -5 -58 -16.5t-55.5 -15.5t-47.5 -8.5t-46 -4.5q-63 0 -92 33t-37 98q-122 -141 -260 -141q-94 0 -149.5 69t-55.5 166 q0 43 12 90l453 207q2 27 2 70q0 132 -48 190.5t-157 58.5q-81 0 -104 -30t-23 -99v-53l-102 -6q-47 0 -47 21zM213 1042l229 484h19l227 -484l-29 -14l-210 301l-203 -301zM258 246q0 -69 38 -116.5t105 -47.5q74 0 148 78v311l-277 -141q-14 -51 -14 -84z" />
<glyph unicode="&#xe3;" horiz-adv-x="963" d="M70 664q0 22 37.5 67t98 92.5t127.5 80t128 32.5q90 0 144.5 -41.5t78 -110t23.5 -159.5v-293v-60q0 -75 10.5 -110.5t47.5 -57.5t120 -38v-31q-19 -5 -58 -16.5t-55.5 -15.5t-47.5 -8.5t-46 -4.5q-63 0 -92 33t-37 98q-122 -141 -260 -141q-94 0 -149.5 69t-55.5 166 q0 43 12 90l453 207q2 27 2 70q0 132 -48 190.5t-157 58.5q-81 0 -104 -30t-23 -99v-53l-102 -6q-47 0 -47 21zM70 1178q165 112 235 112q30 0 67 -13.5t82 -34.5t96.5 -41.5t80.5 -20.5q42 0 90 28t86 66l22 -23q-61 -67 -136.5 -118.5t-141.5 -51.5q-34 0 -69 13.5 t-90.5 40.5t-98.5 44t-74 17q-48 0 -131 -47zM258 246q0 -69 38 -116.5t105 -47.5q74 0 148 78v311l-277 -141q-14 -51 -14 -84z" />
<glyph unicode="&#xe4;" horiz-adv-x="901" d="M70 664q0 22 37.5 67t98 92.5t127.5 80t128 32.5q90 0 144.5 -41.5t78 -110t23.5 -159.5v-293v-60q0 -75 10.5 -110.5t47.5 -57.5t120 -38v-31q-19 -5 -58 -16.5t-55.5 -15.5t-47.5 -8.5t-46 -4.5q-63 0 -92 33t-37 98q-122 -141 -260 -141q-94 0 -149.5 69t-55.5 166 q0 43 12 90l453 207q2 27 2 70q0 132 -48 190.5t-157 58.5q-81 0 -104 -30t-23 -99v-53l-102 -6q-47 0 -47 21zM158 1190q0 40 29 68t69 28t68 -28t28 -68t-27.5 -70t-68.5 -30t-69.5 30t-28.5 70zM258 246q0 -69 38 -116.5t105 -47.5q74 0 148 78v311l-277 -141 q-14 -51 -14 -84zM549 1190q0 40 29 68t67 28q39 0 68.5 -27.5t29.5 -68.5q0 -40 -29 -70t-69 -30q-39 0 -67.5 30t-28.5 70z" />
<glyph unicode="&#xe5;" horiz-adv-x="901" d="M70 664q0 22 37.5 67t98 92.5t127.5 80t128 32.5q90 0 144.5 -41.5t78 -110t23.5 -159.5v-293v-60q0 -75 10.5 -110.5t47.5 -57.5t120 -38v-31q-19 -5 -58 -16.5t-55.5 -15.5t-47.5 -8.5t-46 -4.5q-63 0 -92 33t-37 98q-122 -141 -260 -141q-94 0 -149.5 69t-55.5 166 q0 43 12 90l453 207q2 27 2 70q0 132 -48 190.5t-157 58.5q-81 0 -104 -30t-23 -99v-53l-102 -6q-47 0 -47 21zM258 246q0 -69 38 -116.5t105 -47.5q74 0 148 78v311l-277 -141q-14 -51 -14 -84zM268 1204q0 49 24.5 90.5t66 66.5t90.5 25t91.5 -25t66.5 -66t24 -91 q0 -77 -53.5 -130.5t-128.5 -53.5q-74 0 -127.5 54.5t-53.5 129.5zM334 1204q0 -51 33 -92t82 -41q50 0 83 41t33 92t-33 91t-83 40q-49 -1 -82 -41.5t-33 -89.5z" />
<glyph unicode="&#xe6;" horiz-adv-x="1311" d="M70 657q0 41 106 142q157 137 277 137q175 0 233 -176q49 76 125 126t160 50q110 0 176.5 -75.5t77.5 -192.5l-518 -176q-2 -23 -2 -66q0 -152 56.5 -228.5t178.5 -76.5q91 0 161 49.5t128 136.5l33 -20q-75 -132 -177 -219.5t-227 -87.5q-90 0 -162 40t-116 117 q-133 -157 -291 -157q-94 0 -149.5 69t-55.5 166q0 43 12 90l453 172q1 21 1.5 38.5t0.5 43.5q0 130 -41.5 201t-163.5 71q-60 0 -87 -18t-36.5 -60t-9.5 -120h-76q-36 0 -51.5 4t-15.5 20zM258 231q0 -64 35.5 -106.5t99.5 -42.5q51 0 90 21t84 63q-8 36 -12 77.5t-5 84 t-1 108.5l-270 -110q-21 -63 -21 -95zM705 584q0 -35 2 -54l331 127q-5 82 -43 134.5t-114 52.5q-95 0 -135.5 -73t-40.5 -187z" />
<glyph unicode="&#xe7;" horiz-adv-x="901" d="M70 432q0 141 72.5 256.5t195 181.5t258.5 66q83 0 153 -21t70 -84q0 -34 -30 -64t-66 -30q-25 0 -43.5 13t-62.5 49t-75 53.5t-67 17.5q-112 0 -177 -106t-65 -225q0 -130 53 -230t140.5 -154.5t189.5 -54.5q60 0 106.5 20t104.5 62l25 -30q-148 -172 -360 -172 q-92 0 -168.5 35t-134 99t-88.5 146.5t-31 171.5zM287 -367q0 22 11.5 37t33.5 15q24 0 50 -16t51.5 -32t49.5 -16q20 0 32.5 11.5t12.5 31.5q0 21 -20 49t-58 70t-51.5 62t-13.5 44q0 50 104 111h58q-51 -43 -51 -68q0 -18 42 -64.5t59 -70t17 -59.5q0 -38 -32.5 -83.5 t-82 -75.5t-98.5 -30q-42 0 -78 22.5t-36 61.5z" />
<glyph unicode="&#xe8;" horiz-adv-x="942" d="M70 438q0 98 33.5 189.5t94 160.5t145.5 108.5t187 39.5q91 0 161 -37t110.5 -106t44.5 -162h-594l-8 -103q0 -181 99.5 -298t260.5 -117q144 0 242 129l31 -23q-62 -106 -162 -172.5t-215 -66.5q-123 0 -222 62.5t-153.5 167t-54.5 228.5zM258 670l393 16 q-16 83 -62.5 143t-121.5 60q-81 0 -134.5 -64.5t-74.5 -154.5zM262 1380l96 101l306 -428l-29 -25z" />
<glyph unicode="&#xe9;" horiz-adv-x="942" d="M70 438q0 98 33.5 189.5t94 160.5t145.5 108.5t187 39.5q91 0 161 -37t110.5 -106t44.5 -162h-594l-8 -103q0 -181 99.5 -298t260.5 -117q144 0 242 129l31 -23q-62 -106 -162 -172.5t-215 -66.5q-123 0 -222 62.5t-153.5 167t-54.5 228.5zM258 670l393 16 q-16 83 -62.5 143t-121.5 60q-81 0 -134.5 -64.5t-74.5 -154.5zM319 1053l306 428l96 -101l-373 -352z" />
<glyph unicode="&#xea;" horiz-adv-x="942" d="M70 438q0 98 33.5 189.5t94 160.5t145.5 108.5t187 39.5q91 0 161 -37t110.5 -106t44.5 -162h-594l-8 -103q0 -181 99.5 -298t260.5 -117q144 0 242 129l31 -23q-62 -106 -162 -172.5t-215 -66.5q-123 0 -222 62.5t-153.5 167t-54.5 228.5zM233 1042l230 484h18l228 -484 l-29 -14l-211 301l-203 -301zM258 670l393 16q-16 83 -62.5 143t-121.5 60q-81 0 -134.5 -64.5t-74.5 -154.5z" />
<glyph unicode="&#xeb;" horiz-adv-x="942" d="M70 438q0 98 33.5 189.5t94 160.5t145.5 108.5t187 39.5q91 0 161 -37t110.5 -106t44.5 -162h-594l-8 -103q0 -181 99.5 -298t260.5 -117q144 0 242 129l31 -23q-62 -106 -162 -172.5t-215 -66.5q-123 0 -222 62.5t-153.5 167t-54.5 228.5zM178 1190q0 40 29 68t69 28 q39 0 68 -28t29 -68t-28.5 -70t-68.5 -30q-41 0 -69.5 30t-28.5 70zM258 670l393 16q-16 83 -62.5 143t-121.5 60q-81 0 -134.5 -64.5t-74.5 -154.5zM569 1190q0 40 29 68t68 28t68.5 -27.5t29.5 -68.5q0 -40 -29 -70t-69 -30t-68.5 30t-28.5 70z" />
<glyph unicode="&#xec;" horiz-adv-x="614" d="M18 0v31q78 11 109.5 28.5t40 53.5t10.5 127v395q0 72 -19 105t-106 83v21l260 92l23 -10v-686q0 -92 8.5 -129t40.5 -53t111 -27v-31h-478zM57 1380l97 101l305 -428l-29 -25z" />
<glyph unicode="&#xed;" horiz-adv-x="614" d="M18 0v31q78 11 109.5 28.5t40 53.5t10.5 127v395q0 72 -19 105t-106 83v21l260 92l23 -10v-686q0 -92 8.5 -129t40.5 -53t111 -27v-31h-478zM74 1053l305 428l96 -101l-373 -352z" />
<glyph unicode="&#xee;" horiz-adv-x="594" d="M-12 1042l229 484h19l227 -484l-29 -14l-211 301l-203 -301zM18 0v31q78 11 109.5 28.5t40 53.5t10.5 127v395q0 72 -19 105t-106 83v21l260 92l23 -10v-686q0 -92 8.5 -129t40.5 -53t111 -27v-31h-478z" />
<glyph unicode="&#xef;" horiz-adv-x="696" d="M-27 1190q0 40 29 68t70 28q40 0 68 -28t28 -68t-27.5 -70t-68.5 -30q-42 0 -70.5 30t-28.5 70zM18 0v31q78 11 109.5 28.5t40 53.5t10.5 127v395q0 72 -19 105t-106 83v21l260 92l23 -10v-686q0 -92 8.5 -129t40.5 -53t111 -27v-31h-478zM365 1190q0 40 29 68t67 28 q39 0 68.5 -27.5t29.5 -68.5q0 -40 -29 -70t-69 -30q-39 0 -67.5 30t-28.5 70z" />
<glyph unicode="&#xf0;" d="M70 453q0 139 66.5 249t174.5 172t224 62q42 0 139 -21l-271 299l-188 -167l-43 51l186 166q-65 74 -147 188l29 33q41 -20 90 -65.5t100 -98.5l191 164l36 -45l-178 -160l324 -303q274 -257 274 -516q0 -103 -39 -191t-110.5 -154t-163 -101t-191.5 -35q-105 0 -196 32 t-160 94.5t-108 151t-39 195.5zM260 467q0 -101 38 -204.5t112 -170.5t178 -67q98 0 165 63.5t100.5 159.5t33.5 192q0 104 -34.5 208t-105.5 172.5t-176 68.5q-103 0 -173.5 -63t-104 -160.5t-33.5 -198.5z" />
<glyph unicode="&#xf1;" d="M29 0v31q65 10 92.5 20.5t42 30.5t19.5 56t5 102v395q0 72 -15.5 105t-84.5 83v21l244 92l22 -10l-16 -150q109 80 189 120t171 40q163 0 210.5 -95t47.5 -233v-368q0 -92 9 -129t40.5 -53t110.5 -27v-31h-477v31q78 11 109.5 28.5t40 53.5t10.5 127v237q0 168 -42.5 259 t-201.5 91q-63 0 -110 -20t-99 -68v-499q0 -92 8.5 -129t40.5 -53t111 -27v-31h-477zM152 1178q165 112 235 112q30 0 67 -13.5t82 -34.5t96.5 -41.5t80.5 -20.5q42 0 90 28t86 66l22 -23q-61 -67 -136.5 -118.5t-141.5 -51.5q-34 0 -69 13.5t-90.5 40.5t-98.5 44t-74 17 q-48 0 -131 -47z" />
<glyph unicode="&#xf2;" d="M70 453q0 141 68.5 250.5t185 171t251.5 61.5q140 0 255 -58t181 -167t66 -250q0 -103 -39 -191t-110.5 -154t-163 -101t-191.5 -35q-105 0 -196 32t-160 94.5t-108 151t-39 195.5zM260 467q0 -101 38 -204.5t112 -170.5t178 -67q98 0 165 63.5t100.5 159.5t33.5 192 q0 104 -34.5 208t-105.5 172.5t-176 68.5q-103 0 -173.5 -63t-104 -160.5t-33.5 -198.5zM365 1380l96 101l305 -428l-29 -25z" />
<glyph unicode="&#xf3;" d="M70 453q0 141 68.5 250.5t185 171t251.5 61.5q140 0 255 -58t181 -167t66 -250q0 -103 -39 -191t-110.5 -154t-163 -101t-191.5 -35q-105 0 -196 32t-160 94.5t-108 151t-39 195.5zM260 467q0 -101 38 -204.5t112 -170.5t178 -67q98 0 165 63.5t100.5 159.5t33.5 192 q0 104 -34.5 208t-105.5 172.5t-176 68.5q-103 0 -173.5 -63t-104 -160.5t-33.5 -198.5zM381 1053l305 428l96 -101l-372 -352z" />
<glyph unicode="&#xf4;" d="M70 453q0 141 68.5 250.5t185 171t251.5 61.5q140 0 255 -58t181 -167t66 -250q0 -103 -39 -191t-110.5 -154t-163 -101t-191.5 -35q-105 0 -196 32t-160 94.5t-108 151t-39 195.5zM260 467q0 -101 38 -204.5t112 -170.5t178 -67q98 0 165 63.5t100.5 159.5t33.5 192 q0 104 -34.5 208t-105.5 172.5t-176 68.5q-103 0 -173.5 -63t-104 -160.5t-33.5 -198.5zM336 1042l229 484h19l227 -484l-29 -14l-211 301l-202 -301z" />
<glyph unicode="&#xf5;" d="M70 453q0 141 68.5 250.5t185 171t251.5 61.5q140 0 255 -58t181 -167t66 -250q0 -103 -39 -191t-110.5 -154t-163 -101t-191.5 -35q-105 0 -196 32t-160 94.5t-108 151t-39 195.5zM193 1178q165 112 235 112q30 0 67 -13.5t82 -34.5t96.5 -41.5t80.5 -20.5q42 0 90 28 t86 66l22 -23q-61 -67 -136.5 -118.5t-141.5 -51.5q-34 0 -71.5 14.5t-90 40t-96 43t-74.5 17.5q-48 0 -131 -47zM260 467q0 -101 38 -204.5t112 -170.5t178 -67q98 0 165 63.5t100.5 159.5t33.5 192q0 104 -34.5 208t-105.5 172.5t-176 68.5q-103 0 -173.5 -63t-104 -160.5 t-33.5 -198.5z" />
<glyph unicode="&#xf6;" d="M70 453q0 141 68.5 250.5t185 171t251.5 61.5q140 0 255 -58t181 -167t66 -250q0 -103 -39 -191t-110.5 -154t-163 -101t-191.5 -35q-105 0 -196 32t-160 94.5t-108 151t-39 195.5zM260 467q0 -101 38 -204.5t112 -170.5t178 -67q98 0 165 63.5t100.5 159.5t33.5 192 q0 104 -34.5 208t-105.5 172.5t-176 68.5q-103 0 -173.5 -63t-104 -160.5t-33.5 -198.5zM281 1190q0 40 29 68t69 28t68 -28t28 -68t-27.5 -70t-68.5 -30t-69.5 30t-28.5 70zM672 1190q0 40 29 68t67 28q39 0 68.5 -27.5t29.5 -68.5q0 -40 -29 -70t-69 -30q-39 0 -67.5 30 t-28.5 70z" />
<glyph unicode="&#xf7;" d="M121 401v111h905v-111h-905zM463 90q0 32 15 58.5t41 41.5t54 15q46 0 79.5 -33.5t33.5 -81.5q0 -45 -33.5 -77.5t-79.5 -32.5t-78 32t-32 78zM463 821q0 47 32 81t78 34t79.5 -34.5t33.5 -80.5q0 -44 -34 -78t-79 -34t-77.5 33.5t-32.5 78.5z" />
<glyph unicode="&#xf8;" d="M70 436q0 168 78 281t196 166t236 53q137 0 258 -62l106 150l47 -33l-100 -147q87 -65 136.5 -166.5t49.5 -212.5q0 -142 -69 -253.5t-188.5 -171.5t-258.5 -60q-129 0 -242 55l-120 -168l-49 37l116 162q-196 139 -196 370zM260 471q0 -87 19.5 -156t64.5 -145l432 616 q-36 47 -90.5 75t-114.5 28q-54 0 -107 -24t-100 -75.5t-75.5 -131t-28.5 -187.5zM379 125q85 -100 199 -100q100 0 170.5 60.5t104.5 154.5t34 196q0 159 -74 301z" />
<glyph unicode="&#xf9;" d="M29 856v31l309 26v-510v-53q0 -68 14 -126.5t62 -100t139 -41.5q123 0 225 92v444q0 107 -9.5 151.5t-48.5 65.5t-130 21v31l358 26l-12 -684q0 -41 -2 -59q0 -44 17 -69t67 -25l94 8l8 -31l-348 -84l6 162q-96 -71 -184 -111t-186 -40q-104 0 -154.5 51.5t-62 114 t-11.5 133.5v362v70q0 81 -27 113t-124 32zM365 1380l96 101l305 -428l-29 -25z" />
<glyph unicode="&#xfa;" d="M29 856v31l309 26v-510v-53q0 -68 14 -126.5t62 -100t139 -41.5q123 0 225 92v444q0 107 -9.5 151.5t-48.5 65.5t-130 21v31l358 26l-12 -684q0 -41 -2 -59q0 -44 17 -69t67 -25l94 8l8 -31l-348 -84l6 162q-96 -71 -184 -111t-186 -40q-104 0 -154.5 51.5t-62 114 t-11.5 133.5v362v70q0 81 -27 113t-124 32zM340 1053l305 428l96 -101l-372 -352z" />
<glyph unicode="&#xfb;" d="M29 856v31l309 26v-510v-53q0 -68 14 -126.5t62 -100t139 -41.5q123 0 225 92v444q0 107 -9.5 151.5t-48.5 65.5t-130 21v31l358 26l-12 -684q0 -41 -2 -59q0 -44 17 -69t67 -25l94 8l8 -31l-348 -84l6 162q-96 -71 -184 -111t-186 -40q-104 0 -154.5 51.5t-62 114 t-11.5 133.5v362v70q0 81 -27 113t-124 32zM336 1042l229 484h19l227 -484l-29 -14l-211 301l-202 -301z" />
<glyph unicode="&#xfc;" d="M29 856v31l309 26v-510v-53q0 -68 14 -126.5t62 -100t139 -41.5q123 0 225 92v444q0 107 -9.5 151.5t-48.5 65.5t-130 21v31l358 26l-12 -684q0 -41 -2 -59q0 -44 17 -69t67 -25l94 8l8 -31l-348 -84l6 162q-96 -71 -184 -111t-186 -40q-104 0 -154.5 51.5t-62 114 t-11.5 133.5v362v70q0 81 -27 113t-124 32zM281 1190q0 40 29 68t69 28t68 -28t28 -68t-27.5 -70t-68.5 -30t-69.5 30t-28.5 70zM672 1190q0 40 29 68t67 28q39 0 68.5 -27.5t29.5 -68.5q0 -40 -29 -70t-69 -30q-39 0 -67.5 30t-28.5 70z" />
<glyph unicode="&#xfd;" horiz-adv-x="942" d="M-29 883v30h424v-30q-110 -5 -110 -78q0 -39 37 -131l200 -524l127 372q70 203 70 264q0 46 -27 68t-86 29v30h359v-30q-45 -6 -72 -20t-46 -39t-40 -66l-86 -201l-315 -801q-36 -93 -69.5 -150t-66.5 -81.5t-75 -24.5t-71.5 29.5t-29.5 73.5q0 33 17.5 59.5t48.5 38.5 q84 -59 108 -59q20 0 39 26.5t34.5 62.5t23.5 54l67 160l-313 809q-28 72 -52.5 95t-95.5 34zM279 1053l305 428l96 -101l-373 -352z" />
<glyph unicode="&#xfe;" horiz-adv-x="1106" d="M0 -469q75 13 103 29.5t36.5 52.5t10.5 127v1358q0 73 -15 104.5t-86 83.5v21l244 100l22 -8l-8 -127v-463q184 127 326 127q112 0 201 -61t137.5 -160.5t48.5 -212.5q0 -130 -73 -250.5t-205 -196t-298 -75.5l-137 6v-246q0 -93 11.5 -129t55 -51.5t156.5 -28.5v-31 h-530v31zM307 348q0 -126 47.5 -215.5t206.5 -89.5q94 0 158.5 58t95.5 148t31 183q0 110 -36.5 189t-90.5 124t-112.5 65.5t-106.5 20.5q-56 0 -102 -14t-91 -45v-424z" />
<glyph unicode="&#xff;" horiz-adv-x="942" d="M-29 883v30h424v-30q-110 -5 -110 -78q0 -39 37 -131l200 -524l127 372q70 203 70 264q0 46 -27 68t-86 29v30h359v-30q-45 -6 -72 -20t-46 -39t-40 -66l-86 -201l-315 -801q-36 -93 -69.5 -150t-66.5 -81.5t-75 -24.5t-71.5 29.5t-29.5 73.5q0 33 17.5 59.5t48.5 38.5 q84 -59 108 -59q20 0 39 26.5t34.5 62.5t23.5 54l67 160l-313 809q-28 72 -52.5 95t-95.5 34zM178 1190q0 40 29 68t69 28q39 0 68 -28t29 -68t-28.5 -70t-68.5 -30q-41 0 -69.5 30t-28.5 70zM569 1190q0 40 29 68t68 28t68.5 -27.5t29.5 -68.5q0 -40 -29 -70t-69 -30 t-68.5 30t-28.5 70z" />
<glyph unicode="&#x152;" horiz-adv-x="2089" d="M111 705q0 172 65 305.5t180 223.5t265 135.5t311 45.5l952 -8l-31 -334h-30q-2 64 -21 125.5t-78.5 110.5t-167.5 49h-305v-590h152q94 0 149.5 11.5t95 53.5t50.5 125h31v-462h-31q-11 86 -50.5 126t-93 49t-151.5 9h-152v-344q0 -121 18 -179.5t74 -83t175 -24.5 q137 0 218.5 39t128 118.5t83.5 209.5h30l-77 -416l-986 -8q-158 0 -301 47.5t-258 141t-180 226t-65 298.5zM344 698q0 -168 48 -292t128 -202.5t175.5 -116.5t191.5 -38q118 0 151 72t33 205v43v983l-131 6q-147 0 -259.5 -48.5t-187 -136t-112 -208t-37.5 -267.5z" />
<glyph unicode="&#x153;" horiz-adv-x="1720" d="M70 444q0 140 67 253t183 176t251 63q116 0 213 -43t166 -133q65 81 155.5 128.5t188.5 47.5q146 0 234.5 -80.5t97.5 -224.5h-600l-4 -103q0 -184 90.5 -298.5t255.5 -114.5q82 0 141 31t117 94l25 -27q-47 -70 -105 -122t-127.5 -81.5t-148.5 -29.5q-74 0 -130 18.5 t-101 56.5t-89 99q-49 -56 -112.5 -95.5t-137.5 -59t-145 -19.5q-97 0 -184 33t-156 96t-107 149.5t-38 185.5zM260 469q0 -114 35.5 -215.5t107.5 -165t172 -63.5q78 0 134 37.5t89 98t48.5 133t15.5 146.5q0 102 -30.5 206.5t-99.5 173.5t-175 69q-158 0 -227.5 -123.5 t-69.5 -296.5zM1036 670l396 16q-8 79 -57.5 140t-129.5 61q-82 0 -137 -64t-72 -153z" />
<glyph unicode="&#x178;" horiz-adv-x="1229" d="M-43 1376v31h565v-31q-129 -16 -129 -88q0 -37 49 -147l205 -449l178 342q82 154 82 230q0 50 -36 76.5t-113 35.5v31h526v-31q-125 -10 -202.5 -74t-149.5 -190l-242 -483v-234q2 -135 16 -200.5t69.5 -104t185.5 -59.5v-31h-721v31q131 21 185.5 59.5t68.5 104 t16 200.5v166l-213 469q-57 127 -89 184.5t-93.5 104t-157.5 57.5zM322 1681q0 39 29 68t69 29t68 -29t28 -68q0 -40 -27.5 -70t-68.5 -30t-69.5 30t-28.5 70zM713 1681q0 39 29 68t67 29q39 0 68.5 -28.5t29.5 -68.5t-29 -70t-69 -30q-39 0 -67.5 30t-28.5 70z" />
<glyph unicode="&#x2c6;" horiz-adv-x="737" d="M131 1042l229 484h19l227 -484l-28 -14l-211 301l-203 -301z" />
<glyph unicode="&#x2dc;" horiz-adv-x="1024" d="M131 1178q165 112 236 112q38 0 100 -27.5l124 -55t101 -27.5q82 0 176 94l23 -23q-158 -170 -279 -170q-34 0 -69 13.5t-89.5 40t-98 44t-74.5 17.5q-50 0 -131 -47z" />
<glyph unicode="&#x2000;" horiz-adv-x="1008" />
<glyph unicode="&#x2001;" horiz-adv-x="2017" />
<glyph unicode="&#x2002;" horiz-adv-x="1008" />
<glyph unicode="&#x2003;" horiz-adv-x="2017" />
<glyph unicode="&#x2004;" horiz-adv-x="672" />
<glyph unicode="&#x2005;" horiz-adv-x="504" />
<glyph unicode="&#x2006;" horiz-adv-x="336" />
<glyph unicode="&#x2007;" horiz-adv-x="336" />
<glyph unicode="&#x2008;" horiz-adv-x="252" />
<glyph unicode="&#x2009;" horiz-adv-x="403" />
<glyph unicode="&#x200a;" horiz-adv-x="112" />
<glyph unicode="&#x2010;" horiz-adv-x="737" d="M139 467v100h447v-100h-447z" />
<glyph unicode="&#x2011;" horiz-adv-x="737" d="M139 467v100h447v-100h-447z" />
<glyph unicode="&#x2012;" horiz-adv-x="737" d="M139 467v100h447v-100h-447z" />
<glyph unicode="&#x2013;" horiz-adv-x="1024" d="M0 467v100h1024v-100h-1024z" />
<glyph unicode="&#x2014;" horiz-adv-x="2048" d="M0 467v100h2048v-100h-2048z" />
<glyph unicode="&#x2018;" horiz-adv-x="614" d="M139 1069q0 118 82.5 212t204.5 151l20 -31q-62 -46 -97.5 -77.5t-62 -75t-26.5 -97.5q0 -70 36.5 -100.5t86.5 -30.5q26 0 46.5 7t25.5 17q37 -30 37 -92q0 -53 -33 -89t-103 -36q-62 0 -112.5 33.5t-77.5 88.5t-27 120z" />
<glyph unicode="&#x2019;" horiz-adv-x="614" d="M139 1307q0 53 33 89t102 36q63 0 113.5 -33.5t77.5 -88.5t27 -120q0 -61 -23 -115.5t-66 -103.5t-91 -82.5t-107 -61.5l-21 31q91 67 139 121.5t48 128.5q0 70 -36.5 100.5t-86.5 30.5q-26 0 -46.5 -7t-25.5 -18q-37 32 -37 93z" />
<glyph unicode="&#x201a;" horiz-adv-x="614" d="M139 76q0 53 33 89t102 36q63 0 113.5 -33.5t77.5 -88.5t27 -120q0 -80 -40.5 -150.5t-103.5 -122.5t-143 -89l-21 30q91 67 139 121.5t48 128.5q0 70 -36.5 100.5t-86.5 30.5q-24 0 -45.5 -7.5t-26.5 -16.5q-37 30 -37 92z" />
<glyph unicode="&#x201c;" horiz-adv-x="1065" d="M143 1069q0 118 82.5 212t204.5 151l21 -31q-62 -46 -97.5 -77.5t-62.5 -74.5t-27 -98q0 -70 36.5 -100.5t86.5 -30.5q26 0 46.5 7t25.5 17q37 -30 37 -92q0 -53 -33 -89t-103 -36q-62 0 -112.5 33.5t-77.5 88.5t-27 120zM586 1069q0 118 82 212t204 151l21 -31 q-62 -46 -97.5 -77.5t-62 -75t-26.5 -97.5q0 -69 36 -100t86 -31q26 0 46.5 7t25.5 17q37 -29 37 -92q0 -53 -33 -89t-102 -36q-62 0 -112.5 33.5t-77.5 88.5t-27 120z" />
<glyph unicode="&#x201d;" horiz-adv-x="1065" d="M139 1307q0 53 33 89t102 36q63 0 113.5 -33.5t77.5 -88.5t27 -120q0 -61 -23 -115.5t-66 -103.5t-91 -82.5t-107 -61.5l-21 31q91 67 139 121.5t48 128.5q0 70 -36.5 100.5t-86.5 30.5q-26 0 -46.5 -7t-25.5 -18q-37 32 -37 93zM586 1307q0 53 33 89t102 36 q95 0 156 -71.5t61 -170.5q0 -118 -82.5 -212.5t-204.5 -150.5l-20 31q91 67 138.5 120.5t47.5 129.5q0 70 -36 100.5t-87 30.5q-27 0 -46.5 -7t-24.5 -18q-37 31 -37 93z" />
<glyph unicode="&#x201e;" horiz-adv-x="1065" d="M139 76q0 53 33 89t102 36q63 0 113.5 -33.5t77.5 -88.5t27 -120q0 -80 -40.5 -150.5t-103.5 -122.5t-143 -89l-21 30q91 67 139 121.5t48 128.5q0 70 -36.5 100.5t-86.5 30.5q-24 0 -45.5 -7.5t-26.5 -16.5q-37 30 -37 92zM586 76q0 53 33 89t102 36q95 0 156 -71.5 t61 -170.5q0 -118 -82.5 -212t-204.5 -150l-20 30q91 67 138.5 120.5t47.5 129.5q0 70 -36 100.5t-87 30.5q-25 0 -45.5 -7.5t-25.5 -16.5q-37 29 -37 92z" />
<glyph unicode="&#x2022;" horiz-adv-x="1229" d="M266 702q0 97 46 179.5t125.5 129t174.5 46.5q76 0 139 -26.5t111 -75t74.5 -112.5t26.5 -141q0 -96 -46 -176t-127 -126t-178 -46q-94 0 -174 45.5t-126 126t-46 176.5z" />
<glyph unicode="&#x2026;" horiz-adv-x="2048" d="M229 86q0 48 32.5 81.5t78.5 33.5q29 0 55 -15t42 -42t16 -58q0 -29 -16 -55.5t-42 -41t-55 -14.5q-45 0 -78 33t-33 78zM911 86q0 48 32.5 81.5t78.5 33.5q29 0 55 -15t42 -42t16 -58q0 -29 -16 -55.5t-42 -41t-55 -14.5q-45 0 -78 33t-33 78zM1593 86q0 32 15 58.5 t41 41.5t55 15t55 -15t42 -42t16 -58q0 -29 -16 -55.5t-42 -41t-55 -14.5q-46 0 -78.5 32.5t-32.5 78.5z" />
<glyph unicode="&#x202f;" horiz-adv-x="403" />
<glyph unicode="&#x2039;" horiz-adv-x="655" d="M119 514l340 322q49 49 55 49q7 0 10.5 -4.5t3.5 -12.5q0 -36 -86 -152t-157 -202q26 -28 90.5 -109t113 -150t48.5 -87t-17 -18q-12 0 -57 49z" />
<glyph unicode="&#x203a;" horiz-adv-x="655" d="M127 862q0 19 16 19q10 0 29 -19t29 -31l344 -317l-340 -319q-44 -50 -55 -50q-15 0 -15 17q0 27 46 95t96.5 132t101.5 125q-34 39 -94.5 115t-109 145.5t-48.5 87.5z" />
<glyph unicode="&#x205f;" horiz-adv-x="504" />
<glyph unicode="&#x2122;" horiz-adv-x="1720" d="M88 1235v172h598v-172h-45q0 57 -14 83t-41.5 34t-85.5 8h-56v-567q0 -33 26 -43.5t75 -12.5v-41h-316v41q50 2 75.5 12.5t25.5 43.5v567h-41q-64 0 -93.5 -6.5t-46 -33.5t-16.5 -85h-45zM778 696v41q50 2 75.5 12.5t25.5 43.5v546q0 20 -17.5 24.5t-52.5 4.5v39h205 l217 -524l207 524h223v-39q-45 0 -61.5 -6.5t-16.5 -28.5v-512q0 -38 6 -54.5t22.5 -22t59.5 -7.5v-41h-291v41q43 2 59.5 7.5t22.5 22t6 54.5v506h-14l-246 -631h-16l-250 631h-14v-534q0 -33 25.5 -43.5t74.5 -12.5v-41h-250z" />
<glyph unicode="&#x25fc;" horiz-adv-x="915" d="M0 0v915h915v-915h-915z" />
</font>
</defs>
</svg>
