<?xml version="1.0" encoding="UTF-8" standalone="no"?>
<!-- Created with Inkscape (http://www.inkscape.org/) -->

<svg
   xmlns:dc="http://purl.org/dc/elements/1.1/"
   xmlns:cc="http://creativecommons.org/ns#"
   xmlns:rdf="http://www.w3.org/1999/02/22-rdf-syntax-ns#"
   xmlns:svg="http://www.w3.org/2000/svg"
   xmlns="http://www.w3.org/2000/svg"
   xmlns:xlink="http://www.w3.org/1999/xlink"
   xmlns:sodipodi="http://sodipodi.sourceforge.net/DTD/sodipodi-0.dtd"
   xmlns:inkscape="http://www.inkscape.org/namespaces/inkscape"
   width="1000"
   height="1000"
   id="svg2"
   version="1.1"
   inkscape:version="0.48.2 r9819"
   sodipodi:docname="Logo1.svg">
  <defs
     id="defs4">
    <linearGradient
       id="linearGradient4006">
      <stop
         style="stop-color:#000000;stop-opacity:0.39111111"
         offset="0"
         id="stop4008" />
      <stop
         id="stop4010"
         offset="0.49394917"
         style="stop-color:#f6f6f6;stop-opacity:0.33333334" />
      <stop
         style="stop-color:#000000;stop-opacity:0.25777778"
         offset="1"
         id="stop4012" />
    </linearGradient>
    <linearGradient
       id="linearGradient3986">
      <stop
         id="stop3988"
         offset="0"
         style="stop-color:#000000;stop-opacity:0.2820513;" />
      <stop
         style="stop-color:#f6f6f6;stop-opacity:0.06837607;"
         offset="0.37590244"
         id="stop3990" />
      <stop
         id="stop3994"
         offset="1"
         style="stop-color:#000000;stop-opacity:0.14529915;" />
    </linearGradient>
    <linearGradient
       id="linearGradient3966">
      <stop
         id="stop3968"
         offset="0"
         style="stop-color:#000000;stop-opacity:0.23931624;" />
      <stop
         style="stop-color:#f6f6f6;stop-opacity:0.17241379"
         offset="0.58186924"
         id="stop3970" />
      <stop
         id="stop3972"
         offset="1"
         style="stop-color:#000000;stop-opacity:0.14529915;" />
    </linearGradient>
    <linearGradient
       id="linearGradient3930">
      <stop
         style="stop-color:#000000;stop-opacity:0.23931624;"
         offset="0"
         id="stop3932" />
      <stop
         id="stop3938"
         offset="0.5"
         style="stop-color:#f6f6f6;stop-opacity:0.11111111;" />
      <stop
         style="stop-color:#000000;stop-opacity:0.14529915;"
         offset="1"
         id="stop3934" />
    </linearGradient>
    <linearGradient
       id="linearGradient3900">
      <stop
         style="stop-color:#8edfff;stop-opacity:1;"
         offset="0"
         id="stop3902" />
      <stop
         id="stop3910"
         offset="0.25"
         style="stop-color:#a0e4ff;stop-opacity:0.74901961;" />
      <stop
         id="stop3908"
         offset="0.68143618"
         style="stop-color:#b3e9ff;stop-opacity:0.49803922;" />
      <stop
         style="stop-color:#fffc92;stop-opacity:0;"
         offset="1"
         id="stop3904" />
    </linearGradient>
    <linearGradient
       id="linearGradient3871">
      <stop
         style="stop-color:#12452a;stop-opacity:1;"
         offset="0"
         id="stop3873" />
      <stop
         id="stop3879"
         offset="0.48330292"
         style="stop-color:#4e4011;stop-opacity:0.49803922;" />
      <stop
         style="stop-color:#4b3b1c;stop-opacity:0.24705882;"
         offset="0.74165148"
         id="stop3881" />
      <stop
         style="stop-color:#5e3818;stop-opacity:0;"
         offset="1"
         id="stop3875" />
    </linearGradient>
    <linearGradient
       id="linearGradient3830">
      <stop
         style="stop-color:#56aad4;stop-opacity:1;"
         offset="0"
         id="stop3832" />
      <stop
         style="stop-color:#c7a063;stop-opacity:0;"
         offset="1"
         id="stop3834" />
    </linearGradient>
    <pattern
       inkscape:stockid="Wavy"
       id="Wavy"
       height="5.1805778"
       width="30.066020"
       patternUnits="userSpaceOnUse"
       inkscape:collect="always">
      <path
         id="path5475"
         d="M 7.597,0.061 C 5.079,-0.187 2.656,0.302 -0.01,1.788 L -0.01,3.061 C 2.773,1.431 5.173,1.052 7.472,1.280 C 9.770,1.508 11.969,2.361 14.253,3.218 C 18.820,4.931 23.804,6.676 30.066,3.061 L 30.062,1.788 C 23.622,5.497 19.246,3.770 14.691,2.061 C 12.413,1.207 10.115,0.311 7.597,0.061 z "
         style="fill:black;stroke:none;" />
    </pattern>
    <filter
       id="filter4081"
       inkscape:label="Drop shadow"
       width="1.5"
       height="1.5"
       x="-.25"
       y="-.25">
      <feGaussianBlur
         id="feGaussianBlur4083"
         in="SourceAlpha"
         stdDeviation="1.4"
         result="blur" />
      <feColorMatrix
         id="feColorMatrix4085"
         result="bluralpha"
         type="matrix"
         values="1 0 0 0 0 0 1 0 0 0 0 0 1 0 0 0 0 0 0.5 0 " />
      <feOffset
         id="feOffset4087"
         in="bluralpha"
         dx="3"
         dy="0"
         result="offsetBlur" />
      <feMerge
         id="feMerge4089"
         result="fbSourceGraphic">
        <feMergeNode
           id="feMergeNode4091"
           in="offsetBlur" />
        <feMergeNode
           id="feMergeNode4093"
           in="SourceGraphic" />
      </feMerge>
      <feColorMatrix
         result="fbSourceGraphicAlpha"
         in="fbSourceGraphic"
         values="0 0 0 -1 0 0 0 0 -1 0 0 0 0 -1 0 0 0 0 1 0"
         id="feColorMatrix4095" />
      <feGaussianBlur
         id="feGaussianBlur4097"
         in="fbSourceGraphicAlpha"
         stdDeviation="1.4"
         result="blur" />
      <feColorMatrix
         id="feColorMatrix4099"
         result="bluralpha"
         type="matrix"
         values="1 0 0 0 0 0 1 0 0 0 0 0 1 0 0 0 0 0 0.5 0 " />
      <feOffset
         id="feOffset4101"
         in="bluralpha"
         dx="-3"
         dy="0"
         result="offsetBlur" />
      <feMerge
         id="feMerge4103">
        <feMergeNode
           id="feMergeNode4105"
           in="offsetBlur" />
        <feMergeNode
           id="feMergeNode4107"
           in="fbSourceGraphic" />
      </feMerge>
    </filter>
    <linearGradient
       inkscape:collect="always"
       xlink:href="#linearGradient3830"
       id="linearGradient3842"
       x1="779.75751"
       y1="571.04248"
       x2="783.3927"
       y2="898.2135"
       gradientUnits="userSpaceOnUse" />
    <linearGradient
       inkscape:collect="always"
       xlink:href="#linearGradient3871"
       id="linearGradient3877"
       x1="296.90286"
       y1="503.57413"
       x2="285.53925"
       y2="598.39807"
       gradientUnits="userSpaceOnUse" />
    <linearGradient
       inkscape:collect="always"
       xlink:href="#linearGradient3900"
       id="linearGradient3906"
       x1="515.17914"
       y1="141.00786"
       x2="509.80405"
       y2="627.02679"
       gradientUnits="userSpaceOnUse" />
    <linearGradient
       inkscape:collect="always"
       xlink:href="#linearGradient3930"
       id="linearGradient3936"
       x1="372.7421"
       y1="482.90384"
       x2="611.65369"
       y2="481.13394"
       gradientUnits="userSpaceOnUse" />
    <linearGradient
       inkscape:collect="always"
       xlink:href="#linearGradient3966"
       id="linearGradient3964"
       x1="596.66638"
       y1="542.01239"
       x2="818.94971"
       y2="527.85309"
       gradientUnits="userSpaceOnUse" />
    <linearGradient
       inkscape:collect="always"
       xlink:href="#linearGradient4006"
       id="linearGradient4004"
       x1="518.3468"
       y1="491.29877"
       x2="756.46991"
       y2="500.14832"
       gradientUnits="userSpaceOnUse" />
  </defs>
  <sodipodi:namedview
     id="base"
     pagecolor="#ffffff"
     bordercolor="#666666"
     borderopacity="1.0"
     inkscape:pageopacity="0.0"
     inkscape:pageshadow="2"
     inkscape:zoom="0.55017106"
     inkscape:cx="818.24234"
     inkscape:cy="497.00837"
     inkscape:document-units="px"
     inkscape:current-layer="layer10"
     showgrid="false"
     showguides="true"
     inkscape:guide-bbox="true"
     inkscape:window-width="1366"
     inkscape:window-height="746"
     inkscape:window-x="-8"
     inkscape:window-y="-8"
     inkscape:window-maximized="1">
    <inkscape:grid
       type="xygrid"
       id="grid3020"
       empspacing="5"
       visible="true"
       enabled="true"
       snapvisiblegridlinesonly="true" />
  </sodipodi:namedview>
  <metadata
     id="metadata7">
    <rdf:RDF>
      <cc:Work
         rdf:about="">
        <dc:format>image/svg+xml</dc:format>
        <dc:type
           rdf:resource="http://purl.org/dc/dcmitype/StillImage" />
        <dc:title />
      </cc:Work>
    </rdf:RDF>
  </metadata>
  <g
     inkscape:label="Layer 1"
     inkscape:groupmode="layer"
     id="layer1"
     transform="translate(0,-52.362183)"
     style="display:inline">
    <path
       sodipodi:type="arc"
       style="fill:none;stroke:#000000;stroke-width:6;stroke-miterlimit:4;stroke-dasharray:none;fill-opacity:1"
       id="path2985"
       sodipodi:cx="517.14288"
       sodipodi:cy="510"
       sodipodi:rx="497.14285"
       sodipodi:ry="507.14285"
       d="m 1014.2857,510 c 0,280.08726 -222.5784,507.1429 -497.14282,507.1429 C 242.57847,1017.1429 20.000031,790.08726 20.000031,510 20.000031,229.91274 242.57847,2.8571472 517.14288,2.8571472 791.7073,2.8571472 1014.2857,229.91274 1014.2857,510 z"
       transform="matrix(1,0,0,0.98323944,-16,52.41007)" />
    <path
       sodipodi:type="arc"
       style="fill:none;stroke:none"
       id="path2987"
       sodipodi:cx="560"
       sodipodi:cy="541.42859"
       sodipodi:rx="388.57144"
       sodipodi:ry="341.42856"
       d="m 948.57144,541.42859 c 0,188.56578 -173.96936,341.42856 -388.57144,341.42856 -214.60208,0 -388.57144,-152.86278 -388.57144,-341.42856 0,-0.58367 0.002,-1.16733 0.005,-1.75099"
       transform="matrix(-0.99950454,0.03147513,-0.03147513,-0.99950454,1083.5383,998.06129)"
       sodipodi:start="0"
       sodipodi:end="3.1467211"
       sodipodi:open="true" />
    <text
       xml:space="preserve"
       style="font-size:100px;font-style:normal;font-variant:normal;font-weight:normal;font-stretch:normal;line-height:125%;letter-spacing:0px;word-spacing:0px;fill:#000000;fill-opacity:1;stroke:none;font-family:Gabriela;-inkscape-font-specification:Gabriela"
       id="text2989"
       sodipodi:linespacing="125%"
       transform="matrix(0.8014198,0.59810225,-0.59810225,0.8014198,409.57488,-177.59642)"><textPath
         xlink:href="#path2987"
         id="textPath2993"><tspan
   id="tspan2991">County Coast</tspan></textPath></text>
    <path
       sodipodi:type="arc"
       style="fill:none;stroke:none"
       id="path2997"
       sodipodi:cx="521.42859"
       sodipodi:cy="838.57141"
       sodipodi:rx="521.42859"
       sodipodi:ry="521.42859"
       d="M 1042.8572,838.57141 C 1042.8572,1126.5485 809.40565,1360 521.42859,1360 340.75614,1360 172.95928,1266.4726 77.93852,1112.8055"
       transform="matrix(-0.55825585,0.55129052,0.51430179,0.51275141,385.55233,-86.754303)"
       sodipodi:start="0"
       sodipodi:end="2.5877864"
       sodipodi:open="true" />
    <flowRoot
       xml:space="preserve"
       id="flowRoot3001"
       style="font-size:100px;font-style:normal;font-variant:normal;font-weight:normal;font-stretch:normal;line-height:125%;letter-spacing:0px;word-spacing:0px;fill:#000000;fill-opacity:1;stroke:none;font-family:Gabriela;-inkscape-font-specification:Gabriela"
       transform="translate(0,52.362183)"><flowRegion
         id="flowRegion3003"><rect
           id="rect3005"
           width="728.57141"
           height="165.71428"
           x="80"
           y="400"
           style="font-size:100px" /></flowRegion><flowPara
         id="flowPara3007" /></flowRoot>    <path
       style="opacity:0.12931034;fill:none;stroke:none"
       id="path4014"
       d="m 960.36273,368.55345 c -1.99344,23.22572 -1.86182,46.58183 -1.81347,69.8749 0.16939,19.66736 0.92825,39.31803 0.29039,58.98065 -1.82062,24.27511 -4.76195,48.44525 -7.14081,72.66631 -2.39245,24.35937 -4.48275,48.74746 -6.72332,73.12127 -4.55704,51.23503 -9.36926,102.49725 -17.21277,153.3501 -3.4805,18.61493 -4.12661,26.82472 -30.10646,31.27215 -2.88443,0.49378 -3.25792,-4.90815 -4.36542,-7.61688 -1.75924,-4.30278 -2.79169,-8.86803 -4.18754,-13.30204 -8.41487,-41.06779 -9.03131,-83.12388 -4.65439,-124.73155 3.59388,-34.16396 9.2161,-61.79939 15.29881,-95.6689 12.20961,-61.62754 28.60096,-122.31806 41.85914,-183.71119 7.53054,-34.87082 8.12019,-40.32125 14.08197,-74.7617 6.85198,-45.53945 11.63051,-91.56149 10.96989,-137.66064 -0.15836,-3.05031 -0.0751,-6.12281 -0.47508,-9.15092 -0.23453,-1.77568 -0.22514,-3.84679 -1.41809,-5.18279 -0.53855,-0.60312 -2.83882,1.45988 -2.04543,1.30395 5.66745,-1.11382 14.12779,-9.3211 16.8095,-4.20553 3.42536,6.53416 -5.99691,13.51273 -8.24725,20.5387 -3.56464,11.12946 -6.11285,22.55924 -9.16928,33.83885 -3.03417,15.09142 -6.37009,30.1253 -9.10252,45.27426 -6.37617,35.35031 -12.3454,77.52246 -17.06417,112.89738 -8.66279,64.94173 -15.66086,130.02629 -22.336,195.19544 -7.98292,92.7859 -15.80415,185.61992 -20.73586,278.62739 -0.13746,4.8169 -0.27492,9.63381 -0.41238,14.45072 0.41424,0.37986 1.80455,1.12394 1.24272,1.13958 -7.30031,0.20316 -17.49115,5.25594 -21.90214,-0.56463 -5.01153,-6.61302 1.87543,-16.48889 2.72344,-24.74287 3.85159,-37.48882 4.36547,-45.63495 7.85002,-86.02799 5.3995,-75.10614 10.92367,-150.29482 12.88859,-225.5917 0.81374,-31.18277 0.91357,-62.383 0.84779,-93.57632 C 895.93975,362.61092 894.60062,344.41616 891.6582,263.504 885.42603,160.85638 874.70944,58.413933 857.39643,-42.972922 c 21.18453,-0.480552 -11.67045,-18.005172 -5.33069,-22.236752 6.45679,-4.309694 15.90455,-11.65372 22.18372,-7.089108 6.06267,4.407232 -0.89807,14.967998 -1.03644,22.462031 -0.22609,12.245452 0.0273,24.495322 -0.0567,36.742573 -0.12872,18.7650019 -0.38766,37.528884 -0.58149,56.293327 0.0586,113.108251 -6.7988,226.145771 -15.91629,338.848651 -0.49469,6.11492 -13.57665,152.55314 -14.60583,164.08389 -8.31544,87.72536 -17.07817,175.45233 -20.52143,263.53235 -0.10839,5.73943 -0.25347,11.47829 -0.32517,17.2183 -0.043,3.44194 -0.0599,6.88465 -0.0189,10.32663 0.11329,9.51119 4.31161,19.96545 -23.0901,11.90089 -4.66826,-1.37391 0.37352,-9.72541 0.59954,-14.58639 0.46945,-10.09624 0.99122,-20.18999 1.48683,-30.28498 3.61817,-100.18628 11.24106,-200.17273 18.42144,-300.14922 4.72386,-65.77291 9.15939,-126.5084 13.93968,-192.18926 4.95708,-68.58223 7.97716,-137.29847 9.52512,-206.03868 0.29172,-12.954466 0.44754,-25.912088 0.53848,-38.869517 0.18259,-26.017974 1.84999,-17.285223 -1.5165,-30.956825 7.03313,2.152121 18.40357,-0.386817 21.09939,6.456364 4.86785,12.356746 -2.1164,26.479444 -2.90178,39.737207 -1.17061,19.760611 -2.16579,39.532571 -2.96579,59.311661 -3.36201,83.12155 -4.67894,166.33987 -6.60632,249.50187 -1.11787,92.45286 -4.82906,184.85077 -6.45717,277.29197 -1.06404,60.41406 -1.04457,120.81535 -0.19065,181.22753 -30.11519,13.71487 14.84515,31.28435 7.51892,44.37721 -2.83475,5.06605 -14.56624,12.12484 -16.14207,6.53758 -2.525,-8.95263 7.89885,-16.90079 10.71922,-25.7648 9.59747,-30.16342 17.32661,-72.54226 23.48526,-102.32199 20.1318,-106.75529 34.62401,-214.45301 49.07744,-322.08976 1.07748,-8.15 2.1537,-16.30017 3.23243,-24.45 1.05067,-7.93787 1.07937,-36.9254 25.01254,-22.36079 6.51966,3.96757 -0.61897,15.25409 -1.17287,22.86597 -2.09027,28.72491 -4.9876,54.05643 -7.98971,83.01265 -2.1188,18.32616 -4.03585,36.67677 -6.35639,54.97848 -2.54567,20.07724 -5.45565,40.10666 -8.24142,60.152 -5.66564,40.76775 -9.45762,68.80779 -16.26412,109.01565 -5.95274,35.16451 -8.93111,48.67379 -15.72091,82.26898 -2.11933,9.55556 -4.13914,19.13373 -6.35798,28.66667 -4.33239,18.61343 -7.66566,48.27689 -36.86496,45.96622 -6.04207,-0.47814 -6.2941,-10.44072 -8.41476,-16.11857 -3.87948,-10.3869 -6.34039,-21.24975 -9.51059,-31.87463 -22.9154,-82.76004 -33.91993,-168.09202 -42.88525,-253.29779 -7.21244,-68.54648 -8.7852,-93.69028 -14.14981,-161.35286 -3.66163,-55.07592 -6.55155,-110.22734 -7.30862,-165.42821 -0.1341,-9.77764 -0.27571,-19.56087 -0.004,-29.33566 0.12717,-4.5799 -2.53777,-11.04163 1.19908,-13.69259 7.09207,-5.0312 17.03078,-3.52054 25.54617,-5.28081 1.31961,10.52166 2.862,21.01778 3.95884,31.565 3.89689,37.47274 6.73194,77.23378 8.73512,114.65091 2.76565,51.65918 4.85801,101.76761 3.43319,153.55178 -0.7398,26.88779 -3.06094,53.70878 -4.59141,80.56317 -5.72921,66.05959 -15.07323,131.88792 -31.98834,196.07938 -5.75591,21.84323 -14.3826,51.9623 -26.39916,72.37514 -3.59858,6.11299 -9.09485,10.8884 -13.64228,16.3326 -11.20264,4.232 -21.65609,13.44613 -33.60792,12.69601 C 685.24108,891.08699 665.7699,849.84719 664.42341,846.7042 657.8927,831.46024 652.70113,815.64988 647.90358,799.77501 631.11835,744.2334 626.34906,713.77078 614.15623,654.98811 588.15239,518.54125 572.31995,380.38286 562.0728,241.92244 c -3.0878,-41.72267 -7.31228,-122.88425 -9.705,-166.985145 -2.04476,-45.816317 -3.67035,-91.681152 -2.63389,-137.546948 0.13767,-6.092122 0.24053,-12.193555 0.75596,-18.265395 0.14665,-1.72761 -0.50234,-4.891424 1.2237,-5.055475 8.23399,-0.782595 16.45158,1.729149 24.67736,2.593723 1.73985,43.102065 1.57341,28.421263 1.13956,82.78842913 -0.43335,54.30570387 -0.93918,90.76078687 -3.85393,146.04193087 -2.84178,53.89723 -8.90903,128.65581 -13.0171,182.20543 -11.30813,130.2184 -25.5723,260.19368 -44.68845,389.50402 -1.24549,14.07563 -4.85674,27.77015 -6.87811,41.71826 -0.0917,0.63255 0.85247,1.93583 0.21404,1.90547 -7.00538,-0.33304 -18.35604,3.67219 -20.84098,-2.88611 -3.97236,-10.48394 4.8437,-21.89319 7.30807,-32.83027 4.1177,-18.27465 8.29208,-36.53648 12.43811,-54.80472 5.28739,-23.53279 10.60609,-47.05857 15.86216,-70.59837 5.81038,-26.0223 11.41966,-52.08967 17.33718,-78.08781 22.29799,-97.96436 45.99547,-195.59591 70.78467,-292.9564 6.38481,-24.20632 15.49682,-59.73276 22.93041,-84.69192 2.1957,-7.37232 4.39079,-14.76311 7.1849,-21.93007 1.3609,-3.49074 1.6198,-8.98251 5.24119,-9.94311 8.20616,-2.17676 21.14318,-5.52875 25.40517,1.8139 7.04464,12.13664 0.0558,28.06594 0.0838,42.0989 -3.91891,177.70749 -14.67608,355.3882 -37.5754,531.72602 -4.73508,36.46288 -10.67069,72.75979 -16.00604,109.13969 -13.61409,73.3586 -25.97235,147.0802 -43.81296,219.58173 -3.27157,13.2952 -6.97067,26.4849 -10.80766,39.628 -8.11067,27.7822 -3.20696,19.9423 -13.74605,33.4241 -8.48967,-2.4513 -22.143,0.8328 -25.469,-7.3538 -6.14042,-15.114 1.29201,-32.6116 2.62655,-48.8707 2.11446,-25.7611 5.02504,-51.45111 7.71788,-77.15822 2.49224,-23.79221 19.96853,-184.01595 22.41529,-203.92861 4.69516,-38.21105 10.20117,-76.3181 15.30176,-114.47714 15.29249,-107.65258 33.39799,-214.91388 54.77084,-321.52918 5.8915,-29.38887 12.37989,-58.65495 18.62141,-87.97147 5.17937,-24.32762 10.22754,-48.68428 15.64123,-72.96083 4.3574,-19.53983 9.11386,-38.98852 13.67079,-58.48278 9.23488,-36.365975 10.89382,-44.190051 20.39615,-77.483624 2.13902,-7.494546 4.26895,-14.9959961 6.70058,-22.4007793 1.24275,-3.7844297 0.9765,-8.9706817 4.31491,-11.1435477 34.03527,-22.152469 22.42838,-1.418326 18.78112,18.462764 -14.45886,65.029749 -29.51363,129.925047 -44.18504,194.906667 -14.97962,66.3468 -25.98998,118.51813 -42.74436,184.66105 -7.91633,31.25212 -16.6949,62.27947 -25.04235,93.41921 -29.37,101.56302 -62.26682,202.4112 -104.25765,299.54316 -16.58423,38.36214 -21.08075,45.86012 -38.9038,80.51334 -4.56638,7.76199 -8.50437,15.92969 -13.69915,23.28595 -6.72192,9.51883 -24.76418,23.63072 -37.80526,11.29813 -7.70583,-7.2872 -2.8353,-21.04066 -3.47326,-31.62726 -2.03591,-33.78496 -1.56916,-95.64043 -1.65713,-125.33951 -0.38483,-35.12989 -0.56704,-70.26258 -1.15448,-105.38967 -2.115,-126.47178 -3.38801,-110.99696 -4.19481,-236.8695 -0.22646,-35.3301 -0.20578,-70.66341 0.15978,-105.99234 0.30908,-29.87011 1.3669,-59.72817 1.86405,-89.59575 0.38913,-23.37804 0.52983,-46.75956 0.79475,-70.13934 1.12533,-44.650573 1.04323,-49.790903 2.72518,-90.211696 0.30585,-7.350166 1.16764,-14.68709 1.08072,-22.043103 -0.0145,-1.222522 -2.58998,-3.582013 -1.38134,-3.397771 33.7941,5.151444 17.83117,10.935196 9.15445,47.687707 -32.4897,147.304833 -51.79735,297.046173 -70.84974,446.548983 -5.28247,41.20529 -9.98686,82.48035 -14.87432,123.7333 -0.74411,6.28068 -1.58315,12.55081 -2.23407,18.84182 -0.15424,1.49073 1.31748,4.43889 -0.18025,4.49245 -7.50056,0.26821 -14.80757,-2.46117 -22.21136,-3.69175 4.4551,-71.38769 6.1592,-142.91398 9.77698,-214.3401 1.36852,-27.01889 2.62133,-54.05282 4.79775,-81.01866 2.19262,-27.16664 5.53759,-54.22795 8.30639,-81.34192 3.78895,-25.26347 6.95044,-50.62905 11.36686,-75.79042 7.37908,-42.0403 16.95575,-83.25221 28.13766,-124.408023 6.86469,-25.265981 15.85257,-54.232554 25.01428,-79.1382675 2.89421,-7.8677785 6.29367,-15.5403775 9.4405,-23.3105655 7.09142,-10.323457 16.37043,-29.766127 36.66247,-15.134208 8.36842,6.034186 5.59079,19.902422 7.31457,30.07446 6.17081,36.413777 11.203,98.928694 14.0984,132.341494 2.90052,33.47172 5.55067,66.96467 8.326,100.44701 14.03669,169.31244 21.80094,339.2114 19.59372,509.131 -1.21275,93.36238 -3.38025,113.74496 -8.69161,202.73286 -3.51933,55.39473 -7.25155,110.86778 -15.06266,165.85938 -1.23051,8.663 -2.85541,17.2654 -4.30991,25.8936 -0.51502,3.0552 1.29521,8.0495 -1.59863,9.1563 -6.86122,2.6241 -14.69162,-0.078 -22.03743,-0.1164 14.275,-106.8453 21.3291,-214.63774 23.56703,-322.38516 0.62587,-30.13335 0.44653,-60.27805 0.6698,-90.41708 0.77446,-115.17567 -4.33003,-230.25807 -8.87767,-345.31069 31.43271,13.2729 -8.76801,-19.36886 -2.02626,-20.32835 7.17278,-1.02084 17.60796,-4.58494 21.68998,1.4007 4.99378,7.32259 -1.68183,17.64778 -2.69458,26.45303 -5.34642,46.48411 -5.44354,43.41174 -13.36215,94.25566 -17.62377,96.73546 -41.51843,192.47168 -74.1757,285.27284 -4.05345,11.51856 -8.53862,22.88063 -12.80793,34.32095 -3.39417,8.31548 -6.60738,16.70714 -10.18252,24.94644 -2.31555,5.33641 -4.60299,10.7115 -7.48303,15.76564 -5.22444,9.16831 -20.5795,18.34251 -30.95298,11.86566 -6.47455,-4.04249 -1.11688,-15.22959 -1.34966,-22.85896 -0.34077,-11.16935 -0.247,-22.34773 -0.37051,-33.5216 0.0314,-14.03254 0.0283,-28.06521 0.0941,-42.09763 0.10792,-23.00312 0.5688,-90.14746 1.0867,-110.47825 1.25087,-49.10381 2.49365,-85.78431 8.89729,-134.60713 2.76864,-21.10873 7.1491,-41.97458 10.72365,-62.96187 11.99779,-38.70871 16.0351,-66.99668 42.98222,-98.45115 19.9853,-23.32818 57.29408,-41.71881 86.92995,-45.23947 34.8728,-4.14279 57.17541,14.11802 85.63332,29.54272 12.42392,12.1656 26.2387,23.05705 37.27177,36.49681 33.80329,41.17696 59.75432,100.08721 63.23944,153.57848 3.08333,47.32444 -6.41607,70.69632 -17.61669,115.82141 -8.25332,17.94635 -14.87095,36.73944 -24.75995,53.83904 -10.58339,18.30032 -23.41209,35.2554 -36.40778,51.92938 -33.50363,42.98649 -73.15616,81.54329 -115.87025,115.28913 -10.34103,8.16982 -21.2915,15.53718 -31.93725,23.30578 -18.69269,11.63072 -41.55841,27.26568 -62.63507,33.32867 -5.27719,1.51806 -12.13986,1.55347 -16.356,-1.96469 -14.2594,-11.89875 -13.84204,-50.22607 -14.34465,-61.42564 -0.92312,-20.56968 -0.41289,-41.1787 -0.61934,-61.76805 2.33639,-149.90157 0.38962,-301.48181 31.89269,-448.92494 5.55463,-25.99725 13.60264,-51.39855 20.40396,-77.09782 9.64889,-21.08234 16.88873,-43.44369 28.94668,-63.24703 31.67129,-52.01529 82.06521,-89.35856 142.75375,-99.694409 40.87248,-6.960978 59.17294,4.906646 96.109,18.112329 13.25548,11.23679 28.40704,20.55981 39.76645,33.71037 26.99472,31.25123 43.6561,70.65205 52.55737,110.54005 10.63574,47.66047 11.24818,97.26354 2.94984,145.32712 -4.39023,25.42797 -13.48478,49.8155 -20.22717,74.72325 -11.67051,23.98996 -21.43804,49.00296 -35.01154,71.96987 -26.76137,45.28134 -60.44693,84.9323 -98.29096,121.19435 -27.72787,26.56878 -68.84185,58.71555 -102.19017,79.08657 -17.00756,10.38918 -35.16626,18.76442 -52.74939,28.14662 -12.47706,3.13374 -24.62435,10.61872 -37.43118,9.40122 -27.63,-2.6267 -44.9021,-31.96202 -54.71491,-52.93346 -8.07912,-17.26627 -13.7482,-35.65064 -18.52459,-54.10552 -12.86756,-49.71736 -16.85365,-97.29938 -23.09386,-148.20441 -4.33155,-64.68812 -8.44251,-96.92729 -5.15683,-161.47874 1.21306,-23.83204 3.30105,-47.69208 7.32949,-71.21248 6.59447,-38.50249 17.32519,-76.9693 40.12927,-109.45941 9.91225,-14.12247 23.82063,-24.96729 35.73094,-37.45093 18.37091,-9.92611 35.41431,-22.85081 55.11273,-29.77831 16.85488,-5.92749 35.10471,-7.73885 52.96475,-8.23015 54.93528,-1.5112 114.7901,18.55795 161.35105,46.70221 16.224,9.80678 30.6247,22.3538 45.93705,33.5307 12.89334,13.54733 27.07524,25.97579 38.68004,40.64198 11.74196,14.83952 21.77473,31.02932 31.07206,47.51096 25.56349,45.31709 43.09474,95.97972 51.25578,147.34605 2.23119,14.04329 2.64068,28.316 3.96102,42.47399 -1.56572,26.41604 0.48575,42.03107 -11.58724,65.93631 -4.21658,8.34907 -10.16795,15.90354 -16.88886,22.40861 -14.83968,14.36309 -45.47871,26.65674 -63.5885,28.61222 -9.59585,1.03615 -18.8202,-4.29139 -28.2303,-6.43708 -9.43784,-5.71152 -19.72932,-10.20595 -28.31353,-17.13455 -21.02445,-16.96953 -35.77849,-38.06782 -48.05527,-61.93226 -12.65925,-24.60792 -23.91054,-57.0692 -28.75023,-84.35427 -2.46665,-13.90646 -2.48203,-28.13779 -3.72305,-42.20668 4.53027,-31.51489 2.56461,-46.0539 22.09114,-72.67798 7.7646,-10.5869 17.53666,-19.89264 28.34031,-27.35271 29.48232,-20.35798 57.04838,-32.19537 92.07998,-36.93004 14.63215,-1.97761 29.51664,-0.90047 44.27497,-1.3507 14.45684,2.59137 29.1673,4.03458 43.37051,7.77409 13.4834,3.55 26.58391,8.55036 39.40891,14.02064 30.41074,12.97115 58.3675,31.47932 81.02439,55.66892 5.26558,5.6218 9.57332,12.0696 14.35998,18.1044 2.92565,5.26826 6.42153,10.25807 8.77695,15.80478 4.38204,10.31914 5.81389,22.63357 0.82065,33.01939 -1.03908,2.16125 -2.20012,4.51796 -4.20047,5.84056 -8.31826,5.49992 -17.51525,9.53866 -26.27288,14.30798 -1.95697,-1.79882 -4.53376,-3.09918 -5.87093,-5.39646 -4.80218,-8.25025 -6.39603,-23.4572 -7.40823,-31.74191 -3.08095,-25.21728 -3.67864,-50.48567 -4.10267,-75.85006 0.021,-27.53658 -0.13416,-13.50169 0.3646,-37.66598 0.0649,-3.14608 -2.19768,-7.38392 0.18582,-9.43841 6.12199,-5.27692 14.83158,-13.22372 22.166,-9.828 5.57184,2.57967 -3.64079,11.73016 -5.27243,17.64944 -3.53554,12.82631 -6.81832,25.72096 -10.22748,38.58144 -38.25318,149.528 -64.63145,301.71718 -91.03957,453.67797 -1.31679,7.64132 -14.19406,82.53976 -16.61192,96.00836 -1.43477,7.99235 0.40277,17.48405 -4.52779,23.93586 -5.51056,7.21075 -16.61706,18.67897 -23.82877,13.16967 -8.73727,-6.67472 -1.89556,-21.92855 -2.02828,-32.92283 -0.2384,-19.75013 0.61045,-39.49843 0.91568,-59.24764 3.20023,-90.03625 7.46861,-180.05265 13.12293,-269.97015 4.46503,-71.00481 8.8837,-124.36876 14.03885,-195.1221 2.10194,-28.84869 4.08825,-57.70568 6.13238,-86.55852 3.39329,-60.52399 6.14997,-121.09329 7.35417,-181.704063 0.22253,-11.200169 0.45877,-22.402824 0.38345,-33.60495 -0.14134,-21.0218081 3.11991,-15.0672658 -3.64961,-24.2189009 6.18824,-0.3178406 16.7065,-6.8647281 18.56471,-0.9535219 3.29371,10.4777761 -6.28979,21.0568128 -8.89079,31.7276678 -3.89239,15.968939 -7.25345,32.064661 -10.5818,48.160618 -13.54156,65.48719 -24.56042,131.38223 -35.38755,197.35797 -17.1122,106.86988 -36.11747,213.42304 -54.36902,320.10161 -0.40947,2.41024 -5.87927,35.19247 -7.33234,42.0877 -0.23871,1.13274 -0.002,3.21575 -1.1585,3.27392 -7.81283,0.39306 -19.34815,4.66464 -23.37934,-2.03941 -5.72659,-9.52358 1.43781,-22.17888 2.14825,-33.26886 1.21167,-18.9142 2.41206,-37.82912 3.61809,-56.74369 4.77975,-101.33218 6.26467,-202.81825 5.08829,-304.25331 -0.26092,-22.49881 -0.95814,-44.99054 -1.35646,-67.48734 -0.33506,-18.92406 -0.56244,-37.84988 -0.84366,-56.77481 -0.33344,-34.964186 0.61823,-69.913221 2.08893,-104.8399835 0.1946,-4.621294 0.52492,-9.23789461 0.62014,-13.8623037 0.0153,-0.7438284 -1.02708,-2.3078189 -0.28914,-2.2131506 6.96872,0.8939997 13.68108,3.2058167 20.52162,4.808725 C 725.6723,107.23609 707.53749,217.303 691.30761,327.60204 c -4.34465,29.52641 -8.33823,59.10342 -12.50734,88.65513 -9.41143,70.33371 -17.23411,140.86564 -24.20266,211.47887 -2.72145,27.57688 -4.99315,55.18648 -7.65659,82.76665 -7.6636,-1.38343 -19.3768,2.74782 -22.99079,-4.15027 -5.91498,-11.29007 0.48465,-25.48688 0.78785,-38.22897 0.48755,-20.48908 1.10392,-40.97498 1.58438,-61.46423 0.64487,-27.50086 1.44218,-54.99961 1.79161,-82.50581 0.84291,-66.35046 0.33849,-127.41713 0.0957,-193.85317 -0.0656,-32.74043 -0.0359,-65.48118 -0.19665,-98.22128 -0.14655,-29.85376 -0.0698,-59.71249 -0.72513,-89.55941 -0.5583,-25.42675 -1.70095,-50.839036 -2.91544,-76.242892 -1.69554,-35.466163 -4.30903,-74.7165181 -7.65456,-110.374284 -1.11103,-11.841759 -2.59931,-23.645087 -3.89897,-35.46763 -0.14385,-0.996853 -3.97196,-32.759224 -6.8512,-38.195044 -0.59697,-1.12705 -4.97736,0.0648 -3.78944,0.52895 5.07074,1.98148 15.04013,-1.23003 15.79328,4.16176 1.77372,12.69794 -7.06934,24.658359 -10.02482,37.134284 -4.06237,17.148495 -7.34756,34.471852 -11.02134,51.707778 -22.41845,114.827325 -38.93072,230.694288 -55.06449,346.538458 -22.95987,-3.98741 6.51702,33.48011 -5.43779,38.40191 -6.5278,2.6875 -18.76825,3.8954 -20.99158,-2.80471 -4.17792,-12.59038 4.52521,-26.1442 7.06481,-39.1643 4.18377,-21.44941 8.73606,-42.82529 13.10409,-64.23793 4.76501,-24.84407 9.53001,-49.68815 14.29501,-74.53222 4.81372,-25.63862 9.74935,-51.25466 14.44117,-76.91587 4.4184,-24.165762 8.77539,-48.343774 12.88916,-72.563248 5.01787,-29.54222296 12.42047,-72.314967 14.58597,-103.772317 1.90535,-27.678245 4.20899,-27.325515 -5.90188,-16.92603 1.97579,5.973738 7.27368,11.774941 5.92736,17.921216 -4.82973,22.04882 -16.45863,42.051881 -23.74391,63.4154346 -8.90701,26.1191464 -16.90925,52.5423104 -24.81553,78.9815844 -26.59612,88.93961 -49.85834,178.87046 -73.88774,268.52345 -49.628,196.68757 9.13033,-36.61933 -31.90179,127.45953 -3.23942,12.95373 -6.17879,25.98974 -9.84296,38.82978 -1.55461,5.4477 -0.55431,13.82972 -5.79706,15.97628 -44.3159,18.14442 -19.21562,-53.68837 -18.70919,-59.25384 2.61272,-26.79427 5.13302,-53.59771 7.83817,-80.38281 6.28345,-62.21549 13.13571,-127.98101 20.89964,-189.9904 9.30734,-74.33651 14.81423,-107.256636 25.04946,-180.059502 3.38585,-24.083455 6.58626,-48.192618 9.87938,-72.288927 56.2194,-19.349515 -8.45975,-55.050981 3.50393,-78.263111 2.12715,-4.12714 10.64833,4.81293 10.24402,9.43836 -1.56867,17.94576 -11.29862,34.249375 -15.59211,51.744437 -12.67775,51.659156 -19.98734,103.290174 -28.58036,155.744303 -11.6575,76.37862 -20.71181,153.12012 -28.68975,229.95932 -0.36893,3.55337 -8.52519,84.69018 -8.94676,95.26617 -0.29369,7.36798 0.721,14.73003 1.0815,22.09504 3.25063,-2.25951 7.64475,-3.42711 9.75189,-6.77851 5.20934,-8.28549 6.2136,-18.77802 11.49634,-27.01691 14.68745,-22.90635 32.19563,-43.87705 48.11188,-65.94728 C 487.45607,299.83615 593.22,151.1155 609.84026,129.88672 636.52152,95.807222 665.6043,63.678124 693.48632,30.573825 c 63.41457,-61.265111 94.88639,-99.515411 169.93308,-143.917875 25.08393,-14.84128 52.06012,-26.67767 79.65293,-36.06404 42.22753,-14.36474 88.23937,-20.75777 132.58457,-13.28467 16.8146,2.8336 32.3359,10.8361 48.5039,16.25415 27.325,18.0665 41.5732,22.6963 58.6601,50.391112 4.8055,7.788808 9.5425,16.559872 9.6306,25.711399 0.082,8.520422 -1.9721,19.280653 -9.1529,23.867601 -51.2943,32.765617 -89.3686,20.705492 -147.661,18.313995 C 928.82288,-40.353799 912.40871,-40.070673 805.86066,-61.08192 768.96178,-68.358369 732.31137,-76.884627 695.76356,-85.757721 632.30672,-101.1638 582.61752,-116.07618 520.62564,-133.76756 c -20.07453,-5.72891 -40.16012,-11.41902 -60.24018,-17.12853 -12.0716,-3.32312 -24.14319,-6.64623 -36.21479,-9.96934 -1.8241,0.5447 -7.36508,1.43066 -5.4723,1.6341 18.29447,1.96628 37.37302,-1.32023 55.07553,3.69724 21.97643,6.22884 41.15268,19.84094 61.87513,29.45042 25.89574,12.00844 51.98254,23.60047 77.97381,35.400708 28.22351,13.162601 56.44701,26.325202 84.67052,39.487803 72.8699,36.34036 81.89871,39.707969 150.78933,78.259357 19.4019,10.857362 38.96557,21.492759 57.6671,33.516445 7.44036,4.783597 52.58792,32.552771 54.98153,51.783207 0.91178,7.32533 -7.21952,12.8781 -10.82928,19.31715 -16.65596,7.52429 -32.51846,17.13656 -49.96788,22.57289 -19.83894,6.18078 -86.36033,12.30119 -104.73121,13.90057 -49.22875,4.28589 -98.63679,6.414 -147.97718,8.92918 -8.27198,0.39691 -44.83487,1.82478 -55.98506,3.38881 -4.15337,0.58259 -16.13671,4.54769 -12.17849,3.16121 10.10647,-3.54008 19.94411,-9.31816 30.6481,-9.63072 12.35325,-0.36072 24.09019,5.59493 36.27213,7.67662 25.21768,4.30926 50.58991,7.65938 75.88486,11.48907 90.47442,9.56939 180.95553,19.16829 271.53755,27.67979 23.17564,2.17769 46.36854,4.16896 69.56114,6.15804 52.0132,4.46083 32.5991,4.11402 67.3791,3.60093 -17.9712,0.92441 -36.0409,4.86799 -53.9135,2.77324 -21.9017,-2.56697 -42.6482,-11.23952 -64.0389,-16.59778 -26.46078,-6.62827 -53.02955,-12.81865 -79.51173,-19.36082 -52.49301,-12.96792 -111.57793,-28.62229 -164.71361,-39.7657 -21.02207,-4.40867 -42.26275,-7.70169 -63.39413,-11.55254 -12.9957,0.50298 -26.29106,-1.31091 -38.98711,1.50895 -2.87226,0.63795 5.6344,2.9359 6.7876,5.64274 3.28734,7.71623 2.8825,16.65346 6.02433,24.43007 4.69293,11.61587 11.01053,22.53228 17.32132,33.35475 9.95621,17.07405 35.19058,53.83544 46.34495,70.33969 11.65505,17.57715 25.62467,37.05288 34.80177,56.36773 7.48022,15.74345 13.07969,34.12323 7.09232,51.35062 -1.21627,3.49957 -3.57723,6.48912 -5.36584,9.73368 -2.0919,2.2777 -4.03095,4.70588 -6.2757,6.8331 -6.96883,6.60397 -27.255,17.88558 -30.36429,18.20301 -3.6946,0.37719 -1.00397,-7.47999 -0.35074,-11.1359 1.79893,-10.06819 5.19927,-19.78428 7.64962,-29.71405 4.46023,-18.0746 8.72104,-36.19783 13.08155,-54.29674 18.53145,-82.792 34.31279,-166.14528 49.30401,-249.637956 12.92232,-71.9700613 17.07024,-94.980804 27.8609,-165.24073 3.20511,-20.869024 6.10369,-41.783984 9.15553,-62.675974 22.62982,-16.25836 -4.46951,-52.14751 9.76993,-71.55916 3.82211,-5.21042 17.3736,-10.10051 19.00043,-3.84667 3.4757,13.36121 -6.70794,26.79238 -9.51516,40.30985 -17.10013,82.34138 -15.71909,82.71959 -28.64058,170.961609 -4.01316,32.306167 -8.00316,64.615218 -12.03948,96.918499 -3.81314,30.517232 -7.85645,61.006102 -11.50889,91.542982 -8.90273,74.43305 -16.35345,149.06441 -22.01567,223.8139 -1.4255,28.52393 -1.01924,15.66252 -1.47346,38.57536 0,0 -19.66731,9.79765 -19.66731,9.79765 l 0,0 c 3.84866,-24.55309 1.66529,-10.82086 6.59892,-41.18888 8.57101,-50.21341 17.32507,-100.37968 24.78789,-150.77615 10.97198,-74.09384 13.21292,-94.78249 22.80248,-171.52967 4.03631,-32.303349 8.02625,-64.612475 12.03937,-96.918712 9.01525,-81.401305 10.9753,-88.229468 15.35304,-164.420598 0.68712,-11.95874 -3.45042,-24.81648 1.0429,-35.92025 3.11412,-7.6955 14.35879,-21.65012 19.67298,-15.2722 16.75336,20.10683 -53.08994,58.40047 -19.25194,76.11834 -12.58135,62.378804 -15.90598,77.551867 -27.94716,143.349776 -5.34611,29.213333 -10.37177,58.484401 -15.54741,87.728418 -14.42552,81.508876 -28.96088,163.023036 -39.95046,245.087636 -2.19047,17.03906 -4.57689,34.05406 -6.5714,51.11717 -1.04395,8.93106 -1.57378,17.91599 -2.54285,26.85549 -0.2256,2.08122 0.51296,4.78948 -1.03974,6.19358 -5.23167,4.731 -11.91676,7.55921 -18.04008,11.0603 -4.98227,2.84868 21.74611,-13.79685 13.32219,-10.90694 5.74127,-8.61266 8.78249,-11.18573 10.10773,-22.32952 4.18859,-35.22144 -21.05481,-68.96944 -37.77411,-97.25532 -30.96462,-46.53306 -15.17976,-23.24399 -47.3707,-69.85625 -1.06922,-1.60145 -33.17928,-46.43874 -29.52321,-56.94273 11.58281,-33.27779 35.26629,-22.78201 58.65601,-20.50679 19.72875,4.82957 39.48796,9.53635 59.18624,14.48872 74.62238,18.76087 86.31186,23.10396 164.00538,40.24944 27.54759,6.07924 55.17447,11.82587 82.90717,16.99563 23.5967,4.39876 48.1697,4.45531 71.0521,11.70451 9.5623,3.02935 15.8953,12.239 23.843,18.3585 -24.2204,-8.55174 -15.1908,-6.1276 -55.1008,-12.26464 -21.8484,-3.35967 -43.7733,-6.22378 -65.71784,-8.8842 -27.69024,-3.357 -55.43611,-6.24221 -83.17536,-9.1667 -92.72352,-9.77564 -95.84724,-9.67577 -189.08608,-17.99689 -28.56014,-1.5304 -57.13391,-2.82486 -85.68043,-4.59121 -14.36956,-0.88913 -30.55926,3.76878 -43.05909,-3.37467 -5.38798,-3.07915 2.71051,-12.70802 6.88981,-17.2955 2.20143,-2.41643 6.49121,-0.85343 9.7577,-0.97795 8.19946,-0.31256 47.36812,-0.18747 51.64596,-0.18502 48.09762,-0.76301 96.18753,-1.67543 144.12105,-6.20173 19.16776,-1.80998 38.34849,-3.75206 57.35373,-6.8311 26.42138,-4.28052 46.58821,-9.55874 71.01164,-15.64137 4.41082,-6.07076 12.85244,-10.71795 13.23246,-18.21229 C 946.89636,99.413803 911.29322,72.7306 900.54371,64.584146 883.29164,51.50978 864.73387,40.228143 846.3049,28.872697 779.00844,-12.593637 771.17389,-14.336327 697.85068,-50.901954 617.23407,-87.864526 612.12329,-91.882972 530.73541,-122.79926 c -22.86547,-8.68576 -47.81435,-12.59134 -69.14836,-24.55512 -9.67571,-5.426 -12.80734,-18.30287 -20.86778,-25.92456 -1.0899,-1.03058 -2.03398,2.20518 -3.05097,3.30778 10.0167,4.69767 20.03341,9.39535 30.05012,14.09303 18.39745,6.84976 36.58096,14.30415 55.19235,20.54927 55.1702,18.51257 117.16866,35.644506 173.28913,49.268587 36.5473,8.872402 73.19721,17.39791 110.09557,24.673603 106.55684,21.011097 122.94889,20.724088 229.77173,32.920112 31.3736,-1.105585 62.8201,-0.910992 94.1209,-3.316755 12.0702,-0.927713 25.5214,-0.109952 35.7013,-6.661324 7.0437,-4.533039 9.8084,-14.567089 10.2796,-22.930121 0.5113,-9.07459 -3.3178,-18.14806 -7.5108,-26.212099 -14.8499,-28.559883 -28.267,-33.170223 -54.3707,-52.183223 -15.3787,-5.84329 -30.029,-14.18148 -46.136,-17.52985 -70.24134,-14.602 -144.00519,8.16924 -204.23838,43.7605 -29.63273,17.50972 -57.37844,38.301998 -83.64512,60.544988 C 749.74726,-27.14905 722.73942,2.5794845 693.97512,30.366448 597.39474,145.03007 622.21709,110.675 536.73854,231.19543 c -21.66997,30.55358 -43.11603,61.27369 -63.94996,92.40335 -13.67553,20.43373 -24.82078,42.57738 -39.55926,62.25819 -36.08464,48.18506 -22.43786,44.64594 -51.03541,47.91321 9.6837,-63.56738 -4.13701,26.39606 10.85756,-67.31064 15.31373,-95.70122 28.49705,-191.7367 41.18647,-287.815058 6.755,-50.582401 13.17984,-101.209857 20.24425,-151.749976 2.24522,-16.062739 0.62363,-33.291206 7.18625,-48.123086 5.04722,-11.40699 13.53833,-26.70883 26.01053,-26.90346 28.8059,-0.44953 -85.32371,119.894128 -16.38504,84.860859 -4.38295,24.629846 -9.1004,49.202504 -13.14884,73.889538 -8.7185,53.164613 -19.18611,127.662433 -25.79233,180.422493 -8.02965,64.12828 -15.0965,124.07745 -18.1525,188.60662 -1.21271,25.60706 -0.69122,51.26686 -1.03684,76.9003 5.43437,59.21922 13.52928,35.49972 -10.38205,72.95849 -3.92933,6.15555 8.89149,-11.75011 11.8508,-18.42641 5.87432,-13.25269 9.98123,-27.22653 14.49168,-41.00322 12.37927,-37.81122 28.55413,-94.2203 39.34657,-131.00031 24.30575,-89.17561 48.47004,-178.37774 72.17808,-267.714353 6.80323,-25.635927 13.73025,-51.239349 20.40473,-76.9090972 5.14479,-19.7866448 6.77436,-40.7642728 15.05253,-59.4579128 6.79114,-15.33567 19.57966,-27.236859 29.36949,-40.855287 11.66833,3.93838 4.00956,0.0571 -1.46304,26.612717 -3.10225,15.053617 -6.4301,30.060068 -9.55101,45.109829 -14.60939,70.449967 -28.27991,141.092344 -40.30851,212.033524 -3.7572,24.34712 -8.04553,48.61819 -11.2716,73.04137 -2.67188,20.22763 -4.90068,40.52579 -6.41718,60.87269 -2.22198,29.81241 8.0005,40.1235 -20.4645,58.60359 -12.08989,7.84902 45.02185,-67.21707 12.26299,-41.46774 8.02558,-38.34118 10.44815,-48.84369 17.92676,-89.74802 15.67906,-85.75683 28.8732,-171.964293 40.37571,-258.374654 2.36824,-16.614225 4.79112,-33.220754 7.10473,-49.842676 1.61114,-11.575113 -0.37836,-24.207425 4.66942,-34.74777 3.41004,-7.12055 25.21052,-37.6828 27.26801,-24.34988 0.86751,5.62165 1.36728,40.88891 1.37458,41.225341 0.80664,50.434998 1.10652,100.857409 1.04237,151.300229 -0.033,25.956756 -0.33477,51.91321 -0.26312,77.86989 0.0824,29.85409 0.57871,59.70584 0.72527,89.55969 0.16073,32.74008 0.13107,65.48081 0.19661,98.22121 0.24139,66.05293 -0.008,126.83248 2.03735,192.76271 0.82452,26.57853 2.1378,53.14269 3.69853,79.68816 1.14453,19.46655 2.50202,38.92759 4.4164,58.33357 1.1566,11.72446 7.26981,23.4997 4.79259,35.01769 -2.1157,9.83706 -11.73246,16.35007 -17.5987,24.5251 1.96373,-4.07929 4.62914,-7.88998 5.89117,-12.23787 4.43488,-15.27884 12.69017,-65.54072 14.44953,-76.3518 11.65414,-71.61359 21.45409,-143.51885 31.95429,-215.30488 11.52222,-84.76441 23.29188,-169.49012 34.03105,-254.35848 4.9512,-39.1278 10.47215,-81.496193 13.95956,-121.05838 0.97139,-11.019628 1.38002,-22.081636 2.07003,-33.1224543 7.59481,-8.39308335 15.32353,-16.6669153 22.78444,-25.1792497 0.93832,-1.07056 -2.70269,1.496587 -3.19708,2.831552 -1.8,4.8603991 -2.58452,10.0503302 -3.46516,15.15796686 -6.2013,35.96719714 -8.117,72.59074614 -10.49162,108.93582514 -0.6368,19.38845 -1.47988,38.77122 -1.9104,58.16534 -1.01384,45.67231 -1.06527,100.25094 -1.2254,145.58606 -0.26429,74.82115 -0.57977,149.65111 0.84058,224.46443 0.80827,17.87768 1.32104,35.77117 2.42479,53.63304 0.62845,10.16998 5.94171,20.75896 2.77057,30.44231 -3.13449,9.57143 -13.77398,14.72061 -20.12151,22.54022 -1.30031,1.60187 3.97103,-1.94166 4.89727,-3.78527 3.90054,-7.7638 11.40581,-39.95179 12.5572,-44.48988 24.36558,-107.39076 45.33697,-215.55845 62.98747,-324.25634 10.39049,-64.78713 20.52243,-129.6051 29.67156,-194.581875 2.15999,-15.340183 4.24166,-30.691968 6.18753,-46.060778 1.2355,-9.758133 -1.45399,-20.736996 3.35616,-29.3166298 5.27629,-9.4110836 16.50992,-13.8943752 24.76488,-20.8415632 -3.14006,21.2069587 -5.32132,42.612857 -7.52128,63.924801 -6.42229,62.215355 -11.87617,124.526335 -17.53782,186.813585 -7.30239,93.9618 -14.87496,187.9268 -20.79037,281.98927 -4.14321,65.88232 -7.65789,122.17417 -7.39636,187.95229 0.1031,25.93114 1.69257,51.83506 2.53885,77.75259 2.05489,18.47335 3.42672,37.03552 6.16466,55.42005 1.31287,8.81557 7.68796,17.31758 5.97036,26.06331 -1.06586,5.42719 -11.7457,15.55949 -13.09121,10.19479 -2.23681,-8.91843 6.58785,-17.19366 9.11883,-26.03312 6.30962,-22.0364 19.05948,-80.14101 23.38878,-99.27206 13.12886,-62.32587 17.66531,-82.60069 30.07411,-147.10208 5.43545,-28.25372 10.57777,-56.56309 15.80114,-84.85677 13.36874,-72.41506 26.42524,-144.8911 37.01914,-217.776 1.57526,-11.96467 3.36485,-23.90307 4.72578,-35.89401 1.90872,-16.81739 -3.7664,-25.24355 23.75027,-27.77253 3.4586,-0.31787 -1.56865,6.77763 -2.02737,10.22038 -1.82071,13.6649 -1.92789,24.63042 -2.53083,38.60962 0.005,8.29825 -0.27197,16.60141 0.0137,24.89474 0.59836,17.37084 1.99528,32.83591 5.34251,49.86147 1.55306,7.89956 4.39114,21.19692 9.76266,28.5539 1.11348,1.52505 3.15317,2.07846 4.72975,3.11768 -5.29575,3.53658 -10.15841,7.82893 -15.88724,10.60972 -2.17927,1.05783 3.66846,-3.26085 4.96418,-5.30763 1.57929,-2.49471 2.81721,-5.25743 3.53684,-8.12097 3.76026,-14.96257 -1.74248,-27.55016 -8.50828,-40.66867 -4.32204,-6.19889 -8.1093,-12.80723 -12.96613,-18.59667 -20.80239,-24.79688 -47.84212,-44.04165 -77.2949,-57.23412 -12.54143,-5.61755 -25.41905,-10.67656 -38.69716,-14.21718 -14.10208,-3.76034 -28.74662,-5.06628 -43.11993,-7.59943 -43.30578,1.63864 -45.38604,-1.41989 -86.78574,12.63196 -8.59443,2.91711 -17.20362,6.45931 -24.531,11.81498 -22.55326,16.48447 -36.59009,33.51025 -45.32687,60.27572 -4.08738,12.52188 -4.34585,25.98327 -6.51878,38.9749 1.02464,14.09068 0.72963,28.34 3.07394,42.27202 4.79381,28.48919 15.49879,58.20588 29.32257,83.52339 12.73448,23.3225 28.26144,44.02122 49.70571,60.04139 8.8469,6.60916 19.3416,10.66288 29.01239,15.99432 9.46721,1.80462 19.05997,3.04361 28.40162,5.41388 3.38174,0.85806 6.25068,5.27468 9.57716,4.22255 8.37026,-2.64744 15.65066,-8.34883 22.14497,-14.25595 16.17706,-14.7144 24.21374,-30.94344 28.94248,-52.25196 2.67431,-12.05093 2.58528,-24.55247 3.87792,-36.8287 -0.80402,-14.36665 -0.59552,-28.82594 -2.41207,-43.09995 -8.68366,-68.23445 -37.35403,-141.30809 -80.14924,-195.37611 -11.56033,-14.60548 -25.59295,-27.07113 -38.38943,-40.6067 -15.25759,-11.14339 -29.59749,-23.6665 -45.77278,-33.43017 -46.80363,-28.25145 -106.56459,-47.79971 -161.74959,-45.63703 -18.01156,0.70587 -36.08503,3.71578 -53.32625,8.97458 -12.73442,3.88416 -23.72133,12.09573 -35.582,18.1436 -12.26489,12.5253 -26.44996,23.42325 -36.79468,37.57589 -24.04034,32.88967 -36.65821,71.8244 -44.58793,111.2418 -15.48366,76.96686 -11.9878,155.9642 -3.9917,233.49176 8.46719,54.98191 11.82693,92.43977 28.71962,144.98569 5.74461,17.86901 12.55079,35.55876 21.61111,51.9969 10.13162,18.38179 30.61256,47.18163 55.44257,50.32591 11.60953,1.47015 22.87792,-4.93662 34.31689,-7.40493 11.71719,-5.78649 23.9623,-10.60847 35.15158,-17.35948 17.82545,-10.75491 35.1065,-22.46809 51.69928,-35.04166 60.64851,-45.95779 115.09724,-101.06588 153.88375,-167.05734 13.41226,-22.81965 22.90656,-47.72619 34.35985,-71.58929 6.53681,-24.77543 15.48524,-49.03728 19.61044,-74.32631 13.88008,-85.09008 -0.94155,-186.07686 -60.85794,-251.98453 -11.66233,-12.8285 -26.88142,-21.90231 -40.32213,-32.85346 -15.27824,-5.44138 -29.90067,-13.30101 -45.83472,-16.32413 -23.87117,-4.529005 -66.13897,-3.408341 -89.53072,7.69383 -35.91234,17.04469 -66.68681,47.83663 -87.85345,80.84514 -12.9075,20.12871 -21.06955,42.9319 -31.60433,64.39784 -7.56903,26.06259 -16.72264,51.71636 -22.70709,78.18775 -6.62184,29.29084 -11.09262,59.05595 -15.04965,88.82412 -4.21271,31.69156 -7.16469,63.5559 -9.44493,95.44481 -6.2074,86.81011 -5.75569,173.97648 0.0769,260.7837 1.94259,19.63633 2.97004,39.38483 5.82776,58.90897 1.57689,10.77343 5.97465,45.06411 19.21774,55.66881 3.71914,2.97819 9.42714,1.41079 14.10496,2.3161 17.11989,3.31324 -7.40028,8.68747 33.17931,-15.55507 11.39026,-8.03143 23.1035,-15.62335 34.1708,-24.0943 43.91107,-33.60967 85.7504,-72.93765 119.76803,-116.62247 12.77998,-16.41182 25.12416,-33.29615 35.46988,-51.34171 9.78783,-17.07245 16.47042,-35.74641 24.70563,-53.61962 11.52821,-46.05591 20.61392,-66.90596 17.26351,-115.16218 -3.76048,-54.16242 -28.92839,-111.28298 -64.02809,-152.36801 -11.28342,-13.20749 -25.3715,-23.73395 -38.05725,-35.60093 -41.04773,-20.80132 -40.82722,-26.64663 -86.55946,-27.6469 -9.56807,-0.20928 -19.80211,0.0253 -28.39708,4.23456 -31.59513,15.47343 -49.79228,40.34079 -64.3802,71.60185 -8.27557,17.73406 -12.45396,37.10561 -18.68095,55.65842 -3.90334,21.12657 -8.81459,42.09157 -11.71004,63.3797 -3.0417,22.36344 -4.94094,44.89383 -6.08228,67.43431 -2.06235,40.72964 -0.26943,84.0254 1.07427,124.81956 0.54095,16.42307 1.08936,32.84653 1.81137,49.26264 0.59969,13.63502 1.43574,27.25862 2.15361,40.88793 1.07296,10.62213 1.64836,21.30636 3.21888,31.8664 0.98721,6.63788 6.69758,13.31673 4.44084,19.6368 -2.63525,7.38013 -11.66195,10.4837 -17.1822,16.04586 -2.38834,2.40648 5.71266,-3.86867 7.7708,-6.56299 7.65517,-10.02141 18.13964,-33.26562 22.83474,-42.84509 5.16464,-11.83489 10.64532,-23.53682 15.49393,-35.50465 29.31663,-72.36222 51.34502,-148.02363 65.92913,-224.7163 3.84492,-20.21905 6.4778,-40.64986 9.7167,-60.9748 4.22059,-43.77907 5.9029,-49.96603 6.28584,-90.57618 0.0773,-8.19876 -3.95311,-17.05736 -0.70846,-24.58715 4.13248,-9.59014 13.48185,-16.03638 21.23022,-23.03715 5.81778,-5.25646 -30.34505,51.35206 -4.04803,23.17121 -7.62122,117.61771 -6.36266,235.58996 -7.03118,353.38818 -0.26494,43.98392 -0.713,134.26984 -1.35664,178.61155 -0.70376,48.48332 -2.16384,96.95336 -2.9417,145.43553 -0.26257,16.3654 -0.61251,32.7324 -0.52698,49.0997 0.0506,9.6831 0.62355,19.3564 0.93533,29.0346 -6.67267,6.9458 -12.16462,15.2614 -20.018,20.8375 -3.40789,2.4198 4.67684,-7.0251 6.09967,-10.955 3.24449,-8.9615 5.55715,-18.2437 7.82331,-27.5011 13.83023,-56.4972 21.83437,-114.28719 27.80902,-172.07444 5.31209,-88.98687 7.47977,-109.36855 8.69307,-202.73 C 498.08423,556.68132 490.32047,386.78391 476.2847,217.47297 467.28815,139.5165 466.62331,115.97544 451.5057,43.622069 447.94981,26.60346 443.8653,9.6578216 438.64231,-6.925237 c -2.86283,-9.089548 -11.28824,-16.720871 -11.3248,-26.250529 -0.0263,-6.851946 10.86401,-10.418453 11.15787,-17.264146 0.23302,-5.428477 -7.29045,8.05854 -10.93567,12.08781 -4.11518,8.174716 -8.58858,16.178735 -12.34554,24.524148 -11.10516,24.668128 -22.96217,56.647012 -30.99707,81.821715 -13.37242,41.898079 -24.2766,83.314159 -32.73985,126.550669 -4.95654,25.32165 -8.3966,50.91671 -12.5949,76.37506 -2.69354,27.07109 -6.13103,54.07845 -8.08062,81.21326 -3.99694,55.63032 -4.21363,99.89279 -3.2495,155.35851 0.3551,20.42852 1.31991,40.84209 2.0895,61.2592 0.5357,14.21206 1.04862,28.42648 1.82633,42.62735 0.49617,9.06007 1.32993,18.0985 1.9949,27.14775 -6.78363,8.1456 -13.38633,16.44535 -20.35089,24.43681 -1.5674,1.79851 3.34117,-3.58965 4.14127,-5.83714 2.33018,-6.54559 3.59822,-13.42582 5.12887,-20.2031 9.59388,-42.479 16.3936,-85.54877 24.32968,-128.34564 3.69643,-22.30943 7.54823,-44.59366 11.08928,-66.92827 9.93808,-62.68269 14.50416,-96.33659 23.56214,-159.86165 5.61077,-39.34926 16.57976,-115.62013 21.88694,-156.10334 2.632,-20.07691 4.93455,-40.195635 7.40182,-60.293454 4.37183,-47.381357 -4.68982,-31.327812 26.80758,-65.05013376 1.50441,-1.61067284 -2.97366,3.43305406 -3.59939,5.54633646 -2.31938,7.8332763 -3.79815,15.9048623 -5.13831,23.9636293 -4.89124,29.412461 -8.19436,65.562866 -11.27644,94.445642 -1.8208,24.16351 -4.36813,48.28324 -5.4624,72.49054 -2.18125,48.25343 -2.31418,150.39864 -2.02466,195.58646 0.2973,46.39976 2.59568,190.9242 4.19441,236.86872 1.19932,34.46607 3.42829,68.8886 5.14243,103.3329 2.16295,23.09752 7.649,90.73433 12.84149,119.30289 1.72512,9.49146 8.46893,18.33055 7.56389,27.93497 -0.69481,7.3735 -13.16998,11.41766 -11.96065,18.72443 2.52378,15.24868 42.53408,-62.12746 30.17153,-35.20945 20.8615,-35.76313 26.19118,-43.46278 45.3747,-83.33037 46.68054,-97.01248 81.91648,-198.98818 110.86571,-302.56844 8.34767,-31.1393 17.12648,-62.1662 25.043,-93.41789 27.36955,-108.04563 50.24346,-217.57764 65.04519,-328.098214 1.91235,-14.278953 3.16243,-28.638809 4.74364,-42.958213 0.31549,-17.481053 -5.03301,-30.918073 19.55082,-36.572969 4.66125,-1.072204 -5.38207,7.954187 -7.42172,12.280463 -3.62678,7.6926947 -6.52106,15.7130412 -9.52689,23.668926 -12.86861,34.060974 -15.31681,43.435797 -27.35464,80.711925 -15.06685,51.987032 -24.0042,80.525192 -36.65515,134.948112 -6.78653,29.19489 -12.73024,58.58196 -18.62187,87.9705 -21.37339,106.61439 -39.47927,213.87483 -54.77214,321.52654 -10.63506,79.56067 -19.72902,141.17319 -27.11563,220.66734 -2.96556,31.9152 -5.58963,63.88229 -6.9655,95.90542 -1.04915,24.41872 -1.19632,48.89806 -0.30539,73.32316 0.54354,14.9014 6.75817,29.7418 4.603,44.4967 -1.46695,10.0431 -9.9833,17.6748 -14.97495,26.5122 3.51763,-2.6312 8.22751,-4.1667 10.55288,-7.8936 6.31663,-10.1235 25.06018,-64.0868 26.93102,-69.858 23.63072,-72.89542 40.48,-147.80482 52.09594,-223.52969 5.33559,-36.3794 11.27148,-72.6758 16.00678,-109.13819 10.58373,-81.49594 18.76589,-164.85435 24.71808,-246.79358 2.89489,-39.8518 5.90818,-79.72466 6.97831,-119.66715 1.90614,-71.1465 -1.39467,-92.68917 -6.83263,-158.63903 -9.23008,-51.63766 -13.46768,-23.84453 8.66997,-59.95953 2.43036,-3.964847 -6.3008,6.94297 -8.60076,10.98486 -4.29935,7.55558 -7.87655,15.52715 -11.08318,23.6073 -8.83761,22.26928 -22.59211,66.7925 -29.27559,87.64919 -16.63084,56.37231 -22.52233,74.64599 -37.65688,133.56061 -26.00458,101.22865 -47.71759,203.63355 -64.02378,306.87594 -2.20747,17.30819 -4.71184,34.58109 -6.62241,51.92456 -1.10868,10.06413 1.94559,21.14816 -2.43302,30.27743 -4.71435,9.82926 -15.70287,15.13856 -23.16237,23.08812 -1.08749,1.15894 3.29018,-1.20159 3.9721,-2.63712 3.42069,-7.20111 11.44143,-40.61634 12.37192,-44.24938 2.83728,-12.64995 5.86383,-25.25893 8.51185,-37.94984 24.63363,-118.05918 39.68157,-237.98919 49.66258,-358.10835 2.33438,-30.88925 5.26277,-61.73935 7.00314,-92.66775 3.0767,-54.67669 4.16,-110.80291 2.91919,-165.609609 -0.98004,-43.28809 -2.70468,-72.523785 -8.43835,-114.256293 -1.28956,-9.386097 -3.44326,-18.633067 -5.16488,-27.949601 5.92857,-7.81552 12.02205,-15.508638 17.78571,-23.446559 1.51168,-2.081944 -4.13731,3.446876 -5.01911,5.863918 -2.33089,6.389002 -3.35407,13.203334 -4.38941,19.924975 -7.2899,47.327731 -7.18166,95.519906 -8.7815,143.2252 0.28551,25.847944 -0.13049,51.713159 0.85652,77.543829 2.00403,52.44673 9.43264,143.27568 14.34895,193.89751 10.07181,103.70646 22.38959,207.46047 45.20301,309.25814 16.70348,62.55314 31.2654,127.0651 62.53168,184.4941 5.23979,9.6243 12.32152,18.12486 18.48228,27.18729 5.80827,4.43033 13.22978,7.31057 17.42481,13.29101 1.63029,2.32415 -1.57459,5.45515 -2.36189,8.18273 5.61079,-5.72342 12.25155,-10.59345 16.83237,-17.17028 14.63472,-21.01153 25.27355,-51.48953 32.66209,-74.98003 20.33372,-64.64726 31.94364,-131.56952 38.17315,-198.97199 1.36661,-26.76331 3.63772,-53.49573 4.09985,-80.28991 0.89911,-52.13026 -1.83821,-99.83705 -7.143,-151.58025 -3.32415,-32.42392 -9.3396,-77.11011 -17.41187,-109.88097 -2.3023,-9.3466 -6.06929,-18.27024 -9.10393,-27.40536 5.08189,-5.64126 7.74527,-15.74333 15.24567,-16.92377 5.35725,-0.84314 -4.34089,10.03681 -5.34692,15.36587 -1.92746,10.20998 -2.60838,20.62475 -3.40319,30.98463 -4.33869,56.55187 -3.80527,113.40335 -1.839,170.03507 1.58935,26.17862 2.60428,52.39844 4.76806,78.53584 8.01444,96.81076 21.99166,193.80924 49.66541,287.12211 4.24042,14.29822 9.46471,28.28604 14.19707,42.42906 4.45046,9.748 8.21613,19.83871 13.35138,29.24399 2.44937,4.48606 10.19783,7.17814 9.28029,12.20629 -1.03309,5.66144 -7.89213,12.18037 -13.47685,10.79107 -4.64677,-1.15596 5.54004,-7.89525 7.42758,-12.29593 4.08884,-9.53287 13.69462,-44.21481 15.84234,-51.65083 3.20466,-12.66934 6.65195,-25.27976 9.61398,-38.00801 20.57693,-88.42173 33.18955,-178.69512 39.16354,-269.24606 0.62945,-15.20073 1.62069,-30.39079 1.88835,-45.60219 0.19867,-11.29123 0.13855,-22.59992 -0.48991,-33.8754 -0.63568,-11.40515 -10.99852,-33.6001 16.35075,-32.54526 13.74539,0.53015 -40.73413,47.82441 -10.44029,39.92433 -21.95874,107.76275 -39.10075,216.41235 -55.35794,325.1639 -2.7131,18.96917 -5.26353,37.96231 -8.13929,56.9075 -2.10356,13.85797 -4.42039,27.68343 -6.79793,41.49703 -2.95336,17.1592 -1.06141,41.42975 -31.13745,37.69003 -16.21531,-2.01625 29.59188,-61.73338 0.62299,-49.01659 3.78344,-62.14012 8.1061,-124.2685 10.56204,-186.48098 1.14901,-29.10595 1.83423,-58.22849 2.64486,-87.34584 2.4784,-89.02286 2.54803,-100.90509 4.35483,-190.21997 0.18922,-30.31034 0.58586,-60.6201 0.56764,-90.93102 -0.0261,-43.34631 -0.85813,-110.04067 -2.09182,-154.43488 -0.52541,-18.90712 -1.18244,-37.81288 -2.15138,-56.702472 -0.63066,-12.294622 -5.90071,-24.964433 -2.64676,-36.837397 2.97793,-10.865837 13.44977,-18.078762 20.17466,-27.118143 -7.20318,15.98278 -3.76493,6.269699 -7.15474,35.044897 -1.60246,13.602788 -3.07918,27.220593 -4.47664,40.845965 -7.18689,70.07298 -13.32199,140.2597 -18.44526,210.51301 -0.72975,10.0267 -13.48519,185.07784 -13.9399,192.18881 -6.21657,97.21762 -10.87117,194.89818 -2.84225,292.17254 0.83185,9.39242 1.50751,18.79999 2.49554,28.17727 0.45579,4.32584 4.36043,9.37841 1.83464,12.91975 -5.15727,7.23085 -14.00173,11.10837 -21.88715,15.19528 -1.45511,0.75416 1.21957,-3.05918 1.56326,-4.66168 1.85308,-8.64007 2.96371,-21.15345 3.88423,-29.28843 10.07498,-90.36707 22.66391,-180.41605 34.5481,-270.5575 3.09462,-26.12684 6.51649,-52.21699 9.28388,-78.38051 3.06896,-29.01473 5.7921,-58.06749 8.2239,-87.14255 9.2947,-111.12904 15.30381,-222.86307 7.03536,-334.278417 -2.07618,-25.433683 -4.61568,-61.766166 -8.05664,-88.519851 -0.87389,-6.794504 -6.54944,-14.176874 -3.41134,-20.266313 4.13956,-8.03274 13.56393,-12.615458 22.01101,-15.826033 7.69734,-2.925617 -19.33902,41.57413 0.68318,24.694307 6.88615,104.96584 13.96174,209.929247 17.90313,315.060207 0.99881,29.49608 2.30643,58.98332 2.99643,88.48824 1.86575,79.78109 1.19282,106.18594 0.75394,186.10598 -0.40345,73.47092 -0.50337,146.95794 -2.56652,220.40705 -0.50621,21.80729 -1.56292,59.53635 -1.51758,82.82489 0.015,7.68317 3.88461,16.13104 0.53051,23.04344 -4.5767,9.43201 -14.97156,14.67966 -22.41647,22.06088 -0.81149,0.80455 1.67665,-1.5531 2.51498,-2.32965 1.09393,-5.27313 2.18786,-10.54627 3.2818,-15.81941 13.33568,-94.34091 22.30377,-189.2011 31.56122,-284.01013 2.09099,-22.39776 4.04036,-44.80919 6.27298,-67.19327 3.73659,-37.46287 9.6077,-89.37835 13.90699,-126.96103 4.09979,-35.83864 8.6241,-75.22093 13.32738,-111.11462 1.91989,-14.65191 4.07252,-29.27238 6.10877,-43.90858 1.90357,-10.79744 3.50468,-21.6526 5.71071,-32.39233 1.35012,-6.57287 0.83802,-14.21009 4.95084,-19.51199 6.75909,-8.71325 16.73471,-14.48379 26.0269,-20.42189 0.98398,-0.6288 2.45351,0.85049 2.93343,1.91505 1.31095,2.90796 0.29876,14.16597 0.22608,15.76214 -3.08692,47.26728 -8.75201,94.38226 -17.06522,141.0178 -6.6565,34.929 -7.29529,40.24815 -15.61575,75.59328 -14.47622,61.49466 -31.97199,122.30235 -43.5901,184.45865 -2.70063,16.15331 -5.85995,32.23661 -8.1019,48.45994 -7.63967,55.2828 -10.40312,112.33424 6.28713,166.28499 1.80695,3.98686 3.25659,8.15583 5.42085,11.96058 1.05286,1.85092 5.52374,3.23498 4.14686,4.85937 -4.91663,5.80047 -12.36865,8.89938 -18.9852,12.64637 -1.26231,0.71486 2.00611,-2.14124 2.69209,-3.41948 2.04348,-3.80772 4.19398,-11.98599 5.25592,-15.53339 12.53207,-51.27894 19.33674,-103.74711 23.72816,-156.30873 0.88664,-12.54937 1.89859,-25.09052 2.65993,-37.64811 2.09971,-34.63267 2.64095,-69.31521 3.11894,-103.99934 0.41874,-7.61866 1.05491,-15.25021 1.33798,-22.87369 0.45886,-12.35761 0.24541,-24.7386 0.55542,-37.09909 0.047,-22.67457 0.24491,-45.42608 -1.81347,-68.02688 0,0 23.38033,-11.91287 23.38033,-11.91287 z"
       inkscape:connector-curvature="0"
       transform="translate(0,52.362183)" />
    <path
       style="stroke:#2e220d;fill:none;stroke-width:2.50000000000000000;stroke-miterlimit:4;stroke-dasharray:none;stroke-linejoin:miter;stroke-opacity:1;fill-opacity:1;opacity:0.12931034;stroke-linecap:round"
       id="path4018" />
  </g>
  <g
     inkscape:groupmode="layer"
     id="layer4"
     inkscape:label="sky">
    <path
       style="fill:#d8f4ff;fill-opacity:1;stroke:none"
       d="M 868.58316,564.68172 C 903.25164,294.17926 686.14759,132.60127 509.94791,132.99611 289.34089,133.49046 91.191942,329.87707 139.63039,574.94867 z"
       id="path3894"
       inkscape:connector-curvature="0"
       sodipodi:nodetypes="cscc" />
  </g>
  <g
     inkscape:groupmode="layer"
     id="layer12"
     inkscape:label="sky2"
     style="display:inline">
    <path
       sodipodi:nodetypes="cscc"
       inkscape:connector-curvature="0"
       id="path3898"
       d="M 868.58316,564.68172 C 921.18849,350.97933 718.70691,143.21087 509.94791,132.99611 296.17349,122.53594 87.348328,346.53273 139.63039,574.94867 z"
       style="fill:url(#linearGradient3906);fill-opacity:1;stroke:none" />
  </g>
  <g
     inkscape:groupmode="layer"
     id="layer3"
     inkscape:label="islandBackground">
    <path
       sodipodi:nodetypes="ccccccssccccccccsscscccccc"
       inkscape:connector-curvature="0"
       id="path3883"
       d="m 138.94986,478.96318 c 10.89884,-0.38765 20.81544,-2.24865 39.69911,9.34097 l 15.59588,7.55584 7.72791,-3.86761 c 5.5442,4.80336 11.98609,8.2602 21.64433,6.8925 8.9292,15.03357 12.70857,8.86853 19.79091,9.12727 1.85608,-8.2631 12.12662,-3.64402 20.09461,2.42501 5.2928,4.0314 10.45209,10.87404 13.50915,7.12666 4.32274,-5.29884 4.56592,6.59969 23.11178,3.32258 6.44735,9.97046 5.52399,-5.68194 12.76594,0.437 8.04748,-13.29934 2.78509,10.90253 7.93854,8.83198 l 8.37156,-1.48966 c 5.2791,5.00955 4.67718,10.31652 5.89331,5.16863 2.9719,0.005 5.94381,0.29644 8.91571,4.37315 l 9.65974,-5.59001 11.7846,3.64053 c 9.02017,0.86786 12.12557,6.25414 18.24732,8.60388 4.51929,1.73467 9.36541,-1.01812 14.27734,-0.4421 5.908,0.69283 11.91121,-1.53452 17.55543,-2.37823 7.01225,4.99346 13.90853,2.96251 21.03675,3.33121 19.50204,1.0087 18.01845,12.45372 28.19355,8.25239 l 13.16404,12.08629 3.62708,3.75681 5.56863,4.0994 -346.57609,1.59712 c -5.98736,-36.73387 -9.94061,-59.46774 -1.59713,-96.20161 z"
       style="fill:#452e11;stroke:#2e220d;stroke-width:1px;stroke-linecap:butt;stroke-linejoin:miter;stroke-opacity:1;fill-opacity:1;opacity:1" />
    <path
       style="fill:url(#linearGradient3877);fill-opacity:1;stroke:#000000;stroke-width:1px;stroke-linecap:butt;stroke-linejoin:miter;stroke-opacity:1"
       d="m 136.81452,478.53611 c 10.89884,-0.38765 22.95078,-1.82158 41.83445,9.76804 l 15.59588,7.55584 7.72791,-3.86761 c 5.5442,4.80336 11.98609,8.2602 21.64433,6.8925 8.9292,15.03357 12.70857,8.86853 19.79091,9.12727 1.85608,-8.2631 12.12662,-3.64402 20.09461,2.42501 5.2928,4.0314 10.45209,10.87404 13.50915,7.12666 4.32274,-5.29884 4.56592,6.59969 23.11178,3.32258 6.44735,9.97046 5.52399,-5.68194 12.76594,0.437 8.04748,-13.29934 2.78509,10.90253 7.93854,8.83198 l 8.37156,-1.48966 c 5.2791,5.00955 4.67718,10.31652 5.89331,5.16863 2.9719,0.005 5.94381,0.29644 8.91571,4.37315 l 9.65974,-5.59001 11.7846,3.64053 c 9.02017,0.86786 12.12557,6.25414 18.24732,8.60388 4.51929,1.73467 9.36541,-1.01812 14.27734,-0.4421 5.908,0.69283 11.91121,-1.53452 17.55543,-2.37823 7.01225,4.99346 13.90853,2.96251 21.03675,3.33121 19.50204,1.0087 18.01845,12.45372 28.19355,8.25239 l 13.16404,12.08629 3.62708,3.75681 5.56863,4.0994 -343.15954,0.74298 c -6.2657,-35.89885 -12.45286,-55.77461 -7.14902,-95.77454 z"
       id="path3859"
       inkscape:connector-curvature="0"
       sodipodi:nodetypes="ccccccssccccccccsscscccccc" />
    <path
       style="fill:none;stroke:#492e00;stroke-width:1px;stroke-linecap:butt;stroke-linejoin:miter;stroke-opacity:1"
       d="m 134.46348,534.42991 c 8.24022,-3.79925 19.24064,-10.49491 31.83704,-9.50438 9.5192,0.74855 17.94985,3.88663 28.78951,7.41133 11.39074,3.70389 25.23314,7.83472 36.94412,10.0683 13.71169,2.61516 28.90245,2.10737 41.83955,3.74354 14.76055,1.86677 27.19089,5.92092 41.68799,10.04408"
       id="path3861"
       inkscape:connector-curvature="0"
       sodipodi:nodetypes="cssssc" />
  </g>
  <g
     inkscape:groupmode="layer"
     id="layer11"
     inkscape:label="circleTop">
    <path
       sodipodi:open="true"
       sodipodi:end="3.1415927"
       sodipodi:start="0"
       transform="matrix(1,0,0,-1,-94,1106.5714)"
       d="m 968.57141,604.28571 c 0,204.34535 -165.65464,370 -370,370 -204.34536,0 -370,-165.65465 -370,-370 0,-10e-6 0,-2e-5 0,-2e-5"
       sodipodi:ry="370"
       sodipodi:rx="370"
       sodipodi:cy="604.28571"
       sodipodi:cx="598.57141"
       id="path3897"
       style="display:inline;fill:none;stroke:#000000;stroke-width:6;stroke-miterlimit:4;stroke-dasharray:none"
       sodipodi:type="arc" />
  </g>
  <g
     inkscape:groupmode="layer"
     id="layer10"
     inkscape:label="ocean">
    <path
       style="fill:url(#Wavy);stroke:#87decd;stroke-width:1px;stroke-linecap:butt;stroke-linejoin:miter;stroke-opacity:1;fill-opacity:1.0"
       d="m 827.01551,681.91711 c 22.4486,-35.55216 29.80411,-77.14156 40.89637,-117.23626 l -728.86422,4.54404 c 12.00176,39.95011 21.0579,80.48935 44.53161,118.14507 217.3627,8.5471 443.95192,18.41682 643.43624,-5.45285 z"
       id="path3917"
       inkscape:connector-curvature="0"
       sodipodi:nodetypes="ccccc" />
    <path
       sodipodi:nodetypes="ccccc"
       inkscape:connector-curvature="0"
       id="path5564"
       d="m 827.01551,681.91711 c 22.4486,-35.55216 29.80411,-77.14156 40.89637,-117.23626 l -728.86422,4.54404 c 12.00176,39.95011 21.0579,80.48935 44.53161,118.14507 217.3627,8.5471 443.95192,18.41682 643.43624,-5.45285 z"
       style="fill:#87deab;stroke:#87decd;stroke-width:1px;stroke-linecap:butt;stroke-linejoin:miter;stroke-opacity:1;fill-opacity:1;opacity:0.88999999" />
    <path
       style="fill:url(#linearGradient3842);stroke:#87decd;stroke-width:1px;stroke-linecap:butt;stroke-linejoin:miter;stroke-opacity:1;fill-opacity:1;opacity:0.44999993999999999"
       d="m 827.01551,681.91711 c 22.4486,-35.55216 29.80411,-77.14156 40.89637,-117.23626 l -728.86422,4.54404 c 12.00176,39.95011 21.0579,80.48935 44.53161,118.14507 217.3627,8.5471 443.95192,18.41682 643.43624,-5.45285 z"
       id="path3036"
       inkscape:connector-curvature="0"
       sodipodi:nodetypes="ccccc" />
  </g>
  <g
     inkscape:groupmode="layer"
     id="layer9"
     inkscape:label="SandBackground"
     style="display:inline">
    <path
       style="fill:#c7a063;fill-opacity:1;stroke:#ffcd7f;stroke-width:1px;stroke-linecap:butt;stroke-linejoin:miter;stroke-opacity:1"
       d="m 320.80931,822.78239 c -51.71064,-26.10391 -99.01827,-85.11958 -136.32124,-135.23627 97.37306,3.19259 193.89912,1.84114 316.27163,5.03372 108.20422,-1.08419 224.09051,1.70725 329.89104,-11.39537 -36.61349,48.64108 -84.91388,104.71134 -133.59481,138.8715 z"
       id="path3914"
       inkscape:connector-curvature="0"
       sodipodi:nodetypes="cccccc" />
  </g>
  <g
     inkscape:groupmode="layer"
     id="layer2"
     inkscape:label="surfboardRight"
     style="display:inline">
    <path
       style="fill:#ffeeaa;stroke:#ffeeaa;stroke-width:1.27680647px;stroke-linecap:butt;stroke-linejoin:miter;stroke-opacity:1"
       d="M 652.09953,130.1875 C 615.04797,132.45241 499.74614,245.6341 519.4667,870.14329 616.84656,854.98523 689.48276,828.02702 736.0685,784.66211 801.29864,196.41867 686.4566,120.09234 659.28266,131.125 c -1.18035,12.58662 -0.95847,12.56973 -0.84811,0 -1.71774,-0.72633 -3.84774,-1.08954 -6.33502,-0.9375 z"
       id="path3815"
       inkscape:connector-curvature="0"
       sodipodi:nodetypes="sccccs" />
    <path
       style="fill:#aa0000;stroke:#aa0000;stroke-width:0.78485066;stroke-miterlimit:4"
       d="m 641.05003,130.83371 c 8.18613,-3.49866 15.77199,-3.52398 24.77827,0.53882 l -28.90547,695.78409 c -12.49432,0.63547 -16.82699,0.27175 -24.87445,0 z"
       id="rect3820"
       inkscape:connector-curvature="0"
       sodipodi:nodetypes="ccccc" />
    <path
       style="fill:#aa0000;stroke:#aa0000;stroke-width:0.78485066;stroke-miterlimit:4"
       d="m 614.29248,151.60964 c 4.49101,-5.00581 8.10128,-9.96167 16.25259,-15.17502 l -25.41782,692.45942 -15.79869,0 z"
       id="rect3823"
       inkscape:connector-curvature="0"
       sodipodi:nodetypes="ccccc" />
    <path
       sodipodi:nodetypes="ccccc"
       inkscape:connector-curvature="0"
       id="path3826"
       d="m 688.22685,147.60964 c -4.12351,-5.00581 -7.36996,-9.96167 -15.13853,-15.17502 l -25.41784,692.45942 15.79869,0 z"
       style="fill:#aa0000;stroke:#aa0000;stroke-width:0.78485066;stroke-miterlimit:4" />
    <path
       sodipodi:nodetypes="sccccs"
       inkscape:connector-curvature="0"
       id="path3996"
       d="M 652.09953,130.1875 C 615.04797,132.45241 499.74614,245.6341 519.4667,870.14329 616.84656,854.98523 689.48276,828.02702 736.0685,784.66211 801.29864,196.41867 686.4566,120.09234 659.28266,131.125 c -1.18035,12.58662 -0.95847,12.56973 -0.84811,0 -1.71774,-0.72633 -3.84774,-1.08954 -6.33502,-0.9375 z"
       style="fill:url(#linearGradient4004);stroke:#ffeeaa;stroke-width:1.27680646999999992px;stroke-linecap:butt;stroke-linejoin:miter;stroke-opacity:1;fill-opacity:1" />
  </g>
  <g
     inkscape:groupmode="layer"
     id="layer6"
     inkscape:label="surfboardLeft"
     style="display:inline">
    <g
       id="g3876"
       transform="translate(-386,-22)">
      <path
         sodipodi:nodetypes="cccc"
         inkscape:connector-curvature="0"
         id="path3856"
         d="m 705.56553,181.32855 c -133.26118,87.45447 -95.70511,463.53735 -51.96898,626.32754 0,0 74.42692,67.92848 130.96359,70.26132 35.90664,-53.85996 73.74094,-590.66427 -78.99461,-696.58886 z"
         style="fill:#95d2d7;fill-opacity:1;stroke:#95d2d7;stroke-width:1px;stroke-linecap:butt;stroke-linejoin:miter;stroke-opacity:1" />
      <path
         sodipodi:nodetypes="ccccc"
         inkscape:connector-curvature="0"
         id="path3873"
         d="m 634.71921,717.30449 178.56625,-4.55763 c -4.53426,53.56468 -10.65941,129.61003 -27.06858,164.34219 -2.76468,11.62999 -130.64712,-65.59306 -130.64712,-65.59306 -8.17579,-30.22514 -15.78689,-64.97815 -20.85055,-94.1915 z"
         style="fill:#c55233;fill-opacity:1;stroke:#c55233;stroke-width:1px;stroke-linecap:butt;stroke-linejoin:miter;stroke-opacity:1" />
      <path
         style="fill:url(#linearGradient3964);fill-opacity:1;stroke:#95d2d7;stroke-width:1px;stroke-linecap:butt;stroke-linejoin:miter;stroke-opacity:1"
         d="m 705.56553,181.32855 c -133.26118,87.45447 -95.70511,463.53735 -51.96898,626.32754 0,0 74.42692,67.92848 130.96359,70.26132 35.90664,-53.85996 73.74094,-590.66427 -78.99461,-696.58886 z"
         id="path3956"
         inkscape:connector-curvature="0"
         sodipodi:nodetypes="cccc" />
    </g>
  </g>
  <g
     inkscape:groupmode="layer"
     id="layer5"
     inkscape:label="surfboardCenter"
     style="display:inline">
    <path
       style="fill:#f0e0c3;fill-opacity:1;stroke:#f0e0c3;stroke-width:0.92746025px;stroke-linecap:butt;stroke-linejoin:miter;stroke-opacity:1;display:inline;filter:url(#filter4081)"
       d="m 505.45302,864.90625 0.91394,0 c 32.40802,-8.28728 45.44458,1.70753 86.45998,-12.03489 C 582.51716,597.03019 665.17024,322.60994 503.90999,95.65625 336.32461,302.40553 390.34925,593.79521 394.43391,853.66736 c 31.82164,19.40453 72.53892,11.23889 111.01911,11.23889 z"
       id="path3835"
       inkscape:connector-curvature="0"
       sodipodi:nodetypes="cccccc" />
    <path
       sodipodi:nodetypes="cccccc"
       inkscape:connector-curvature="0"
       id="path3846"
       d="m 515.45302,864.90625 0.91394,0 c 32.40802,-8.28728 45.44458,1.70753 86.45998,-12.03489 C 592.51716,597.03019 675.17024,322.60994 513.90999,95.65625 346.32461,302.40553 400.34925,593.79521 404.43391,853.66736 c 31.82164,19.40453 72.53892,11.23889 111.01911,11.23889 z"
       style="fill:#743838;stroke:#782121;stroke-width:0.92746025000000021px;stroke-linecap:butt;stroke-linejoin:miter;stroke-opacity:1;display:inline;filter:url(#filter4081);fill-opacity:1"
       transform="matrix(0.84784671,0,0,0.94976463,66.680358,22.169941)" />
    <path
       sodipodi:nodetypes="ccccc"
       inkscape:connector-curvature="0"
       id="path3801"
       d="m 403.48093,395.75598 182.95918,-2.09087 c -1.07127,-16.3968 -2.48353,-30.38488 -5.42354,-53.07217 l -169.69175,0.11207 c -5.85125,25.13013 -5.70834,39.14154 -7.84389,55.05097 z"
       style="fill:#0c1d2f;fill-opacity:1;stroke:#0c1d2f;stroke-width:0.9945603px;stroke-linecap:butt;stroke-linejoin:miter;stroke-opacity:1;display:inline" />
    <path
       style="fill:#0c1d2f;fill-opacity:1;stroke:#0c1d2f;stroke-width:0.9267801px;stroke-linecap:butt;stroke-linejoin:miter;stroke-opacity:1;display:inline"
       d="m 578.19166,310.47544 c -3.35465,-17.89782 -6.72714,-34.15143 -11.63521,-52.32688 l -133.98312,-2.74613 c -7.22326,21.53958 -11.91028,39.35955 -15.10365,55.26898 40.67005,0.003 104.51313,-0.1996 160.72198,-0.19597 z"
       id="path3799"
       inkscape:connector-curvature="0"
       sodipodi:nodetypes="ccccc" />
    <path
       sodipodi:nodetypes="cccccc"
       inkscape:connector-curvature="0"
       id="path3928"
       d="m 505.45302,864.90625 0.91394,0 c 32.40802,-8.28728 45.44458,1.70753 86.45998,-12.03489 C 582.51716,597.03019 665.17024,322.60994 503.90999,95.65625 336.32461,302.40553 390.34925,593.79521 394.43391,853.66736 c 31.82164,19.40453 72.53892,11.23889 111.01911,11.23889 z"
       style="fill:url(#linearGradient3936);fill-opacity:1;stroke:#f0e0c3;stroke-width:0.92746025000000021px;stroke-linecap:butt;stroke-linejoin:miter;stroke-opacity:1;display:inline;opacity:0.94" />
  </g>
  <g
     inkscape:groupmode="layer"
     id="layer8"
     inkscape:label="sandFront">
    <path
       style="fill:#ffcd7f;stroke:#ffccaa;stroke-width:1px;stroke-linecap:butt;stroke-linejoin:miter;stroke-opacity:1;fill-opacity:1"
       d="m 586.0625,802.8125 c -6.81781,-0.0205 -13.64564,4.88593 -19.1875,5.53125 -7.79073,0.90718 -15.17956,-4.14577 -22.125,-4.28125 -7.47264,-0.14576 -9.31422,4.14477 -16.4375,6.84375 -5.06748,1.92005 -13.84267,-2.13094 -18.78125,-1.15625 -4.28958,0.8466 -6.1841,2.21575 -9.125,3.71875 L 660.75,811.625 c -2.157,-0.74447 -4.45729,-1.71027 -7.21875,-2.8125 -9.49026,-3.788 -17.19032,-1.33015 -24.625,0.90625 -7.4169,2.23104 -14.55896,-1.77776 -22.90625,1.5 -5.56151,-3.36021 -12.74225,-8.38455 -19.9375,-8.40625 z m 74.6875,8.8125 c 0.60363,0.20834 1.19431,0.42407 1.78125,0.59375 l -163.3125,1.84375 c 0.42185,-0.1975 0.80849,-0.40005 1.1875,-0.59375 l -8.09375,0.0937 c 0.22354,0.18024 0.47803,0.36978 0.75,0.5625 l -184.59375,2.09375 c 61.60705,36.5184 127.36296,49.52655 194.0625,57.1875 88.45695,1.19707 142.95656,-33.5607 203.71875,-61.6875 l -30.21875,0.34375 c 0.69571,-0.18325 1.43075,-0.38943 2.1875,-0.625 z m 17.46875,-0.1875 31.25,-0.375 c -10.13758,-2.07133 -18.29342,-3.85178 -30.5,0.125 -0.26258,0.0856 -0.49495,0.1706 -0.75,0.25 z m -185.90625,2.125 c -1.74333,-1.40563 -2.291,-2.47684 -5.625,-3.59375 -4.00594,-1.34201 -9.97262,-8.10466 -18.8125,1.09375 -2.15632,2.24378 -9.67269,-0.5541 -11.59375,-2.84375 -5.71771,-6.81475 -10.52447,-0.851 -14.4375,4 -3.17747,3.93911 -6.98794,-6.23657 -10.96875,-5.28125 -4.18824,1.00509 -10.46166,4.67904 -14.03125,7.375 -0.0632,0.0477 -0.12367,0.0825 -0.1875,0.125 z m -75.65625,0.875 -4.21875,0.0625 c 1.50334,0.59409 2.92786,0.79679 4.21875,-0.0625 z M 412.4375,814.5 c -3.18008,-1.25671 -6.71118,-4.29328 -10.15625,-2.9375 -5.07588,-2.69568 -8.90142,-0.21734 -13.6875,-3.625 -7.00433,-4.98703 -8.77049,-1.66023 -14.84375,-2.59375 -6.45814,-0.99269 -17.22327,7.06657 -22.96875,8.375 -6.37924,1.45274 -17.17258,-5.27436 -23.25,-4.25 -9.06127,1.5273 -13.22896,2.86282 -21.65625,6.25 z"
       id="path3908"
       inkscape:connector-curvature="0"
       sodipodi:nodetypes="sssssccsscscccccccccccccccccsssssccccccccsssscc" />
  </g>
  <g
     inkscape:groupmode="layer"
     id="layer7"
     inkscape:label="Circle">
    <path
       sodipodi:type="arc"
       style="display:inline;fill:none;stroke:#000000;stroke-width:6;stroke-miterlimit:4;stroke-dasharray:none"
       id="path3018"
       sodipodi:cx="598.57141"
       sodipodi:cy="604.28571"
       sodipodi:rx="370"
       sodipodi:ry="370"
       d="m 968.57141,604.28571 a 370,370 0 1 1 -740,-2e-5"
       transform="translate(-94,-102)"
       sodipodi:start="0"
       sodipodi:end="3.1415927"
       sodipodi:open="true" />
    <text
       xml:space="preserve"
       style="display:inline;font-size:100px;font-style:normal;font-variant:normal;font-weight:normal;font-stretch:normal;line-height:125%;letter-spacing:0px;word-spacing:0px;fill:#000000;fill-opacity:1;stroke:none;font-family:Gabriela;-inkscape-font-specification:Gabriela"
       id="text3009"
       sodipodi:linespacing="125%"
       transform="matrix(1.0917184,-0.07932175,0.07246667,0.99737084,-96.360954,-14.728969)"><textPath
         xlink:href="#path2997"
         id="textPath3013"><tspan
   id="tspan3011">Brewing Co.</tspan></textPath></text>
  </g>
</svg>
